<?xml version="1.0" encoding="UTF-8"?>
<svg version="1.1" xmlns="http://www.w3.org/2000/svg" width="500" height="500">
<path d="M0 0 C1.23780889 -0.00445784 2.47561778 -0.00891569 3.75093603 -0.01350862 C5.11131383 -0.01341934 6.47169162 -0.01322953 7.8320694 -0.01294994 C9.28760071 -0.0162525 10.74313112 -0.01997889 12.19866037 -0.02409142 C16.19004426 -0.03407486 20.1814131 -0.0378223 24.17280769 -0.04048073 C28.48113005 -0.04439463 32.78944063 -0.05397213 37.09775543 -0.0626936 C47.49766733 -0.08242649 57.89758016 -0.09251978 68.29750609 -0.10142139 C73.19984103 -0.10580913 78.10217489 -0.11117465 83.00450897 -0.11641026 C99.30878983 -0.13341868 115.61307003 -0.14791207 131.9173584 -0.155159 C136.14531709 -0.15706876 140.37327577 -0.15898911 144.60123444 -0.16094494 C145.6520189 -0.16142868 146.70280336 -0.16191242 147.78542978 -0.16241082 C164.80124912 -0.17070828 181.81699811 -0.19604214 198.83278674 -0.22852562 C216.31776406 -0.26163165 233.80270566 -0.27961092 251.28771448 -0.28280324 C261.0987424 -0.28496495 270.90966768 -0.29366409 280.72066498 -0.31926441 C289.07720864 -0.34101979 297.43362472 -0.34899805 305.7901935 -0.33929763 C310.04931063 -0.33476704 314.30816478 -0.33656641 318.56724548 -0.35605907 C322.47599344 -0.37379291 326.38428855 -0.37261132 330.293042 -0.35716178 C331.69753738 -0.3548011 333.10206497 -0.35902814 334.50651139 -0.37099043 C352.7926709 -0.5169349 369.81629323 4.59848153 383.30045319 17.48968983 C392.79295682 28.16481435 399.73647973 41.34002157 399.79918671 55.84906483 C399.80991966 57.56030285 399.80991966 57.56030285 399.82086945 59.30611134 C399.82355835 60.54876255 399.82624725 61.79141376 399.82901764 63.07172108 C399.83558884 64.38780857 399.84216003 65.70389606 399.84893036 67.059865 C399.86991099 71.41797142 399.8803306 75.77607794 399.89029694 80.13422108 C399.89434744 81.63992804 399.89846445 83.14563483 399.90264702 84.65134144 C399.92168951 91.73080481 399.93591967 98.81025786 399.94425899 105.8897419 C399.95401292 114.03365777 399.98028789 122.17730051 400.02075988 130.32112026 C400.05103971 136.63305152 400.06573924 142.94490505 400.06904 149.25690746 C400.07137796 153.01830027 400.08017229 156.77940102 400.10550117 160.54071522 C400.12899444 164.08671423 400.13293131 167.63223333 400.12273979 171.17829037 C400.12201803 173.07826991 400.14096099 174.97822625 400.16080475 176.8781023 C400.06131427 193.54697818 393.78929701 207.62413664 382.35123444 219.62640858 C362.67906069 237.90359461 337.70258132 236.43985469 312.65993416 236.43623626 C308.87751595 236.43789099 305.09513449 236.4510499 301.31273651 236.46277332 C294.77596746 236.48153799 288.23921681 236.49331634 281.702425 236.50031185 C272.24615718 236.51052916 262.78994493 236.5326221 253.33370616 236.55769777 C237.98026701 236.59818505 222.62682252 236.63069426 207.27335358 236.65741444 C205.89825707 236.65981039 205.89825707 236.65981039 204.49538084 236.66225474 C203.5774644 236.66385364 202.65954796 236.66545254 201.71381587 236.66709989 C188.67473802 236.68982959 175.63566563 236.71446525 162.59659576 236.74139881 C161.67765773 236.74329496 160.75871969 236.7451911 159.81193504 236.74714471 C144.49859814 236.77890438 129.18527202 236.81464551 113.8719489 236.8524403 C104.43542141 236.87547367 94.99890127 236.89442995 85.56235548 236.90810703 C79.1064544 236.9176245 72.65056572 236.93045862 66.19467614 236.94591589 C62.46947845 236.95469001 58.74429613 236.96178688 55.01908875 236.96455669 C50.98417619 236.96757458 46.9493189 236.97815692 42.91442108 236.98946095 C41.73370523 236.98907481 40.55298938 236.98868868 39.33649427 236.98829085 C37.71658323 236.99465242 37.71658323 236.99465242 36.06394672 237.0011425 C35.13281207 237.0027164 34.20167741 237.0042903 33.24232656 237.00591189 C30.60367694 237.07052022 30.60367694 237.07052022 27.87627 237.70503849 C26.77526411 237.91748387 26.77526411 237.91748387 25.65201569 238.13422108 C25.32201569 237.80422108 24.99201569 237.47422108 24.65201569 237.13422108 C22.66007882 236.99964609 20.66366844 236.93050796 18.66764069 236.88812733 C16.79785553 236.83882069 16.79785553 236.83882069 14.89029694 236.78851795 C12.27838128 236.7284004 9.66640121 236.67100524 7.05435944 236.61664295 C-13.85518428 236.05065428 -31.59806743 231.92277047 -46.46907806 216.36078358 C-58.74987898 201.80765151 -61.67501726 185.97143375 -61.60677338 167.37421131 C-61.61027802 166.17239216 -61.61378265 164.97057301 -61.61739349 163.73233509 C-61.62461797 160.47821431 -61.62302335 157.22425998 -61.61663532 153.97014213 C-61.61151421 150.53916 -61.61628343 147.10818772 -61.61940765 143.67720509 C-61.62302922 137.92042562 -61.61829554 132.16369776 -61.6087265 126.40692616 C-61.59784025 119.7818334 -61.60137607 113.15686377 -61.61237931 106.53177398 C-61.6214979 100.80906807 -61.62271541 95.0863989 -61.61750197 89.36368805 C-61.61440793 85.96081279 -61.61390146 82.55799512 -61.62057495 79.15512371 C-61.62568918 75.35827815 -61.61786152 71.56166472 -61.60677338 67.76483631 C-61.61082184 66.65956089 -61.6148703 65.55428547 -61.61904144 64.41551685 C-61.51965462 45.92069454 -56.6160541 31.04996911 -43.80892181 17.43500233 C-31.73157577 5.79271919 -16.7264668 0.02810169 0 0 Z " fill="#DCE0E9" transform="translate(80.34798431396484,115.86577892303467)"/>
<path d="M0 0 C2.45713056 1.93219812 2.9852979 2.9558937 4 6 C4.68935088 14.78199733 3.29057533 22.85190151 1.3125 31.375 C1.03849365 32.60178467 0.7644873 33.82856934 0.48217773 35.0925293 C-0.33327228 38.73118225 -1.16515458 42.36575585 -2 46 C-2.42290962 47.87346467 -2.84487941 49.7471419 -3.265625 51.62109375 C-4.05634664 55.13195031 -4.85508801 58.64084338 -5.66015625 62.1484375 C-7.55364267 70.40180221 -9.41201333 78.66313074 -11.27319336 86.92382812 C-12.75792432 93.51147967 -14.24920698 100.09744778 -15.7578125 106.6796875 C-19.52858978 123.17446423 -23.05362375 139.70415782 -26.421875 156.28515625 C-27.89580814 163.53504202 -29.43382566 170.76949514 -31 178 C-30.78496826 177.3287207 -30.56993652 176.65744141 -30.34838867 175.96582031 C-15.8385182 130.93229947 1.69566903 80.83327232 35 46 C35.86625 45.071875 36.7325 44.14375 37.625 43.1875 C43.00225468 38.23476542 47.07188122 35.13287392 54.6328125 34.7421875 C58.66800803 35.18166424 60.42670811 36.9873656 63 40 C66.38462191 46.139171 66.46632767 51.57746751 66.375 58.5 C66.36484863 59.63800049 66.35469727 60.77600098 66.34423828 61.94848633 C65.93380912 85.42089825 62.5025921 108.53861385 58.77648926 131.66792297 C57.70721136 138.32164862 56.68403654 144.97679419 55.81640625 151.66015625 C55.6572876 152.88484619 55.49816895 154.10953613 55.33422852 155.37133789 C54.97365372 159.2860371 54.94339202 163.071298 55 167 C56.32 166.67 57.64 166.34 59 166 C59.75 167.625 59.75 167.625 60 170 C58.24107963 173.03262133 56.47809712 175.52190288 54 178 C50.46428571 177.46428571 50.46428571 177.46428571 49 176 C48.38967659 165.45506381 49.34498978 155.18277517 50.79483032 144.75445557 C51.13725354 142.28669163 51.46496957 139.81730676 51.78979492 137.34716797 C52.90185877 128.93174919 54.06487917 120.5237828 55.24645996 112.11787415 C61.88980743 77.35068152 61.88980743 77.35068152 58 43 C57.34 42.34 56.68 41.68 56 41 C47.93951522 41 43.13814196 45.8749051 37.60546875 51.234375 C34.10238587 54.77848414 31.15478864 58.53939379 28.3125 62.625 C27.80122559 63.35879883 27.28995117 64.09259766 26.76318359 64.84863281 C-2.43659708 107.51767259 -18.81383992 157.69493629 -33.94677734 206.65893555 C-34.31730225 207.84869995 -34.31730225 207.84869995 -34.6953125 209.0625 C-34.90172363 209.73410156 -35.10813477 210.40570313 -35.32080078 211.09765625 C-36.05796447 213.16235053 -36.9837583 215.05936194 -38 217 C-39.65 216.67 -41.3 216.34 -43 216 C-43.11699584 210.69167937 -42.79120431 205.94821077 -41.75 200.71484375 C-41.61645615 200.03333252 -41.48291229 199.35182129 -41.34532166 198.6496582 C-40.90441875 196.4107028 -40.4524724 194.17414359 -40 191.9375 C-39.68382762 190.34783671 -39.36816427 188.7580721 -39.05297852 187.16821289 C-38.21701781 182.96536894 -37.37016121 178.76480148 -36.51934814 174.56494141 C-36.00461319 172.02278346 -35.49204787 169.48019648 -34.97998047 166.9375 C-29.43098154 139.41336516 -23.3934644 112.01669963 -17.11254883 84.65112305 C-15.32074187 76.83568758 -13.55093109 69.01586289 -11.81640625 61.1875 C-11.63716614 60.37856796 -11.45792603 59.56963593 -11.27325439 58.7361908 C-10.41308204 54.85024863 -9.5557321 50.96370331 -8.70166016 47.07641602 C-8.38859703 45.65635747 -8.07528971 44.23635274 -7.76171875 42.81640625 C-7.61239395 42.13819321 -7.46306915 41.45998016 -7.30921936 40.76121521 C-6.3952834 36.65056412 -5.38281414 32.57628978 -4.3125 28.50390625 C-3.10764328 23.76469565 -2.48091326 19.25417269 -2.3125 14.375 C-2.27833984 13.68277344 -2.24417969 12.99054688 -2.20898438 12.27734375 C-2.09310453 9.85096169 -2 7.42938322 -2 5 C-19.13961633 7.5871119 -31.88610167 24.97991067 -41.66796875 38.17626953 C-53.06089303 53.77471974 -62.77116863 70.29780781 -68 89 C-68.29970703 90.04414063 -68.29970703 90.04414063 -68.60546875 91.109375 C-70.04712739 98.0179174 -69.16384758 103.79885875 -66 110 C-65.67 110.99 -65.34 111.98 -65 113 C-62.12069515 113.88117927 -59.37442971 114.58124222 -56.4375 115.1875 C-55.63119141 115.36474609 -54.82488281 115.54199219 -53.99414062 115.72460938 C-51.9986314 116.16149601 -49.99960644 116.58226673 -48 117 C-47.4375 118.9375 -47.4375 118.9375 -47 121 C-48.52172887 122.52172887 -49.87980138 122.24256289 -52 122.3125 C-58.50583481 122.23998273 -63.2968694 119.56180879 -68.8125 116.375 C-73.39343769 111.40141051 -75.22444569 105.31684205 -75.4375 98.625 C-74.35565681 74.41875865 -59.19922452 51.70327961 -45 33 C-44.30648437 32.08089844 -43.61296875 31.16179687 -42.8984375 30.21484375 C-15.91371711 -4.09718836 -15.91371711 -4.09718836 0 0 Z " fill="#323F59" transform="translate(148,137)"/>
<path d="M0 0 C0.99 0.99 0.99 0.99 2 2 C1.87778766 9.16979087 -0.89136205 14.6751719 -4.0625 21 C-4.53494141 21.96550781 -5.00738281 22.93101562 -5.49414062 23.92578125 C-6.65244372 26.28918757 -7.82116089 28.64678829 -9 31 C-2.11194991 28.08424732 -2.11194991 28.08424732 4.25 24.1875 C7.62073765 21.9762961 7.62073765 21.9762961 11 22.1875 C11.66 22.455625 12.32 22.72375 13 23 C14.16865212 26.41753377 13.82007188 28.42269563 12.70703125 31.82421875 C12.40812988 32.76225342 12.10922852 33.70028809 11.80126953 34.66674805 C11.47497559 35.66359619 11.14868164 36.66044434 10.8125 37.6875 C6.52075499 51.30508514 2.55359035 64.63433053 2 79 C19.04119949 69.4124984 28.51914848 45.75531063 37 29 C38.65 29.33 40.3 29.66 42 30 C41.58314744 32.50111536 41.23069116 34.5945428 39.96875 36.8125 C38.74033936 39.58633048 38.80309089 41.72981741 38.875 44.75 C38.89304687 45.73484375 38.91109375 46.7196875 38.9296875 47.734375 C38.95289063 48.48203125 38.97609375 49.2296875 39 50 C44.06615995 48.20772643 46.76700694 43.61325262 49.93359375 39.5234375 C51.20574768 37.94469799 52.59760342 36.46426702 54 35 C55.32 35 56.64 35 58 35 C59 36 59 36 59.125 39.25 C59 43 59 43 58.49609375 45.37109375 C57.95369266 48.24539246 57.90229275 50.89029848 57.9375 53.8125 C57.94652344 54.78832031 57.95554687 55.76414062 57.96484375 56.76953125 C57.97644531 57.50558594 57.98804688 58.24164063 58 59 C64.82734542 58.09517109 68.18348556 53.61645204 72.27392578 48.36425781 C77.62855674 41.23396724 82.69861864 34.00300295 86.4375 25.875 C89.06569014 21.03913014 92.89116969 17.11016904 98 15 C107.48560701 14.2428035 107.48560701 14.2428035 111 16 C111 17.32 111 18.64 111 20 C110.20335937 20.01417969 109.40671875 20.02835938 108.5859375 20.04296875 C101.50313534 20.19504669 101.50313534 20.19504669 95.375 23.3125 C91.82547426 27.3290686 90.31289035 30.61863852 90.421875 36.11328125 C92.34072629 45.6945725 98.7914487 55.05573067 103.96875 63.1796875 C105 65 105 65 105 67 C108.9076781 63.19307235 112.51010571 59.20085067 116.0625 55.0625 C116.90143799 54.0892981 116.90143799 54.0892981 117.75732422 53.09643555 C118.92232681 51.74413614 120.08638051 50.39101872 121.24951172 49.03710938 C122.9671989 47.03817188 124.68835583 45.04226975 126.41015625 43.046875 C127.48197011 41.80225491 128.55359248 40.55746989 129.625 39.3125 C130.36955444 38.44927124 130.36955444 38.44927124 131.12915039 37.56860352 C133.52162816 34.78090085 135.84314991 31.97471606 138 29 C139.65 29.33 141.3 29.66 143 30 C142.46568096 34.1123483 140.30189725 36.12656137 137.5 39.0625 C133.27550261 43.56566016 129.31975679 48.21148667 125.44140625 53.01953125 C122.0305711 57.1834788 118.5129487 61.25284887 114.98486328 65.31762695 C109.78918094 71.29333989 109.78918094 71.29333989 109.125 78.875 C109.26794026 89.5597848 106.42787366 99.1656258 99 107 C98.50242187 107.5259375 98.00484375 108.051875 97.4921875 108.59375 C94.93859074 111.00028098 93.24533343 111.96697435 89.75 112.4375 C87 112 87 112 85 110 C83.33011281 100.31465432 88.77105883 91.09583411 94.18017578 83.29882812 C95.93288978 80.95014738 97.73729151 78.66815788 99.62890625 76.4296875 C101.20570806 74.0750521 101.20570806 74.0750521 101.08203125 71.31640625 C99.49197806 66.44292192 96.85089637 62.38116252 94.125 58.0625 C90.64358022 52.49305529 87.38615488 47.13225119 85 41 C84.38253906 41.83402344 83.76507813 42.66804688 83.12890625 43.52734375 C67.20271279 64.78971458 67.20271279 64.78971458 58.4375 66.5 C56 66 56 66 53.86328125 63.95703125 C51.54953398 60.28510948 51.54161988 57.37513895 51.75 53.1875 C51.76804687 52.49462891 51.78609375 51.80175781 51.8046875 51.08789062 C51.85148936 49.39132336 51.92322376 47.69547524 52 46 C51.51789063 46.63808594 51.03578125 47.27617187 50.5390625 47.93359375 C49.59160156 49.17302734 49.59160156 49.17302734 48.625 50.4375 C47.99851562 51.26121094 47.37203125 52.08492188 46.7265625 52.93359375 C44.3314866 55.80009861 43.39617511 55.95598054 39.625 56.375 C36 56 36 56 33.7734375 53.4765625 C33.18820312 52.65929687 32.60296875 51.84203125 32 51 C31.443125 51.96679688 30.88625 52.93359375 30.3125 53.9296875 C24.55628989 63.79856493 18.48736596 73.21991453 10 81 C9.360625 81.598125 8.72125 82.19625 8.0625 82.8125 C5.17764094 84.47347946 3.26793515 84.48671375 0 84 C-3.01270588 80.94445944 -3.48306919 78.53292365 -3.5625 74.3125 C-3.26225507 59.26864887 1.62688086 43.9380366 7 30 C5.83984375 30.63228516 5.83984375 30.63228516 4.65625 31.27734375 C3.6146875 31.82519531 2.573125 32.37304688 1.5 32.9375 C-0.03140625 33.75541016 -0.03140625 33.75541016 -1.59375 34.58984375 C-4.57777687 35.8252035 -6.02647153 36.14148644 -9.1015625 36.29296875 C-13.17215097 36.63315376 -13.17215097 36.63315376 -15.6171875 39.7734375 C-16.39221844 40.95960374 -17.14397048 42.16122113 -17.875 43.375 C-18.71697292 44.65479884 -19.56475026 45.93079578 -20.41796875 47.203125 C-20.84255371 47.84185547 -21.26713867 48.48058594 -21.70458984 49.13867188 C-26.42076288 55.91517079 -32.15655724 62.98329125 -40 66 C-43.3125 65.9375 -43.3125 65.9375 -46 65 C-48.40119059 61.39821412 -48.43771322 58.49133631 -48.625 54.3125 C-48.66367188 53.61060547 -48.70234375 52.90871094 -48.7421875 52.18554688 C-48.8362334 50.45745345 -48.9191968 48.72876325 -49 47 C-49.48210937 47.56589844 -49.96421875 48.13179688 -50.4609375 48.71484375 C-51.09257812 49.44832031 -51.72421875 50.18179688 -52.375 50.9375 C-53.00148437 51.66839844 -53.62796875 52.39929688 -54.2734375 53.15234375 C-56.52780676 55.56482488 -57.58021548 55.9452455 -60.875 56.375 C-64 56 -64 56 -66.375 54.1875 C-69.21861553 48.60963877 -68.80988172 43.07011286 -67.234375 37.09765625 C-65.46003135 32.19004702 -65.46003135 32.19004702 -64 30 C-61.859375 29.2265625 -61.859375 29.2265625 -60 29 C-58.61650252 33.15049244 -59.43017081 35.11789638 -61.296875 38.953125 C-62.63359944 42.84447837 -62.22059848 46.93935399 -62 51 C-56.60624784 48.31759732 -54.02962434 44.34818742 -50.66210938 39.5625 C-47.48432059 35.20720498 -47.48432059 35.20720498 -44.75390625 34.0390625 C-43.88572266 34.01972656 -43.88572266 34.01972656 -43 34 C-42 35 -42 35 -41.97827148 37.40844727 C-42.04896851 38.97163696 -42.04896851 38.97163696 -42.12109375 40.56640625 C-42.16943359 41.69111328 -42.21777344 42.81582031 -42.26757812 43.97460938 C-42.32365234 45.15861328 -42.37972656 46.34261719 -42.4375 47.5625 C-42.48970703 48.75037109 -42.54191406 49.93824219 -42.59570312 51.16210938 C-42.7258566 54.10831066 -42.8608364 57.05421276 -43 60 C-35.23560633 57.02635094 -31.20231264 52.04717791 -26.3125 45.5625 C-25.73177734 44.81162109 -25.15105469 44.06074219 -24.55273438 43.28710938 C-20.49577816 38.06393362 -20.49577816 38.06393362 -18 32 C-18.63525576 30.32110979 -19.30686092 28.65583225 -20 27 C-20.94355865 19.04714849 -18.12759581 13.24571131 -13.4375 6.87890625 C-9.419131 2.04681753 -6.6360015 -0.56476608 0 0 Z " fill="#313E58" transform="translate(290,211)"/>
<path d="M0 0 C0.66 0.33 1.32 0.66 2 1 C2 2.32 2 3.64 2 5 C1.20335937 5.01417969 0.40671875 5.02835938 -0.4140625 5.04296875 C-7.49686466 5.19504669 -7.49686466 5.19504669 -13.625 8.3125 C-17.17452574 12.3290686 -18.68710965 15.61863852 -18.578125 21.11328125 C-16.65927371 30.6945725 -10.2085513 40.05573067 -5.03125 48.1796875 C-4 50 -4 50 -4 52 C-0.0923219 48.19307235 3.51010571 44.20085067 7.0625 40.0625 C7.62179199 39.41369873 8.18108398 38.76489746 8.75732422 38.09643555 C9.92232681 36.74413614 11.08638051 35.39101872 12.24951172 34.03710938 C13.9671989 32.03817188 15.68835583 30.04226975 17.41015625 28.046875 C18.48197011 26.80225491 19.55359248 25.55746989 20.625 24.3125 C21.36955444 23.44927124 21.36955444 23.44927124 22.12915039 22.56860352 C24.52162816 19.78090085 26.84314991 16.97471606 29 14 C31.475 14.495 31.475 14.495 34 15 C33.46568096 19.1123483 31.30189725 21.12656137 28.5 24.0625 C24.27550261 28.56566016 20.31975679 33.21148667 16.44140625 38.01953125 C13.0305711 42.1834788 9.5129487 46.25284887 5.98486328 50.31762695 C0.78918094 56.29333989 0.78918094 56.29333989 0.125 63.875 C0.26794026 74.5597848 -2.57212634 84.1656258 -10 92 C-10.74636719 92.78890625 -10.74636719 92.78890625 -11.5078125 93.59375 C-14.06140926 96.00028098 -15.75466657 96.96697435 -19.25 97.4375 C-22 97 -22 97 -24 95 C-25.66988719 85.31465432 -20.22894117 76.09583411 -14.81982422 68.29882812 C-13.06711022 65.95014738 -11.26270849 63.66815788 -9.37109375 61.4296875 C-7.79564075 59.07614523 -7.79564075 59.07614523 -7.9140625 56.32421875 C-9.52027793 51.40735065 -12.1911791 47.29780275 -14.9375 42.9375 C-16.03327644 41.17784964 -17.12583652 39.41619143 -18.21484375 37.65234375 C-18.70073975 36.87882568 -19.18663574 36.10530762 -19.68725586 35.30834961 C-21.95378286 31.32285346 -23 28.63979522 -23 24 C-23.8971875 24.4640625 -23.8971875 24.4640625 -24.8125 24.9375 C-27 26 -27 26 -30 27 C-29.35601383 23.83731234 -28.23865316 21.41221909 -26.625 18.625 C-25.12958302 16.01870184 -23.76138543 13.48300177 -22.5 10.75 C-17.2850225 1.18920792 -10.22608371 -0.85629042 0 0 Z " fill="#303D57" transform="translate(399,226)"/>
<path d="M0 0 C2.0625 0.4375 2.0625 0.4375 4 1 C3.5215726 3.71108863 2.95257735 6.11995142 1.9375 8.6875 C0.67117769 13.16183881 0.83571327 17.38171743 1 22 C6.39375216 19.31759732 8.97037566 15.34818742 12.33789062 10.5625 C15.51567941 6.20720498 15.51567941 6.20720498 18.24609375 5.0390625 C18.82488281 5.02617187 19.40367187 5.01328125 20 5 C21 6 21 6 21.02172852 8.40844727 C20.95103149 9.97163696 20.95103149 9.97163696 20.87890625 11.56640625 C20.83056641 12.69111328 20.78222656 13.81582031 20.73242188 14.97460938 C20.67634766 16.15861328 20.62027344 17.34261719 20.5625 18.5625 C20.51029297 19.75037109 20.45808594 20.93824219 20.40429688 22.16210938 C20.2741434 25.10831066 20.1391636 28.05421276 20 31 C27.82947841 27.9994862 31.76161493 23.01639418 36.625 16.4375 C37.76101082 14.91386387 38.89896083 13.39167121 40.0390625 11.87109375 C40.78470459 10.86453735 40.78470459 10.86453735 41.54541016 9.83764648 C42.92991397 8.08854272 44.3896358 6.54069936 46 5 C46 5.66 46 6.32 46 7 C46.66 7 47.32 7 48 7 C46.67600949 17.24253772 35.88752046 28.24192224 28.0859375 34.546875 C25.16337468 36.42658501 23.16616087 37.00313511 19.6875 36.9375 C17 36 17 36 15 33 C14.70008931 30.41114829 14.49134775 27.90850918 14.375 25.3125 C14.33632812 24.61060547 14.29765625 23.90871094 14.2578125 23.18554688 C14.1637666 21.45745345 14.0808032 19.72876325 14 18 C13.27683594 18.84884766 13.27683594 18.84884766 12.5390625 19.71484375 C11.90742188 20.44832031 11.27578125 21.18179687 10.625 21.9375 C9.99851563 22.66839844 9.37203125 23.39929688 8.7265625 24.15234375 C6.47219324 26.56482488 5.41978452 26.9452455 2.125 27.375 C-1 27 -1 27 -3.375 25.1875 C-6.20891399 19.6286687 -5.90465108 14.01415136 -4.12890625 8.09765625 C-1.57355542 1.57355542 -1.57355542 1.57355542 0 0 Z " fill="#323E58" transform="translate(227,240)"/>
<path d="M0 0 C0.66 1.32 1.32 2.64 2 4 C2.33 3.01 2.66 2.02 3 1 C3.33 1.99 3.66 2.98 4 4 C5.32 4 6.64 4 8 4 C8.7708974 13.8289418 5.96898814 23.75537084 -0.4296875 31.34375 C-0.94789063 31.8903125 -1.46609375 32.436875 -2 33 C-2.49757813 33.5259375 -2.99515625 34.051875 -3.5078125 34.59375 C-6.06140926 37.00028098 -7.75466657 37.96697435 -11.25 38.4375 C-14 38 -14 38 -16 36 C-17.79126179 25.61068162 -11.383417 15.84935699 -5.6875 7.5234375 C-3.84085706 4.97111315 -1.96267687 2.46378586 0 0 Z " fill="#323F5A" transform="translate(391,285)"/>
<path d="M0 0 C0.66 0.66 1.32 1.32 2 2 C1.87778766 9.16979087 -0.89136205 14.6751719 -4.0625 21 C-4.53494141 21.96550781 -5.00738281 22.93101562 -5.49414062 23.92578125 C-6.65244372 26.28918757 -7.82116089 28.64678829 -9 31 C-5.04 30.505 -5.04 30.505 -1 30 C-0.34 30.99 0.32 31.98 1 33 C-3.81815472 35.77043896 -7.5768541 36.45768541 -13 37 C-13.99 37.495 -13.99 37.495 -15 38 C-15 37.34 -15 36.68 -15 36 C-15.66 36 -16.32 36 -17 36 C-19.55015564 29.44245691 -21.6164475 23.37960562 -19.0859375 16.5234375 C-15.22631822 8.28128278 -10.10994563 -0.8604209 0 0 Z " fill="#2F3D57" transform="translate(290,211)"/>
<path d="M0 0 C0.66 0.99 1.32 1.98 2 3 C2.99 2.34 3.98 1.68 5 1 C5.99 1.99 6.98 2.98 8 4 C5.96394521 10.32143826 3.67104021 16.50494659 1.25 22.6875 C-2.99018863 33.64032808 -6.56668475 44.77182365 -10 56 C-11.31195479 51.67237239 -10.4150279 48.10809391 -9.453125 43.7890625 C-9.28125671 42.98447601 -9.10938843 42.17988953 -8.93231201 41.35092163 C-8.37980582 38.77375261 -7.8151299 36.1994271 -7.25 33.625 C-6.88460573 31.93116432 -6.52001431 30.23715523 -6.15625 28.54296875 C-5.44682445 25.24536475 -4.73268096 21.94884786 -4.01367188 18.65332031 C-2.65806898 12.43933689 -1.32869722 6.21978787 0 0 Z " fill="#D4DBE6" transform="translate(127,262)"/>
<path d="M0 0 C0.33 0 0.66 0 1 0 C0.53724282 6.46390976 -1.17072675 11.23643121 -4.0625 17 C-4.62807617 18.16208984 -4.62807617 18.16208984 -5.20507812 19.34765625 C-6.12635622 21.23685944 -7.06172703 23.11917947 -8 25 C-8.99 24.67 -9.98 24.34 -11 24 C-13.16715557 24.87483915 -13.16715557 24.87483915 -15 26 C-16 25 -16 25 -16.3125 21.9375 C-15.73295904 14.63528391 -11.95797022 9.21891602 -7 4 C-6.34 4 -5.68 4 -5 4 C-4.01 5.485 -4.01 5.485 -3 7 C-2.34 7 -1.68 7 -1 7 C-0.67 4.69 -0.34 2.38 0 0 Z " fill="#2D3A56" transform="translate(291,213)"/>
<path d="M0 0 C2 2 2 2 2.24291992 4.02441406 C2.23881104 4.84651367 2.23470215 5.66861328 2.23046875 6.515625 C2.22917969 7.43134277 2.22789062 8.34706055 2.2265625 9.29052734 C2.21367187 10.26715332 2.20078125 11.2437793 2.1875 12.25 C2.18105469 13.23822754 2.17460937 14.22645508 2.16796875 15.24462891 C2.08856499 22.8611861 1.72480338 30.4154503 1 38 C-0.66666667 38 -2.33333333 38 -4 38 C-4.11644643 29.74339366 -3.81148305 21.60255056 -3.125 13.375 C-3.04636719 12.30121094 -2.96773437 11.22742188 -2.88671875 10.12109375 C-2.80292969 9.09886719 -2.71914062 8.07664063 -2.6328125 7.0234375 C-2.55949707 6.10481934 -2.48618164 5.18620117 -2.41064453 4.23974609 C-2 2 -2 2 0 0 Z " fill="#2D3A54" transform="translate(212,186)"/>
<path d="M0 0 C-0.33 3.63 -0.66 7.26 -1 11 C-0.030625 10.21625 0.93875 9.4325 1.9375 8.625 C2.75541016 7.96371094 2.75541016 7.96371094 3.58984375 7.2890625 C5.13266437 6.0333609 5.13266437 6.0333609 6 4 C6.99 4 7.98 4 9 4 C9.9375 6.0625 9.9375 6.0625 10 9 C7.53349358 12.21865536 4.64681688 15.17659156 1 17 C-2 17.1875 -2 17.1875 -5 17 C-7 15 -7 15 -7.265625 13.01171875 C-7.20863065 4.53380904 -7.20863065 4.53380904 -5 1 C-3.19863649 0.29037195 -1.91823096 0 0 0 Z " fill="#303D57" transform="translate(382,306)"/>
<path d="M0 0 C0.33 0 0.66 0 1 0 C0.37877351 9.62901066 -2.05888142 17.42181592 -8.53515625 24.72265625 C-10 26 -10 26 -13 27 C-12.54543853 21.00449098 -10.67113479 16.9456227 -7.625 11.8125 C-7.22539062 11.11447266 -6.82578125 10.41644531 -6.4140625 9.69726562 C-4.46172999 6.32242769 -2.51940466 2.99082701 0 0 Z " fill="#D2D9E6" transform="translate(393,291)"/>
<path d="M0 0 C0.99 0.66 1.98 1.32 3 2 C3 2.66 3 3.32 3 4 C11.415 5.98 11.415 5.98 20 8 C20.33 9.32 20.66 10.64 21 12 C19.47827113 13.52172887 18.12019862 13.24256289 16 13.3125 C9.39120518 13.22831153 3.6554426 10.91478268 -1.0625 6.25 C-1.701875 5.5075 -2.34125 4.765 -3 4 C-2.01 4 -1.02 4 0 4 C0 2.68 0 1.36 0 0 Z " fill="#38455D" transform="translate(80,246)"/>
<path d="M0 0 C0.33 0.99 0.66 1.98 1 3 C-2.11024504 8.39572862 -6.37608432 13.24787105 -12 16 C-15.25 16.375 -15.25 16.375 -18 16 C-20 14 -20 14 -20.125 11.375 C-20.08375 10.59125 -20.0425 9.8075 -20 9 C-19.01 9.33 -18.02 9.66 -17 10 C-17 10.66 -17 11.32 -17 12 C-12.98523168 11.42646167 -10.86411491 10.94683059 -8.08203125 7.8984375 C-6.88260638 6.28726977 -5.71301548 4.65335205 -4.578125 2.99609375 C-3 1 -3 1 0 0 Z " fill="#2C3953" transform="translate(308,279)"/>
<path d="M0 0 C0.66 0 1.32 0 2 0 C2 0.66 2 1.32 2 2 C4.00032373 3.00016187 5.83125748 3.49396008 8 4 C8.33 3.34 8.66 2.68 9 2 C8.71591906 6.68733545 6.48550729 9.20928915 3.5703125 12.64453125 C2 14 2 14 -1 14 C-2.58493084 10.83013832 -2.2940042 7.45967739 -2 4 C-1 1.5 -1 1.5 0 0 Z " fill="#D8DEE9" transform="translate(229,248)"/>
<path d="M0 0 C1.32 0.33 2.64 0.66 4 1 C3.26478306 4.99117768 2.26191463 8.85452506 1.125 12.75 C0.79757813 13.89984375 0.47015625 15.0496875 0.1328125 16.234375 C-0.24101562 17.14703125 -0.61484375 18.0596875 -1 19 C-1.99 19.33 -2.98 19.66 -4 20 C-4.4731614 12.11397658 -4.17981006 6.79219135 0 0 Z " fill="#333E5A" transform="translate(227,240)"/>
<path d="M0 0 C0.66 0 1.32 0 2 0 C0.00878667 7.89498617 -3.18914143 14.82226638 -7 22 C-7.66 21.67 -8.32 21.34 -9 21 C-9.62775994 13.46688068 -7.01144607 8.34715009 -2.375 2.5 C-1.199375 1.2625 -1.199375 1.2625 0 0 Z " fill="#CDD4E2" transform="translate(284,217)"/>
<path d="M0 0 C-0.50848249 7.67566427 -2.53549076 14.3218984 -5.0625 21.5625 C-5.43955078 22.66658203 -5.81660156 23.77066406 -6.20507812 24.90820312 C-7.12852473 27.60840775 -8.06029718 30.30541892 -9 33 C-11.03116122 27.25317249 -8.54198135 21.10001826 -7.25 15.375 C-6.98445313 14.12203125 -6.71890625 12.8690625 -6.4453125 11.578125 C-6.17976563 10.38445312 -5.91421875 9.19078125 -5.640625 7.9609375 C-5.39860352 6.86571777 -5.15658203 5.77049805 -4.90722656 4.64208984 C-4.04009188 2.11675844 -3.18944275 0 0 0 Z " fill="#C1C9DC" transform="translate(126,285)"/>
<path d="M0 0 C2 1 2 1 3.2734375 3.23046875 C4.21996266 6.83845981 3.42061978 8.10603611 1.625 11.3125 C1.14289063 12.19550781 0.66078125 13.07851562 0.1640625 13.98828125 C-0.41214844 14.98408203 -0.41214844 14.98408203 -1 16 C-2.98 16 -4.96 16 -7 16 C-5.35433477 10.31497465 -2.70967216 5.23318364 0 0 Z " fill="#36435D" transform="translate(153,226)"/>
<path d="M0 0 C1.33583899 4.84241633 2.25328119 8.93437617 2 14 C-0.47407292 13.67012361 -1.6637767 13.42027913 -3.25 11.4375 C-4.34127575 7.89085382 -4.12349053 4.70471601 -4 1 C-2 0 -2 0 0 0 Z " fill="#2E3A54" transform="translate(78,236)"/>
<path d="M0 0 C0.66 0 1.32 0 2 0 C2.125 7.625 2.125 7.625 1 11 C0.34 11 -0.32 11 -1 11 C-1 11.66 -1 12.32 -1 13 C-1.99 13.33 -2.98 13.66 -4 14 C-4.17760064 9.47118371 -4.09143803 6.06668506 -2 2 C-1.34 1.34 -0.68 0.68 0 0 Z " fill="#2A3755" transform="translate(132,228)"/>
<path d="M0 0 C2.7972908 2.06756277 3.02692273 3.14440371 3.6875 6.6875 C3.790625 7.780625 3.89375 8.87375 4 10 C3.01 10 2.02 10 1 10 C0.67 14.95 0.34 19.9 0 25 C-0.33 25 -0.66 25 -1 25 C-1.22573595 21.39670111 -1.42759125 17.79245301 -1.625 14.1875 C-1.68945312 13.16333984 -1.75390625 12.13917969 -1.8203125 11.08398438 C-1.871875 10.10107422 -1.9234375 9.11816406 -1.9765625 8.10546875 C-2.05511475 6.74651489 -2.05511475 6.74651489 -2.13525391 5.36010742 C-2 3 -2 3 0 0 Z " fill="#3C4A61" transform="translate(210,178)"/>
<path d="M0 0 C0.33 0.66 0.66 1.32 1 2 C1.66 2.33 2.32 2.66 3 3 C-0.285 8.59666667 -0.285 8.59666667 -3.4375 10.375 C-6.06354247 11.01549816 -8.3077976 11.15384014 -11 11 C-10.29875 10.484375 -9.5975 9.96875 -8.875 9.4375 C-5.50532643 6.58060284 -2.78843396 3.41128003 0 0 Z " fill="#D2D9E5" transform="translate(263,265)"/>
<path d="M0 0 C2 3 2 3 1.625 6.1875 C1.41875 7.115625 1.2125 8.04375 1 9 C-1.97 9.66 -4.94 10.32 -8 11 C-7.04454634 9.53977837 -6.08553322 8.08188532 -5.125 6.625 C-4.59132813 5.81289063 -4.05765625 5.00078125 -3.5078125 4.1640625 C-2 2 -2 2 0 0 Z " fill="#D1DAE6" transform="translate(375,251)"/>
<path d="M0 0 C1.66611905 -0.042721 3.33382885 -0.04063832 5 0 C5.33 0.33 5.66 0.66 6 1 C5.82364548 3.69082872 5.38164079 6.32851446 5 9 C4.01 9.33 3.02 9.66 2 10 C1.67 9.01 1.34 8.02 1 7 C1.66 7 2.32 7 3 7 C3 6.34 3 5.68 3 5 C1.68 4.67 0.36 4.34 -1 4 C-0.67 2.68 -0.34 1.36 0 0 Z " fill="#283752" transform="translate(285,211)"/>
<path d="M0 0 C0.33 0.66 0.66 1.32 1 2 C3.02463255 2.65213292 3.02463255 2.65213292 5 3 C5.33 2.34 5.66 1.68 6 1 C6 1.66 6 2.32 6 3 C6.99 3.33 7.98 3.66 9 4 C9 5.32 9 6.64 9 8 C6.75 8.3125 6.75 8.3125 4 8 C1.6875 5.6875 1.6875 5.6875 0 3 C0 2.01 0 1.02 0 0 Z " fill="#3D4962" transform="translate(342,269)"/>
<path d="M0 0 C0.33 0 0.66 0 1 0 C0.63076923 7.38461538 0.63076923 7.38461538 -2.5625 10.5 C-3.366875 10.995 -4.17125 11.49 -5 12 C-5.99 11.34 -6.98 10.68 -8 10 C-6.69118353 8.33043913 -5.37785174 6.66441696 -4.0625 5 C-2.96615234 3.6078125 -2.96615234 3.6078125 -1.84765625 2.1875 C-1.23792969 1.465625 -0.62820313 0.74375 0 0 Z " fill="#DBE2EF" transform="translate(342,256)"/>
<path d="M0 0 C0.99 0.33 1.98 0.66 3 1 C2.525625 1.763125 2.05125 2.52625 1.5625 3.3125 C-0.10106097 5.96410548 -0.10106097 5.96410548 -1 9 C-1.99 9 -2.98 9 -4 9 C-4.33 9.66 -4.66 10.32 -5 11 C-5.875 8.875 -5.875 8.875 -6 6 C-4.2531134 3.70485976 -2.19996058 1.85561893 0 0 Z " fill="#2A3753" transform="translate(184,182)"/>
<path d="M0 0 C0.99 0.33 1.98 0.66 3 1 C0.69 3.97 -1.62 6.94 -4 10 C-4.33 8.68 -4.66 7.36 -5 6 C-5.99 5.67 -6.98 5.34 -8 5 C-6.68 3.68 -5.36 2.36 -4 1 C-4 1.66 -4 2.32 -4 3 C-3.401875 2.484375 -2.80375 1.96875 -2.1875 1.4375 C-1.465625 0.963125 -0.74375 0.48875 0 0 Z " fill="#3B475F" transform="translate(373,250)"/>
<path d="M0 0 C-0.3125 3.375 -0.3125 3.375 -1 7 C-1.99 7.66 -2.98 8.32 -4 9 C-4.66 7.02 -5.32 5.04 -6 3 C-3.375 0 -3.375 0 0 0 Z " fill="#343F5A" transform="translate(368,256)"/>
<path d="M0 0 C1.32 0.33 2.64 0.66 4 1 C4.25 6.625 4.25 6.625 2 10 C1.34 10 0.68 10 0 10 C0 6.7 0 3.4 0 0 Z " fill="#293553" transform="translate(223,250)"/>
<path d="M0 0 C1.60031344 3.20062687 0.03173691 5.72271806 -1 9 C-2.32 9.33 -3.64 9.66 -5 10 C-5.68359375 8.203125 -5.68359375 8.203125 -6 6 C-4.78515625 4.296875 -4.78515625 4.296875 -3.0625 2.75 C-2.21365234 1.96882812 -2.21365234 1.96882812 -1.34765625 1.171875 C-0.90292969 0.78515625 -0.45820312 0.3984375 0 0 Z " fill="#2B3854" transform="translate(121,150)"/>
<path d="M0 0 C0.33 0 0.66 0 1 0 C1.144375 1.11375 1.28875 2.2275 1.4375 3.375 C1.78372035 6.82142047 1.78372035 6.82142047 3 9 C2.01 9 1.02 9 0 9 C-0.33 9.99 -0.66 10.98 -1 12 C-1.66 11.67 -2.32 11.34 -3 11 C-3.625 8.4375 -3.625 8.4375 -4 6 C-2.68 5.67 -1.36 5.34 0 5 C0 3.35 0 1.7 0 0 Z " fill="#394460" transform="translate(327,254)"/>
<path d="M0 0 C0.33 0 0.66 0 1 0 C1 2.97 1 5.94 1 9 C2.32 8.01 3.64 7.02 5 6 C5.33 7.65 5.66 9.3 6 11 C5.34 11 4.68 11 4 11 C3.67 11.99 3.34 12.98 3 14 C1.51171875 12.85546875 1.51171875 12.85546875 0 11 C-0.29296875 8.30078125 -0.29296875 8.30078125 -0.1875 5.3125 C-0.16042969 4.31863281 -0.13335937 3.32476562 -0.10546875 2.30078125 C-0.07066406 1.54152344 -0.03585938 0.78226563 0 0 Z " fill="#414B65" transform="translate(222,251)"/>
<path d="M0 0 C0.33 0 0.66 0 1 0 C0.125 7.625 0.125 7.625 -1 11 C-1.66 11 -2.32 11 -3 11 C-3 10.34 -3 9.68 -3 9 C-3.66 9 -4.32 9 -5 9 C-5.33 10.32 -5.66 11.64 -6 13 C-6.66 13 -7.32 13 -8 13 C-7.34 10.69 -6.68 8.38 -6 6 C-4.35 6.33 -2.7 6.66 -1 7 C-0.67 4.69 -0.34 2.38 0 0 Z " fill="#465169" transform="translate(291,213)"/>
<path d="M0 0 C0.33 0 0.66 0 1 0 C1.06058594 0.74765625 1.12117187 1.4953125 1.18359375 2.265625 C1.26738281 3.25046875 1.35117188 4.2353125 1.4375 5.25 C1.51871094 6.22453125 1.59992188 7.1990625 1.68359375 8.203125 C1.95074584 10.56461753 2.35371968 12.71901065 3 15 C1.68 15 0.36 15 -1 15 C-1.10251672 9.87416389 -1.03590199 5.05002222 0 0 Z " fill="#CBD2E2" transform="translate(196,302)"/>
<path d="M0 0 C0.33 0 0.66 0 1 0 C0.67 2.31 0.34 4.62 0 7 C-0.66 7 -1.32 7 -2 7 C-2.33 8.32 -2.66 9.64 -3 11 C-3.99 10.34 -4.98 9.68 -6 9 C-5.02501855 7.4972763 -4.04490611 5.99788037 -3.0625 4.5 C-2.51722656 3.6646875 -1.97195313 2.829375 -1.41015625 1.96875 C-0.94480469 1.3190625 -0.47945313 0.669375 0 0 Z " fill="#C1CCDB" transform="translate(393,291)"/>
<path d="M0 0 C1.65 0.33 3.3 0.66 5 1 C4.67 2.65 4.34 4.3 4 6 C1.5625 5.625 1.5625 5.625 -1 5 C-1.33 4.34 -1.66 3.68 -2 3 C-1.34 2.01 -0.68 1.02 0 0 Z " fill="#3B4860" transform="translate(327,240)"/>
<path d="M0 0 C0.99 0 1.98 0 3 0 C3.66 1.32 4.32 2.64 5 4 C3.6875 5.5 3.6875 5.5 2 7 C1.01 7 0.02 7 -1 7 C-1.33 6.34 -1.66 5.68 -2 5 C-1.0625 2.375 -1.0625 2.375 0 0 Z " fill="#38435E" transform="translate(377,235)"/>
<path d="M0 0 C0.125 5.75 0.125 5.75 -1 8 C-2.32 7.67 -3.64 7.34 -5 7 C-5 5.35 -5 3.7 -5 2 C-1.125 0 -1.125 0 0 0 Z " fill="#2B3954" transform="translate(144,184)"/>
<path d="M0 0 C0.66 0.33 1.32 0.66 2 1 C0.52307692 6.66153846 0.52307692 6.66153846 -2.125 8.375 C-2.74375 8.58125 -3.3625 8.7875 -4 9 C-4 4.31908701 -3.00354129 3.37898396 0 0 Z " fill="#293751" transform="translate(129,143)"/>
<path d="M0 0 C1 3 1 3 -0.4375 6.1875 C-1.2109375 7.5796875 -1.2109375 7.5796875 -2 9 C-3.65 9 -5.3 9 -7 9 C-6.02180976 7.68677212 -5.0424189 6.37443848 -4.0625 5.0625 C-3.51722656 4.33160156 -2.97195313 3.60070312 -2.41015625 2.84765625 C-1 1 -1 1 0 0 Z " fill="#D0D8E7" transform="translate(424,253)"/>
<path d="M0 0 C0.66 0 1.32 0 2 0 C3.60725635 3.21451269 3.05748185 6.43612536 3 10 C2.34 10 1.68 10 1 10 C1 9.01 1 8.02 1 7 C0.34 7 -0.32 7 -1 7 C-0.67 4.69 -0.34 2.38 0 0 Z " fill="#2A3753" transform="translate(136,202)"/>
<path d="M0 0 C2 3 2 3 1.75 5.625 C1.5025 6.40875 1.255 7.1925 1 8 C0.01 8.495 0.01 8.495 -1 9 C-1.33 8.01 -1.66 7.02 -2 6 C-2.66 5.34 -3.32 4.68 -4 4 C-2.68 2.68 -1.36 1.36 0 0 Z " fill="#3D4663" transform="translate(335,257)"/>
<path d="M0 0 C0.33 1.32 0.66 2.64 1 4 C1.66 4 2.32 4 3 4 C2.34 5.65 1.68 7.3 1 9 C0.34 8.67 -0.32 8.34 -1 8 C-1.75 5.625 -1.75 5.625 -2 3 C-1.34 2.01 -0.68 1.02 0 0 Z " fill="#2C3A54" transform="translate(156,222)"/>
<path d="M0 0 C0.99 0 1.98 0 3 0 C3.25 2.8125 3.25 2.8125 3 6 C1 7.875 1 7.875 -1 9 C-1.66 8.34 -2.32 7.68 -3 7 C-2.01 6.01 -1.02 5.02 0 4 C-0.33 3.01 -0.66 2.02 -1 1 C-0.67 0.67 -0.34 0.34 0 0 Z " fill="#394563" transform="translate(185,180)"/>
<path d="M0 0 C0.375 2.25 0.375 2.25 0 5 C-3 7.3125 -3 7.3125 -6 9 C-3.4 0 -3.4 0 0 0 Z " fill="#D2DAE7" transform="translate(135,288)"/>
<path d="M0 0 C0.33 0 0.66 0 1 0 C1.33 1.98 1.66 3.96 2 6 C3.32 6 4.64 6 6 6 C5.34 7.32 4.68 8.64 4 10 C3.01 10 2.02 10 1 10 C-0.60725635 6.78548731 -0.05748185 3.56387464 0 0 Z " fill="#BAC6D3" transform="translate(227,252)"/>
<path d="M0 0 C2 1 2 1 2.8125 2.8125 C3 5 3 5 1.5625 7.25 C1.046875 7.8275 0.53125 8.405 0 9 C-1 8 -1 8 -1.125 4.5 C-1 1 -1 1 0 0 Z " fill="#C5CDDD" transform="translate(276,230)"/>
<path d="M0 0 C0.33 0 0.66 0 1 0 C1.25 6.625 1.25 6.625 -1 10 C-1 9.34 -1 8.68 -1 8 C-1.66 8 -2.32 8 -3 8 C-2.690625 7.236875 -2.38125 6.47375 -2.0625 5.6875 C-1.32106407 3.81210323 -0.63771783 1.91315348 0 0 Z " fill="#2A3752" transform="translate(150,153)"/>
<path d="M0 0 C0.99 0.66 1.98 1.32 3 2 C2.67 3.65 2.34 5.3 2 7 C1.01 7 0.02 7 -1 7 C-1.66 6.01 -2.32 5.02 -3 4 C-2.01 4 -1.02 4 0 4 C0 2.68 0 1.36 0 0 Z " fill="#3E4B63" transform="translate(80,246)"/>
<path d="M0 0 C0.99 0.66 1.98 1.32 3 2 C2.34 3.32 1.68 4.64 1 6 C0.34 5.34 -0.32 4.68 -1 4 C-1.99 4.66 -2.98 5.32 -4 6 C-3.67 4.35 -3.34 2.7 -3 1 C-2.01 0.67 -1.02 0.34 0 0 Z " fill="#394660" transform="translate(297,248)"/>
<path d="M0 0 C1.98 0 3.96 0 6 0 C6.33 1.98 6.66 3.96 7 6 C6.34 5.67 5.68 5.34 5 5 C5 4.34 5 3.68 5 3 C3.35 3 1.7 3 0 3 C0 2.01 0 1.02 0 0 Z " fill="#CCD4E4" transform="translate(140,142)"/>
<path d="M0 0 C1.32 0.33 2.64 0.66 4 1 C4.66 3.31 5.32 5.62 6 8 C2.24623848 6.74874616 1.75926711 5.4347596 0 2 C0 1.34 0 0.68 0 0 Z " fill="#CFD8E4" transform="translate(385,259)"/>
<path d="M0 0 C1.485 0.99 1.485 0.99 3 2 C2.67 3.65 2.34 5.3 2 7 C1.01 7 0.02 7 -1 7 C-0.67 4.69 -0.34 2.38 0 0 Z " fill="#D3DAE4" transform="translate(419,243)"/>
<path d="M0 0 C1.65 0.33 3.3 0.66 5 1 C4.67 2.32 4.34 3.64 4 5 C1.525 4.01 1.525 4.01 -1 3 C-0.67 2.01 -0.34 1.02 0 0 Z " fill="#404B64" transform="translate(428,240)"/>
<path d="M0 0 C1.32 0.33 2.64 0.66 4 1 C4 2.65 4 4.3 4 6 C2.68 5.67 1.36 5.34 0 5 C0 3.35 0 1.7 0 0 Z " fill="#283553" transform="translate(343,266)"/>
<path d="M0 0 C0.99 0.33 1.98 0.66 3 1 C1.95125002 3.62187494 1.35068687 4.79371361 -1.125 6.25 C-1.74375 6.4975 -2.3625 6.745 -3 7 C-1.125 2.25 -1.125 2.25 0 0 Z " fill="#38445D" transform="translate(258,266)"/>
<path d="M0 0 C0.66 0 1.32 0 2 0 C2.93065133 2.60582371 3.14917407 3.64198224 2.0625 6.25 C1.5365625 7.11625 1.5365625 7.11625 1 8 C1 6.35 1 4.7 1 3 C0.34 3 -0.32 3 -1 3 C-0.67 2.01 -0.34 1.02 0 0 Z M-3 1 C-2.01 2.485 -2.01 2.485 -1 4 C-1.66 4 -2.32 4 -3 4 C-3 3.01 -3 2.02 -3 1 Z " fill="#46516A" transform="translate(293,262)"/>
<path d="M0 0 C0.33 0 0.66 0 1 0 C1.36923077 5.53846154 1.36923077 5.53846154 -0.5 7.875 C-1.2425 8.431875 -1.2425 8.431875 -2 9 C-2.66 8.67 -3.32 8.34 -4 8 C-2.68 5.36 -1.36 2.72 0 0 Z " fill="#3A485F" transform="translate(324,245)"/>
<path d="M0 0 C0.99 0 1.98 0 3 0 C3.33 1.65 3.66 3.3 4 5 C2.68 5 1.36 5 0 5 C0 3.35 0 1.7 0 0 Z " fill="#2E3C58" transform="translate(172,195)"/>
<path d="M0 0 C0.33 0 0.66 0 1 0 C1 1.65 1 3.3 1 5 C-0.98 5.66 -2.96 6.32 -5 7 C-4.19152271 5.83054208 -3.37810888 4.66449539 -2.5625 3.5 C-2.11003906 2.8503125 -1.65757812 2.200625 -1.19140625 1.53125 C-0.79824219 1.0259375 -0.40507812 0.520625 0 0 Z " fill="#A6B2C6" transform="translate(342,256)"/>
<path d="M0 0 C1.32 0 2.64 0 4 0 C2.95125002 2.62187494 2.35068687 3.79371361 -0.125 5.25 C-0.74375 5.4975 -1.3625 5.745 -2 6 C-1.34 4.02 -0.68 2.04 0 0 Z " fill="#CFD7E5" transform="translate(151,242)"/>
<path d="M0 0 C0.33 1.32 0.66 2.64 1 4 C-0.65 5.32 -2.3 6.64 -4 8 C-4.66 7.67 -5.32 7.34 -6 7 C-4.02 4.69 -2.04 2.38 0 0 Z " fill="#CCD5E6" transform="translate(116,162)"/>
<path d="M0 0 C0.33 0.66 0.66 1.32 1 2 C0.34 2.66 -0.32 3.32 -1 4 C-1.33 4.66 -1.66 5.32 -2 6 C-3.32 6 -4.64 6 -6 6 C-4.75453595 2.26360784 -3.36595047 1.81243487 0 0 Z " fill="#D1D8E7" transform="translate(138,143)"/>
<path d="M0 0 C0.99 0.66 1.98 1.32 3 2 C1.02 4.97 1.02 4.97 -1 8 C-1.93065133 5.39417629 -2.14917407 4.35801776 -1.0625 1.75 C-0.711875 1.1725 -0.36125 0.595 0 0 Z " fill="#394460" transform="translate(387,295)"/>
<path d="M0 0 C0.33 0.66 0.66 1.32 1 2 C2.98 1.34 4.96 0.68 7 0 C6.34 1.32 5.68 2.64 5 4 C2 4 2 4 0 3 C0 2.01 0 1.02 0 0 Z " fill="#C8D0DE" transform="translate(124,276)"/>
<path d="M0 0 C0.66 0.33 1.32 0.66 2 1 C1.34 2.65 0.68 4.3 0 6 C-0.99 5.01 -1.98 4.02 -3 3 C-2 1 -2 1 0 0 Z " fill="#2E3A56" transform="translate(312,272)"/>
<path d="M0 0 C0.66 0.66 1.32 1.32 2 2 C1.625 4.125 1.625 4.125 1 6 C0.34 5.67 -0.32 5.34 -1 5 C-1 5.66 -1 6.32 -1 7 C-1.66 7 -2.32 7 -3 7 C-1.125 2.25 -1.125 2.25 0 0 Z " fill="#C5CDDE" transform="translate(322,260)"/>
<path d="M0 0 C-1.07401108 2.91517292 -1.77810176 4.77810176 -4 7 C-4.6875 5.1875 -4.6875 5.1875 -5 3 C-3.38441968 0.84589291 -2.74502455 0 0 0 Z " fill="#CCD3E2" transform="translate(318,257)"/>
<path d="M0 0 C0.66 0.33 1.32 0.66 2 1 C0.515 4.465 0.515 4.465 -1 8 C-1.66 7.67 -2.32 7.34 -3 7 C-3 5.68 -3 4.36 -3 3 C-2.34 3 -1.68 3 -1 3 C-0.67 2.01 -0.34 1.02 0 0 Z " fill="#CDD5E5" transform="translate(142,246)"/>
<path d="M0 0 C1.32 0.33 2.64 0.66 4 1 C4 1.99 4 2.98 4 4 C2.68 3.67 1.36 3.34 0 3 C0 3.66 0 4.32 0 5 C-0.66 5 -1.32 5 -2 5 C-1.34 3.35 -0.68 1.7 0 0 Z " fill="#34425C" transform="translate(130,232)"/>
</svg>
