<?xml version="1.0" encoding="UTF-8"?>
<svg version="1.1" xmlns="http://www.w3.org/2000/svg" width="500" height="500">
<path d="M0 0 C165 0 330 0 500 0 C500 165 500 330 500 500 C335 500 170 500 0 500 C0 335 0 170 0 0 Z " fill="#EBEDE2" transform="translate(0,0)"/>
<path d="M0 0 C6.62100397 3.73622873 11.03307186 9.5510993 13.59765625 16.6484375 C17.72624682 32.67130092 13.17071253 49.04874853 7.72265625 64.1484375 C10.03265625 64.4784375 12.34265625 64.8084375 14.72265625 65.1484375 C15.12484375 64.04242188 15.12484375 64.04242188 15.53515625 62.9140625 C20.94405092 50.31703149 35.24007399 38.80888579 47.53515625 33.2734375 C55.39857049 30.49811483 63.15508053 29.91179977 70.9375 33.23828125 C75.98471704 35.81158884 78.89150173 38.75670475 80.72265625 44.1484375 C80.99167493 50.14217378 79.68813335 54.53991006 75.72265625 59.1484375 C73.78345643 60.67040117 71.85388763 61.8890735 69.72265625 63.1484375 C70.58987305 63.29845215 71.45708984 63.4484668 72.35058594 63.60302734 C77.24910785 65.84800589 78.95242203 69.35708599 81.67578125 73.875 C82.82109711 75.70548425 83.96762674 77.5352095 85.11523438 79.36425781 C85.70667236 80.31755981 86.29811035 81.27086182 86.9074707 82.25305176 C89.86308621 86.96752683 92.94351507 91.59793525 96.01953125 96.234375 C97.25816865 98.11044199 98.4964482 99.98674529 99.734375 101.86328125 C101.61190684 104.7063728 103.48972457 107.54927528 105.36767578 110.39208984 C112.55181474 121.26944413 119.71480112 132.15640924 126.72265625 143.1484375 C126.74787354 142.15561768 126.77309082 141.16279785 126.79907227 140.13989258 C127.03736121 132.65028789 127.48477149 126.78582194 132.72265625 121.1484375 C135.69739546 118.64339396 137.3514104 118.19484323 141.22265625 117.7109375 C145.29175985 118.21957545 146.85610694 119.28188819 149.72265625 122.1484375 C152.90117942 128.50548384 150.54310237 137.56575703 148.79296875 144.08203125 C147.25453324 148.48959283 145.12348419 152.4955423 142.83203125 156.5546875 C141.52178031 159.02152493 141.52178031 159.02152493 141.984375 161.3515625 C142.80219221 163.34201709 143.70648944 165.25159279 144.72265625 167.1484375 C145.38265625 167.1484375 146.04265625 167.1484375 146.72265625 167.1484375 C147.05265625 167.8084375 147.38265625 168.4684375 147.72265625 169.1484375 C150.23130295 169.4303286 150.23130295 169.4303286 153.28515625 169.4609375 C158.87329247 169.81289746 163.89214635 170.78157991 169.22265625 172.3984375 C169.89240479 172.59091064 170.56215332 172.78338379 171.25219727 172.98168945 C175.8742714 174.45914712 178.54871073 176.52445493 181.72265625 180.1484375 C182.05265625 180.4784375 182.38265625 180.8084375 182.72265625 181.1484375 C183.11325059 185.21061859 183.15601789 187.45196344 180.97265625 190.9609375 C177.00038384 194.82286901 174.10622469 195.41037761 168.59765625 195.3359375 C167.54320312 195.32949219 166.48875 195.32304687 165.40234375 195.31640625 C162.72265625 195.1484375 162.72265625 195.1484375 160.72265625 194.1484375 C161.49343506 195.30460571 161.49343506 195.30460571 162.27978516 196.48413086 C169.76074219 207.70556641 177.24169922 218.92700195 184.72265625 230.1484375 C186.04265625 229.8184375 187.36265625 229.4884375 188.72265625 229.1484375 C188.72265625 226.8384375 188.72265625 224.5284375 188.72265625 222.1484375 C190.72265625 224.1484375 190.72265625 224.1484375 190.84765625 227.7734375 C190.80640625 228.8871875 190.76515625 230.0009375 190.72265625 231.1484375 C189.73265625 231.1484375 188.74265625 231.1484375 187.72265625 231.1484375 C189.20765625 236.0984375 189.20765625 236.0984375 190.72265625 241.1484375 C192.04265625 241.1484375 193.36265625 241.1484375 194.72265625 241.1484375 C194.39265625 239.1684375 194.06265625 237.1884375 193.72265625 235.1484375 C194.38265625 235.1484375 195.04265625 235.1484375 195.72265625 235.1484375 C195.91560033 230.32483561 195.48013239 226.65197012 193.72265625 222.1484375 C195.37265625 221.8184375 197.02265625 221.4884375 198.72265625 221.1484375 C198.39265625 221.8084375 198.06265625 222.4684375 197.72265625 223.1484375 C198.05265625 223.4784375 198.38265625 223.8084375 198.72265625 224.1484375 C199.05265625 224.8084375 199.38265625 225.4684375 199.72265625 226.1484375 C200.71265625 225.8184375 201.70265625 225.4884375 202.72265625 225.1484375 C205.72265625 227.1484375 205.72265625 227.1484375 206.72265625 230.1484375 C207.05265625 175.3684375 207.38265625 120.5884375 207.72265625 64.1484375 C218.61265625 64.1484375 229.50265625 64.1484375 240.72265625 64.1484375 C241.05265625 66.4584375 241.38265625 68.7684375 241.72265625 71.1484375 C243.70265625 71.4784375 245.68265625 71.8084375 247.72265625 72.1484375 C247.72265625 139.4684375 247.72265625 206.7884375 247.72265625 276.1484375 C248.38265625 276.1484375 249.04265625 276.1484375 249.72265625 276.1484375 C250.38265625 277.4684375 251.04265625 278.7884375 251.72265625 280.1484375 C252.27695312 279.643125 252.83125 279.1378125 253.40234375 278.6171875 C254.12679688 277.9675 254.85125 277.3178125 255.59765625 276.6484375 C256.31695312 275.99875 257.03625 275.3490625 257.77734375 274.6796875 C259.72265625 273.1484375 259.72265625 273.1484375 261.72265625 273.1484375 C261.72265625 274.1384375 261.72265625 275.1284375 261.72265625 276.1484375 C262.50640625 275.4884375 263.29015625 274.8284375 264.09765625 274.1484375 C266.72265625 272.1484375 266.72265625 272.1484375 268.72265625 272.1484375 C269.38265625 273.1384375 270.04265625 274.1284375 270.72265625 275.1484375 C271.71265625 274.4884375 272.70265625 273.8284375 273.72265625 273.1484375 C273.72265625 274.4684375 273.72265625 275.7884375 273.72265625 277.1484375 C274.38265625 277.4784375 275.04265625 277.8084375 275.72265625 278.1484375 C275.72265625 279.4684375 275.72265625 280.7884375 275.72265625 282.1484375 C276.38265625 282.1484375 277.04265625 282.1484375 277.72265625 282.1484375 C277.72265625 281.4884375 277.72265625 280.8284375 277.72265625 280.1484375 C278.27953125 280.5196875 278.83640625 280.8909375 279.41015625 281.2734375 C282.52228614 282.45100016 283.75573645 281.44171023 286.72265625 280.1484375 C287.71265625 280.4784375 288.70265625 280.8084375 289.72265625 281.1484375 C289.39265625 281.8084375 289.06265625 282.4684375 288.72265625 283.1484375 C290.04265625 282.8184375 291.36265625 282.4884375 292.72265625 282.1484375 C292.72265625 282.8084375 292.72265625 283.4684375 292.72265625 284.1484375 C296.02265625 284.1484375 299.32265625 284.1484375 302.72265625 284.1484375 C301.453125 285.64583333 300.18359375 287.14322917 298.9140625 288.640625 C297.63484105 290.15437829 297.63484105 290.15437829 296.72265625 292.1484375 C297.38265625 292.4784375 298.04265625 292.8084375 298.72265625 293.1484375 C297.07265625 293.8084375 295.42265625 294.4684375 293.72265625 295.1484375 C294.05265625 296.4684375 294.38265625 297.7884375 294.72265625 299.1484375 C292.08265625 301.1284375 289.44265625 303.1084375 286.72265625 305.1484375 C288.04265625 305.4784375 289.36265625 305.8084375 290.72265625 306.1484375 C290.22894531 306.55835938 289.73523438 306.96828125 289.2265625 307.390625 C288.58589844 307.92945313 287.94523437 308.46828125 287.28515625 309.0234375 C286.64707031 309.55710937 286.00898438 310.09078125 285.3515625 310.640625 C283.61460621 312.0707132 283.61460621 312.0707132 282.72265625 314.1484375 C283.38265625 314.1484375 284.04265625 314.1484375 284.72265625 314.1484375 C283.72265625 317.1484375 283.72265625 317.1484375 280.78515625 318.8359375 C277.72265625 320.1484375 277.72265625 320.1484375 275.72265625 320.1484375 C275.99078125 320.7053125 276.25890625 321.2621875 276.53515625 321.8359375 C276.72265625 324.1484375 276.72265625 324.1484375 274.66015625 326.7734375 C268.81792238 331.49694573 262.97899434 331.46224094 255.78515625 331.3984375 C254.91697266 331.40617187 254.04878906 331.41390625 253.15429688 331.421875 C241.22852268 331.38581824 241.22852268 331.38581824 236.97265625 327.5859375 C236.56015625 327.1115625 236.14765625 326.6371875 235.72265625 326.1484375 C229.93200847 324.21822157 223.72104041 324.32285344 217.72265625 325.1484375 C214.88308116 327.06060928 213.27660656 329.11784784 211.72265625 332.1484375 C211.06265625 331.8184375 210.40265625 331.4884375 209.72265625 331.1484375 C211.37265625 328.8384375 213.02265625 326.5284375 214.72265625 324.1484375 C213.73265625 323.1584375 212.74265625 322.1684375 211.72265625 321.1484375 C211.72265625 320.4884375 211.72265625 319.8284375 211.72265625 319.1484375 C211.00335938 319.13941406 210.2840625 319.13039063 209.54296875 319.12109375 C205.20244111 317.62415278 203.87422121 314.416355 201.59765625 310.5859375 C200.63509399 309.02983642 199.6701881 307.47518297 198.703125 305.921875 C197.96715088 304.73029785 197.96715088 304.73029785 197.21630859 303.51464844 C194.8933208 299.83462267 192.40491839 296.27574116 189.91015625 292.7109375 C186.54334563 287.86673984 183.35020402 282.99309121 180.38378906 277.89038086 C178.43136386 274.66761669 176.353741 271.53764246 174.25390625 268.41015625 C173.81928574 267.7605191 173.38466522 267.11088196 172.93687439 266.44155884 C172.00909175 265.05484047 171.08081012 263.66845584 170.15206909 262.28237915 C166.33919702 256.59021921 162.53772286 250.89042045 158.73364258 245.19238281 C157.75585075 243.72824956 156.77765082 242.26438879 155.79907227 240.80078125 C154.35714615 238.64395459 152.91671302 236.48613753 151.4765625 234.328125 C151.04219376 233.67915253 150.60782501 233.03018005 150.16029358 232.36154175 C149.75234055 231.74964996 149.34438751 231.13775818 148.92407227 230.50732422 C148.54172424 229.93467331 148.15937622 229.3620224 147.76544189 228.77201843 C146.81516506 227.2924705 145.95074218 225.75866759 145.09692383 224.22143555 C144.64341553 223.53734619 144.18990723 222.85325684 143.72265625 222.1484375 C140.91913124 221.69307833 140.91913124 221.69307833 137.84765625 222.0859375 C132.03098552 222.29617861 132.03098552 222.29617861 128.72265625 220.7109375 C121.35468196 211.27072044 122.3022569 201.62767527 122.72265625 190.1484375 C122.06265625 189.8184375 121.40265625 189.4884375 120.72265625 189.1484375 C120.46613281 189.83808594 120.20960938 190.52773438 119.9453125 191.23828125 C118.55930309 194.53724934 116.89216849 197.5793194 115.16015625 200.7109375 C107.26276652 215.30227035 100.96870524 230.42648204 95.72265625 246.1484375 C95.18898437 247.60830078 95.18898437 247.60830078 94.64453125 249.09765625 C91.32507456 258.33154172 89.32324505 267.936004 87.29003906 277.52026367 C86.93351851 279.17170247 86.55571231 280.81883504 86.14746094 282.45825195 C84.07547047 291.29407796 84.31620411 300.34689387 84.19091797 309.37231445 C84.15723832 311.57785691 84.11217997 313.78296203 84.06640625 315.98828125 C84.04771484 317.29144287 84.02902344 318.59460449 84.00976562 319.93725586 C83.72265625 323.1484375 83.72265625 323.1484375 81.72265625 326.1484375 C78.78930664 326.50488281 78.78930664 326.50488281 75.0703125 326.4765625 C74.08640785 326.47375275 74.08640785 326.47375275 73.08262634 326.47088623 C71.69476239 326.46416179 70.30691752 326.4502393 68.91918945 326.4296875 C66.79685813 326.39860886 64.67527042 326.38872417 62.55273438 326.3828125 C52.21477267 326.31247631 52.21477267 326.31247631 48.72265625 325.1484375 C48.39265625 323.1684375 48.06265625 321.1884375 47.72265625 319.1484375 C45.74265625 319.1484375 43.76265625 319.1484375 41.72265625 319.1484375 C41.72579865 318.32773679 41.72894106 317.50703608 41.73217869 316.66146564 C41.80586605 296.60046158 41.82915699 276.53993524 41.79781437 256.47881031 C41.78384507 246.77692775 41.78631825 237.0755923 41.82885742 227.3737793 C41.8659344 218.90786274 41.87077781 210.44261364 41.83848566 201.97666758 C41.8225039 197.50256154 41.82159376 193.02970557 41.85942268 188.55570412 C42.1385757 161.89256608 42.1385757 161.89256608 32.8582859 137.15587425 C31.34490259 134.48068761 30.04356424 131.72173172 28.73594189 128.94170856 C27.33351739 125.98026397 25.83410748 123.06837066 24.34765625 120.1484375 C23.73905937 118.93776325 23.1309878 117.72682479 22.5234375 116.515625 C18.90502488 107.68490319 18.90502488 107.68490319 12.72265625 101.1484375 C13.01269531 102.09589844 13.01269531 102.09589844 13.30859375 103.0625 C18.19274997 119.8427199 21.20859012 138.11448877 12.72265625 154.1484375 C9.36986407 158.76858513 6.07252921 162.03960228 0.72265625 164.1484375 C-4.72133501 164.96750752 -9.45354912 165.15338556 -14.33984375 162.4609375 C-20.25256617 155.40381719 -20.70456762 149.06801909 -20.27734375 140.1484375 C-19.81392013 136.71737773 -19.09266418 133.38683247 -18.27734375 130.0234375 C-18.06311768 129.12125488 -17.8488916 128.21907227 -17.62817383 127.28955078 C-15.68579696 119.68252352 -12.65101548 113.04177573 -8.8515625 106.203125 C-7.0482974 103.27672918 -7.0482974 103.27672918 -7.27734375 100.1484375 C-8.76234375 99.6534375 -8.76234375 99.6534375 -10.27734375 99.1484375 C-12.3227854 100.51465366 -12.3227854 100.51465366 -14.46484375 102.5234375 C-18.87811613 106.21088535 -23.40428756 109.15895281 -28.40234375 111.9609375 C-29.38690552 112.51950439 -29.38690552 112.51950439 -30.39135742 113.08935547 C-37.58952035 117.05809175 -43.97078355 119.70169419 -52.27734375 119.5234375 C-52.97794922 119.51111084 -53.67855469 119.49878418 -54.40039062 119.48608398 C-62.58584298 119.22003771 -66.9257975 117.83589441 -72.77734375 112.0859375 C-75.52553584 108.75233171 -76.85799481 106.3623249 -77.08984375 102.0234375 C-76.59261546 96.92487441 -75.18245354 93.50979783 -71.27734375 90.1484375 C-56.31114407 80.13949639 -37.66304626 79.93342652 -20.27734375 81.1484375 C-19.28734375 81.4784375 -18.29734375 81.8084375 -17.27734375 82.1484375 C-17.1071875 81.55675781 -16.93703125 80.96507812 -16.76171875 80.35546875 C-15.28263285 75.5327046 -13.86311377 71.84987752 -10.27734375 68.1484375 C-9.61734375 67.8184375 -8.95734375 67.4884375 -8.27734375 67.1484375 C-9.63133844 63.5741482 -11.25764082 60.3111133 -13.08984375 56.9609375 C-15.7353954 51.72819196 -17.53304028 46.5267024 -19.08984375 40.8984375 C-19.29649658 40.15440674 -19.50314941 39.41037598 -19.71606445 38.64379883 C-22.4019514 28.47716916 -24.81083881 15.74955738 -20.30078125 5.83984375 C-15.67613787 -1.80317374 -8.15589152 -3.04971587 0 0 Z " fill="#69AF76" transform="translate(99.27734375,65.8515625)"/>
<path d="M0 0 C10.89 0 21.78 0 33 0 C33.495 3.465 33.495 3.465 34 7 C36.97 7.495 36.97 7.495 40 8 C40 75.32 40 142.64 40 212 C40.66 212 41.32 212 42 212 C42.66 213.32 43.32 214.64 44 216 C44.55429687 215.4946875 45.10859375 214.989375 45.6796875 214.46875 C46.40414062 213.8190625 47.12859375 213.169375 47.875 212.5 C48.59429687 211.8503125 49.31359375 211.200625 50.0546875 210.53125 C52 209 52 209 54 209 C54 209.99 54 210.98 54 212 C55.175625 211.01 55.175625 211.01 56.375 210 C59 208 59 208 61 208 C61.66 208.99 62.32 209.98 63 211 C63.99 210.34 64.98 209.68 66 209 C66 210.32 66 211.64 66 213 C66.66 213.33 67.32 213.66 68 214 C68 215.32 68 216.64 68 218 C68.66 218 69.32 218 70 218 C70 217.34 70 216.68 70 216 C70.8353125 216.556875 70.8353125 216.556875 71.6875 217.125 C74.79962989 218.30256266 76.0330802 217.29327273 79 216 C79.99 216.33 80.98 216.66 82 217 C81.67 217.66 81.34 218.32 81 219 C82.32 218.67 83.64 218.34 85 218 C85 218.66 85 219.32 85 220 C88.3 220 91.6 220 95 220 C93.73046875 221.49739583 92.4609375 222.99479167 91.19140625 224.4921875 C89.9121848 226.00594079 89.9121848 226.00594079 89 228 C89.66 228.33 90.32 228.66 91 229 C89.35 229.66 87.7 230.32 86 231 C86.33 232.32 86.66 233.64 87 235 C84.36 236.98 81.72 238.96 79 241 C80.32 241.33 81.64 241.66 83 242 C82.50628906 242.40992188 82.01257813 242.81984375 81.50390625 243.2421875 C80.86324219 243.78101563 80.22257812 244.31984375 79.5625 244.875 C78.92441406 245.40867187 78.28632813 245.94234375 77.62890625 246.4921875 C75.89194996 247.9222757 75.89194996 247.9222757 75 250 C75.66 250 76.32 250 77 250 C76 253 76 253 73.0625 254.6875 C70 256 70 256 68 256 C68.268125 256.556875 68.53625 257.11375 68.8125 257.6875 C69 260 69 260 66.9375 262.625 C61.09526613 267.34850823 55.25633809 267.31380344 48.0625 267.25 C47.19431641 267.25773437 46.32613281 267.26546875 45.43164062 267.2734375 C33.50586643 267.23738074 33.50586643 267.23738074 29.25 263.4375 C28.63125 262.7259375 28.63125 262.7259375 28 262 C22.20935222 260.06978407 15.99838416 260.17441594 10 261 C7.16042491 262.91217178 5.55395031 264.96941034 4 268 C3.34 267.67 2.68 267.34 2 267 C3.65 264.69 5.3 262.38 7 260 C5.515 258.515 5.515 258.515 4 257 C4 256.34 4 255.68 4 255 C3.28070313 254.99097656 2.56140625 254.98195313 1.8203125 254.97265625 C-2.51997511 253.47579806 -3.8488811 250.26800088 -6.125 246.4375 C-7.08739797 244.87869567 -8.05230768 243.32143969 -9.01953125 241.765625 C-9.51018066 240.97091797 -10.00083008 240.17621094 -10.50634766 239.35742188 C-12.81632749 235.71159558 -15.32030356 232.20988443 -17.8125 228.6875 C-29.45270522 211.96316146 -29.45270522 211.96316146 -28.61328125 206.46875 C-28.41089844 205.6540625 -28.20851563 204.839375 -28 204 C-28.08600725 201.55369729 -28.08600725 201.55369729 -28.4375 199.1875 C-28.59025391 198.00220703 -28.59025391 198.00220703 -28.74609375 196.79296875 C-28.87177734 195.90544922 -28.87177734 195.90544922 -29 195 C-28.01 195 -27.02 195 -26 195 C-26 190.71 -26 186.42 -26 182 C-25.34 182 -24.68 182 -24 182 C-24 178.7 -24 175.4 -24 172 C-23.01 172 -22.02 172 -21 172 C-20.505 170.02 -20.505 170.02 -20 168 C-19.01 170.97 -18.02 173.94 -17 177 C-15.68 177 -14.36 177 -13 177 C-13.33 175.02 -13.66 173.04 -14 171 C-13.34 171 -12.68 171 -12 171 C-11.80705592 166.17639811 -12.24252386 162.50353262 -14 158 C-12.35 157.67 -10.7 157.34 -9 157 C-9.33 157.66 -9.66 158.32 -10 159 C-9.67 159.33 -9.34 159.66 -9 160 C-8.505 160.99 -8.505 160.99 -8 162 C-7.01 161.67 -6.02 161.34 -5 161 C-2 163 -2 163 -1 166 C-0.67 111.22 -0.34 56.44 0 0 Z " fill="#69B076" transform="translate(307,130)"/>
<path d="M0 0 C4.64867951 1.54955984 6.17587161 5.30647155 8.75 9.3125 C9.26949219 10.08529297 9.78898438 10.85808594 10.32421875 11.65429688 C10.81019531 12.40388672 11.29617187 13.15347656 11.796875 13.92578125 C12.24385742 14.61067627 12.69083984 15.29557129 13.15136719 16.0012207 C14.19977793 18.47053566 13.92630514 19.52565423 13 22 C12.67 22.66 12.34 23.32 12 24 C11.24136665 29.75995342 11.24136665 29.75995342 14.08203125 34.55078125 C18.22192376 38.02563078 22.7944847 39.82557181 27.72265625 41.9609375 C31.85428452 44.53150956 32.9283244 46.67066296 35 51 C33.2984375 51.14695312 33.2984375 51.14695312 31.5625 51.296875 C18.79870265 52.38972558 18.79870265 52.38972558 7.9375 58.8125 C6.48634004 62.1985399 7.06155432 64.49646945 8 68 C10.72828271 71.48091242 13.76487114 73.61533108 18.15625 74.37109375 C26.55931799 74.60918068 33.61838498 71.67660889 40.73046875 67.33203125 C43 66 43 66 45 66 C44.39533414 69.8746639 43.22290711 72.86339925 41.41015625 76.33203125 C40.877854 77.36577881 40.34555176 78.39952637 39.79711914 79.46459961 C39.22469482 80.56940674 38.65227051 81.67421387 38.0625 82.8125 C28.68417652 101.26803777 20.6342998 120.05670487 15 140 C14.78005371 140.77118164 14.56010742 141.54236328 14.33349609 142.33691406 C10.91911362 154.43630317 8.32944095 166.65005888 6 179 C5.67 179 5.34 179 5 179 C4.53716173 176.33405154 4.0797579 173.66732998 3.625 171 C3.49867188 170.27554688 3.37234375 169.55109375 3.2421875 168.8046875 C1.03292759 155.77005401 -0.30030586 143.10005085 -0.22705078 129.87304688 C-0.2264845 128.44213367 -0.22680744 127.01121988 -0.22793579 125.58030701 C-0.22850185 121.75281121 -0.21687089 117.92544474 -0.20278788 114.09797859 C-0.19015373 110.07684131 -0.18910015 106.05569997 -0.18673706 102.0345459 C-0.18055911 94.44540884 -0.16419903 86.85633046 -0.14403808 79.26721907 C-0.12156328 70.61647677 -0.11065674 61.96573145 -0.10064721 53.31496716 C-0.07982886 35.54327836 -0.04472581 17.77164392 0 0 Z " fill="#A7A9A1" transform="translate(174,185)"/>
<path d="M0 0 C-0.33 0.66 -0.66 1.32 -1 2 C-0.67 2.33 -0.34 2.66 0 3 C0.33 3.66 0.66 4.32 1 5 C1.99 4.67 2.98 4.34 4 4 C7.0109362 6.0072908 7.63016497 6.83884224 9 10 C9.66 10 10.32 10 11 10 C11.680625 11.4540625 11.680625 11.4540625 12.375 12.9375 C13.65786221 16.07079582 13.65786221 16.07079582 16 17 C16.33 16.34 16.66 15.68 17 15 C17.33 15.66 17.66 16.32 18 17 C18.804375 17.103125 19.60875 17.20625 20.4375 17.3125 C21.7059375 17.6528125 21.7059375 17.6528125 23 18 C24.3125 20.5625 24.3125 20.5625 25 23 C26.32 23 27.64 23 29 23 C29.33951619 24.56116819 29.67132544 26.12401338 30 27.6875 C30.185625 28.55761719 30.37125 29.42773438 30.5625 30.32421875 C30.98972047 32.93712964 31.07616201 35.35813038 31 38 C31.99 37.67 32.98 37.34 34 37 C38.16399251 41.96992655 39.41330162 45.39879934 39.34765625 51.78515625 C38.24570172 61.97514029 34.70329325 72.48146413 29 81 C28.34 81 27.68 81 27 81 C26.773125 81.763125 26.54625 82.52625 26.3125 83.3125 C24.69023712 86.63427637 23.35344696 87.51824437 20 89 C17.1875 89.1875 17.1875 89.1875 15 89 C15 90.65 15 92.3 15 94 C14.01 94.495 14.01 94.495 13 95 C13.33 92.69 13.66 90.38 14 88 C12.6696875 87.62875 12.6696875 87.62875 11.3125 87.25 C-0.47484294 82.80194606 -6.39439924 70.01846481 -11.53125 59.34375 C-13 56 -13 56 -13 54 C-12.34 54 -11.68 54 -11 54 C-11.99 48.555 -11.99 48.555 -13 43 C-12.01 43.33 -11.02 43.66 -10 44 C-10 39.38 -10 34.76 -10 30 C-8.68 30.66 -7.36 31.32 -6 32 C-6.33 28.37 -6.66 24.74 -7 21 C-6.34 20.67 -5.68 20.34 -5 20 C-5 18.02 -5 16.04 -5 14 C-4.34 14 -3.68 14 -3 14 C-2.80705592 9.17639811 -3.24252386 5.50353262 -5 1 C-3 0 -3 0 0 0 Z " fill="#027D02" transform="translate(298,287)"/>
<path d="M0 0 C3.12080372 3.12080372 5.08157245 5.82743428 5.28515625 10.36328125 C4.92413797 15.60244896 3.67934863 19.12940564 0.1875 23.1875 C-1.75169982 24.70946367 -3.68126862 25.928136 -5.8125 27.1875 C-4.1625 27.5175 -2.5125 27.8475 -0.8125 28.1875 C-0.8125 28.5175 -0.8125 28.8475 -0.8125 29.1875 C-11.7025 28.8575 -22.5925 28.5275 -33.8125 28.1875 C-33.8125 56.2375 -33.8125 84.2875 -33.8125 113.1875 C-36.26511666 110.73488334 -37.14958462 108.4313401 -38.53515625 105.24609375 C-39.07510547 104.01742149 -39.61523292 102.78882753 -40.15551758 101.56030273 C-40.43650299 100.91696991 -40.7174884 100.27363708 -41.00698853 99.61080933 C-45.3929639 89.57671293 -49.84259153 79.63858915 -55.27172852 70.11303711 C-57.15901274 66.7463728 -57.8125 65.16716012 -57.8125 61.1875 C-56.50120078 59.83249081 -55.16558313 58.50078657 -53.8125 57.1875 C-51.28424137 52.7630474 -51.26700583 48.14808759 -51.8125 43.1875 C-53.87332436 36.67963359 -57.18573981 32.93867346 -62.8125 29.1875 C-62.1525 29.1875 -61.4925 29.1875 -60.8125 29.1875 C-60.544375 28.45015625 -60.27625 27.7128125 -60 26.953125 C-54.59110533 14.35609399 -40.29508226 2.84794829 -28 -2.6875 C-18.02431219 -6.20833099 -8.96004501 -5.77425123 0 0 Z " fill="#88DD88" transform="translate(174.8125,101.8125)"/>
<path d="M0 0 C0.12375 0.639375 0.2475 1.27875 0.375 1.9375 C0.58125 2.618125 0.7875 3.29875 1 4 C1.66 4.33 2.32 4.66 3 5 C3 6.32 3 7.64 3 9 C3.66 9 4.32 9 5 9 C5 8.34 5 7.68 5 7 C5.556875 7.37125 6.11375 7.7425 6.6875 8.125 C9.79962989 9.30256266 11.0330802 8.29327273 14 7 C14.99 7.33 15.98 7.66 17 8 C16.67 8.66 16.34 9.32 16 10 C17.32 9.67 18.64 9.34 20 9 C20 9.66 20 10.32 20 11 C23.3 11 26.6 11 30 11 C28.73046875 12.49739583 27.4609375 13.99479167 26.19140625 15.4921875 C24.9121848 17.00594079 24.9121848 17.00594079 24 19 C24.66 19.33 25.32 19.66 26 20 C24.35 20.66 22.7 21.32 21 22 C21.495 23.98 21.495 23.98 22 26 C19.36 27.98 16.72 29.96 14 32 C15.32 32.33 16.64 32.66 18 33 C17.50628906 33.40992188 17.01257813 33.81984375 16.50390625 34.2421875 C15.86324219 34.78101563 15.22257812 35.31984375 14.5625 35.875 C13.92441406 36.40867187 13.28632813 36.94234375 12.62890625 37.4921875 C10.89194996 38.9222757 10.89194996 38.9222757 10 41 C10.66 41 11.32 41 12 41 C11 44 11 44 8.0625 45.6875 C5 47 5 47 3 47 C3.268125 47.556875 3.53625 48.11375 3.8125 48.6875 C4 51 4 51 1.9375 53.625 C-3.90473387 58.34850823 -9.74366191 58.31380344 -16.9375 58.25 C-18.23977539 58.26160156 -18.23977539 58.26160156 -19.56835938 58.2734375 C-25.98660635 58.25403237 -31.34322893 57.77118071 -36.8125 54.125 C-40.14385865 49.36591622 -40.94351272 44.76876354 -41 39 C-39.29179682 29.64256344 -33.75255854 21.44039195 -26 16 C-25.01 16.66 -24.02 17.32 -23 18 C-22.731875 17.2575 -22.46375 16.515 -22.1875 15.75 C-21.04723249 13.10938051 -19.90619694 11.14447156 -18 9 C-17.34 9 -16.68 9 -16 9 C-16 10.65 -16 12.3 -16 14 C-15.46890625 13.4946875 -14.9378125 12.989375 -14.390625 12.46875 C-13.68421875 11.8190625 -12.9778125 11.169375 -12.25 10.5 C-11.55390625 9.8503125 -10.8578125 9.200625 -10.140625 8.53125 C-8 7 -8 7 -4 7 C-3.505 7.99 -3.505 7.99 -3 9 C-1.3516367 7.24755753 -1.3516367 7.24755753 0 5 C-0.30840599 2.84725052 -0.30840599 2.84725052 -1 1 C-0.67 0.67 -0.34 0.34 0 0 Z " fill="#027C02" transform="translate(372,339)"/>
<path d="M0 0 C6.62100397 3.73622873 11.03307186 9.5510993 13.59765625 16.6484375 C17.72624682 32.67130092 13.17071253 49.04874853 7.72265625 64.1484375 C6.975 64.20902344 6.22734375 64.26960938 5.45703125 64.33203125 C4.4721875 64.41582031 3.48734375 64.49960938 2.47265625 64.5859375 C1.498125 64.66714844 0.52359375 64.74835938 -0.48046875 64.83203125 C-2.84196128 65.09918334 -4.9963544 65.50215718 -7.27734375 66.1484375 C-18.62405446 51.05848202 -23.64098824 30.91117563 -22.27734375 12.1484375 C-21.31474638 7.19677139 -19.406833 3.0714968 -15.20703125 0 C-10.34465602 -2.14574454 -4.91407866 -1.8375114 0 0 Z " fill="#87DD87" transform="translate(99.27734375,65.8515625)"/>
<path d="M0 0 C1.37671875 0.48919922 1.37671875 0.48919922 2.78125 0.98828125 C8.30116435 2.72330287 13.39381281 2.09389018 19 1 C24.28332638 18.25886619 27.78842154 37.39450878 19 54 C15.64720782 58.62014763 12.34987296 61.89116478 7 64 C1.55600874 64.81907002 -3.17620537 65.00494806 -8.0625 62.3125 C-13.97971149 55.25002177 -14.41518111 48.92361547 -14 40 C-13.55801035 36.63111574 -12.85895206 33.36416156 -12.0625 30.0625 C-11.85085205 29.17022705 -11.6392041 28.2779541 -11.42114258 27.35864258 C-8.92801115 17.62523122 -4.64958368 8.86358545 0 0 Z " fill="#88DE88" transform="translate(93,166)"/>
<path d="M0 0 C0.33 0 0.66 0 1 0 C1.14695312 1.08667969 1.14695312 1.08667969 1.296875 2.1953125 C2.21692754 8.14392808 3.18992735 12.3009104 7 17 C3.12647919 27.36050146 -14.56597947 33.66962992 -24 38 C-31.00071502 40.33357167 -42.53589799 40.43374515 -49.25 37.2265625 C-53.94650083 33.93481861 -58.17808005 30.12139543 -59.67578125 24.43359375 C-59.93994402 19.48997627 -59.0773264 15.41420781 -55.8515625 11.59375 C-41.77867673 -0.51962003 -20.49020331 -0.22231408 -3 1 C-2.01 1.33 -1.02 1.66 0 2 C0 1.34 0 0.68 0 0 Z " fill="#87DD87" transform="translate(82,146)"/>
<path d="M0 0 C2.31 0.33 4.62 0.66 7 1 C7 68.32 7 135.64 7 205 C7.66 205 8.32 205 9 205 C9.66 206.32 10.32 207.64 11 209 C11.55429687 208.4946875 12.10859375 207.989375 12.6796875 207.46875 C13.76636719 206.49421875 13.76636719 206.49421875 14.875 205.5 C15.95394531 204.52546875 15.95394531 204.52546875 17.0546875 203.53125 C19 202 19 202 21 202 C21 202.99 21 203.98 21 205 C21.78375 204.34 22.5675 203.68 23.375 203 C26 201 26 201 28 201 C28.66 201.99 29.32 202.98 30 204 C30.66 204 31.32 204 32 204 C32.33 205.32 32.66 206.64 33 208 C30.525 209.98 30.525 209.98 28 212 C27.67 211.01 27.34 210.02 27 209 C24.12018877 210.17325643 22.62061333 211.37938667 20.375 213.625 C19.59125 214.40875 18.8075 215.1925 18 216 C17.34 216 16.68 216 16 216 C16 214.35 16 212.7 16 211 C13.03595495 213.80804268 10.55500981 216.18315774 9 220 C8.401875 219.79375 7.80375 219.5875 7.1875 219.375 C4.71549154 218.69328085 4.71549154 218.69328085 2 221 C1.34 220.34 0.68 219.68 0 219 C1 216 1 216 2 214 C1.34 214 0.68 214 0 214 C0 143.38 0 72.76 0 0 Z " fill="#AAABA3" transform="translate(340,137)"/>
<path d="M0 0 C-0.60466586 3.8746639 -1.77709289 6.86339925 -3.58984375 10.33203125 C-4.122146 11.36577881 -4.65444824 12.39952637 -5.20288086 13.46459961 C-5.77530518 14.56940674 -6.34772949 15.67421387 -6.9375 16.8125 C-20.10435825 42.72346908 -28.92377117 68.88848645 -36 97 C-36.66 97 -37.32 97 -38 97 C-38 65.98 -38 34.96 -38 3 C-35.03 4.65 -32.06 6.3 -29 8 C-19.71328963 9.20606628 -12.1720065 6.15943745 -4.26953125 1.33203125 C-2 0 -2 0 0 0 Z " fill="#E9ECE0" transform="translate(219,251)"/>
<path d="M0 0 C4.48204224 2.86850703 9.03969068 6.80680667 10.80078125 11.98828125 C11.85933451 18.55641293 11.36820503 23.53036271 8.29296875 29.46875 C7.125 31 7.125 31 4.125 32 C6.17914443 37.85860486 8.69871548 43.13200872 11.6875 48.5625 C15.66619933 55.97190737 19.29318214 63.49284586 22.6875 71.1875 C23.11683838 72.14277588 23.54617676 73.09805176 23.98852539 74.08227539 C26.32738758 79.47442793 27.73162963 84.12704937 28.125 90 C24.84888583 86.20338171 23.15537863 81.80221721 21.1875 77.25 C17.58557996 69.07817251 13.75008226 61.04682744 9.75 53.0625 C9.23832275 52.03866211 8.72664551 51.01482422 8.19946289 49.95996094 C5.97427537 45.54130579 3.70887804 41.22203219 1.125 37 C0.15820312 37.13019531 -0.80859375 37.26039063 -1.8046875 37.39453125 C-10.32379279 38.29705032 -16.72963999 38.33406116 -23.875 33 C-28.24054799 28.63445201 -30.15922617 23.89955414 -30.375 17.75 C-30.24814377 11.48330248 -28.09531123 7.5406027 -23.875 3 C-17.37147686 -2.44172345 -7.95483403 -2.7535964 0 0 Z " fill="#038103" transform="translate(112.875,131)"/>
<path d="M0 0 C2.75329021 1.79562405 4.52627461 3.05254922 6 6 C7.29258138 19.87039247 2.41430503 31.12035562 -4 43 C-11.27450555 36.15929524 -17.54417738 27.85844623 -17.875 17.625 C-17.4555674 11.69302463 -16.13222582 7.33712958 -12 3 C-8.14050996 -0.25009687 -4.9722927 -0.62153659 0 0 Z " fill="#86DB86" transform="translate(244,184)"/>
<path d="M0 0 C2.37608662 -0.3648322 3.65563532 -0.40953626 5.921875 0.4453125 C10.12492018 4.84921117 13.33062333 9.94871804 15.921875 15.4453125 C13.31892224 16.76026792 10.71459467 18.07236236 8.109375 19.3828125 C7.00239258 19.94258789 7.00239258 19.94258789 5.87304688 20.51367188 C4.80473633 21.05024414 4.80473633 21.05024414 3.71484375 21.59765625 C3.0602417 21.92757568 2.40563965 22.25749512 1.73120117 22.59741211 C-3.14424339 24.88218056 -7.78896607 25.14845032 -13.078125 24.4453125 C-16.89674107 22.86737198 -20.08336885 21.04266131 -22.296875 17.48828125 C-23.58210076 14.12741589 -23.03798964 11.86483028 -22.078125 8.4453125 C-16.75936244 3.00566897 -11.79156494 1.20308276 -4.40625 0.640625 C-2.10588851 0.49728759 -2.10588851 0.49728759 0 0 Z " fill="#87DD87" transform="translate(203.078125,235.5546875)"/>
<path d="M0 0 C2.31 0.33 4.62 0.66 7 1 C7 68.32 7 135.64 7 205 C7.66 205 8.32 205 9 205 C9.66 206.32 10.32 207.64 11 209 C11.55429687 208.4946875 12.10859375 207.989375 12.6796875 207.46875 C13.76636719 206.49421875 13.76636719 206.49421875 14.875 205.5 C15.95394531 204.52546875 15.95394531 204.52546875 17.0546875 203.53125 C19 202 19 202 21 202 C21 202.99 21 203.98 21 205 C21.78375 204.34 22.5675 203.68 23.375 203 C26 201 26 201 28 201 C28.66 201.99 29.32 202.98 30 204 C30.66 204 31.32 204 32 204 C32.33 205.32 32.66 206.64 33 208 C30.525 209.98 30.525 209.98 28 212 C27.67 211.01 27.34 210.02 27 209 C24.12018877 210.17325643 22.62061333 211.37938667 20.375 213.625 C19.59125 214.40875 18.8075 215.1925 18 216 C17.34 216 16.68 216 16 216 C16 214.35 16 212.7 16 211 C13.03595495 213.80804268 10.55500981 216.18315774 9 220 C8.34 220 7.68 220 7 220 C7 219.01 7 218.02 7 217 C6.34 217 5.68 217 5 217 C4.75 210.375 4.75 210.375 7 207 C6.34 207 5.68 207 5 207 C5 139.35 5 71.7 5 2 C3.35 2 1.7 2 0 2 C0 1.34 0 0.68 0 0 Z " fill="#BCBEB5" transform="translate(340,137)"/>
<path d="M0 0 C0.12375 0.639375 0.2475 1.27875 0.375 1.9375 C0.58125 2.618125 0.7875 3.29875 1 4 C1.66 4.33 2.32 4.66 3 5 C3 6.32 3 7.64 3 9 C3.66 9 4.32 9 5 9 C5 8.34 5 7.68 5 7 C5.556875 7.37125 6.11375 7.7425 6.6875 8.125 C9.79962989 9.30256266 11.0330802 8.29327273 14 7 C14.99 7.33 15.98 7.66 17 8 C12.38 10.31 7.76 12.62 3 15 C4.32 15.66 5.64 16.32 7 17 C6.35933594 17.02578125 5.71867187 17.0515625 5.05859375 17.078125 C-1.10543506 17.48232361 -4.82910348 18.66046266 -10 22 C-10.66 22 -11.32 22 -12 22 C-12 22.66 -12 23.32 -12 24 C-7.71 24.33 -3.42 24.66 1 25 C1 25.33 1 25.66 1 26 C0.44650879 25.99887207 -0.10698242 25.99774414 -0.67724609 25.99658203 C-15.90927586 25.8831822 -15.90927586 25.8831822 -29 33 C-28.03578125 33.04898438 -27.0715625 33.09796875 -26.078125 33.1484375 C-24.81484375 33.22320312 -23.5515625 33.29796875 -22.25 33.375 C-20.99703125 33.44460938 -19.7440625 33.51421875 -18.453125 33.5859375 C-15.30864983 33.96298995 -13.70051563 34.52558054 -11 36 C-11.56920166 35.98428955 -12.13840332 35.9685791 -12.72485352 35.95239258 C-15.33729874 35.88951561 -17.9495841 35.85084468 -20.5625 35.8125 C-21.45775391 35.78736328 -22.35300781 35.76222656 -23.27539062 35.73632812 C-29.05724272 35.67279129 -32.82163742 36.46080291 -38 39 C-38.99 39 -39.98 39 -41 39 C-38.16170778 29.56840786 -34.2223266 21.77005376 -26 16 C-25.01 16.66 -24.02 17.32 -23 18 C-22.731875 17.2575 -22.46375 16.515 -22.1875 15.75 C-21.04723249 13.10938051 -19.90619694 11.14447156 -18 9 C-17.34 9 -16.68 9 -16 9 C-16 10.65 -16 12.3 -16 14 C-15.46890625 13.4946875 -14.9378125 12.989375 -14.390625 12.46875 C-13.68421875 11.8190625 -12.9778125 11.169375 -12.25 10.5 C-11.55390625 9.8503125 -10.8578125 9.200625 -10.140625 8.53125 C-8 7 -8 7 -4 7 C-3.505 7.99 -3.505 7.99 -3 9 C-1.3516367 7.24755753 -1.3516367 7.24755753 0 5 C-0.30840599 2.84725052 -0.30840599 2.84725052 -1 1 C-0.67 0.67 -0.34 0.34 0 0 Z " fill="#067806" transform="translate(372,339)"/>
<path d="M0 0 C4.8 7.2 4.8 7.2 5.375 12.375 C5.93205463 17.30630325 7.16319852 22.04689942 8.37890625 26.8515625 C8.99761821 29.98792625 9.11007387 32.81264345 9 36 C9.66 36 10.32 36 11 36 C11.33 35.34 11.66 34.68 12 34 C11.9278125 34.60328125 11.855625 35.2065625 11.78125 35.828125 C11.6884375 36.62734375 11.595625 37.4265625 11.5 38.25 C11.4071875 39.03890625 11.314375 39.8278125 11.21875 40.640625 C10.93845381 43.26890397 10.93845381 43.26890397 11 47 C11.66 47 12.32 47 13 47 C13.25910156 46.32324219 13.51820313 45.64648438 13.78515625 44.94921875 C14.93398512 42.1602612 16.20115364 39.45110272 17.51318359 36.73583984 C22.79336822 25.74870449 25.44129581 16.29149224 26 4 C26.99 3.67 27.98 3.34 29 3 C33.16399251 7.96992655 34.41330162 11.39879934 34.34765625 17.78515625 C33.24570172 27.97514029 29.70329325 38.48146413 24 47 C23.34 47 22.68 47 22 47 C21.773125 47.763125 21.54625 48.52625 21.3125 49.3125 C19.69023712 52.63427637 18.35344696 53.51824437 15 55 C12.1875 55.1875 12.1875 55.1875 10 55 C10 56.65 10 58.3 10 60 C9.01 60.495 9.01 60.495 8 61 C8.33 57.37 8.66 53.74 9 50 C7.68 49.67 6.36 49.34 5 49 C6.32 49 7.64 49 9 49 C8.29789952 33.17550316 8.29789952 33.17550316 1 20 C1.33 19.34 1.66 18.68 2 18 C2.66 18.33 3.32 18.66 4 19 C3.71125 17.96359375 3.4225 16.9271875 3.125 15.859375 C2.74973453 14.48965604 2.37474921 13.1198603 2 11.75 C1.71382813 10.72712891 1.71382813 10.72712891 1.421875 9.68359375 C0.50042956 6.29399088 0 3.54221024 0 0 Z " fill="#067706" transform="translate(303,321)"/>
<path d="M0 0 C0.66 0.66 1.32 1.32 2 2 C3.86925914 2.17984985 5.74763026 2.26824439 7.625 2.3125 C13.18943369 2.66569902 18.19113716 3.64138387 23.5 5.25 C24.1698291 5.44247314 24.8396582 5.63494629 25.52978516 5.83325195 C30.15171128 7.31084833 32.82610872 9.37607936 36 13 C36.495 13.495 36.495 13.495 37 14 C37.39059434 18.06218109 37.43336164 20.30352594 35.25 23.8125 C32.20055084 26.77724224 30.27589125 27.91736456 25.984375 28.1953125 C24.91703125 28.17210937 23.8496875 28.14890625 22.75 28.125 C21.67234375 28.10695313 20.5946875 28.08890625 19.484375 28.0703125 C18.66453125 28.04710937 17.8446875 28.02390625 17 28 C17 26.68 17 25.36 17 24 C16.34 24 15.68 24 15 24 C15 23.01 15 22.02 15 21 C14.34 21 13.68 21 13 21 C13 20.01 13 19.02 13 18 C12.34 18 11.68 18 11 18 C11 17.01 11 16.02 11 15 C10.34 15 9.68 15 9 15 C9 14.01 9 13.02 9 12 C8.34 12 7.68 12 7 12 C6.05598958 10.20963542 5.11197917 8.41927083 4.16796875 6.62890625 C3.00980201 4.67732013 3.00980201 4.67732013 0 4 C0 2.68 0 1.36 0 0 Z " fill="#88DC88" transform="translate(245,233)"/>
<path d="M0 0 C0.33 0.99 0.66 1.98 1 3 C3.34375 2.609375 3.34375 2.609375 5.6875 2.21875 C9.11049267 1.8949534 12.56172673 2 16 2 C16 12.89 16 23.78 16 35 C4.88888889 29.44444444 4.88888889 29.44444444 -0.30859375 25.13671875 C-2.07534225 23.72110363 -2.07534225 23.72110363 -5 24 C-6.76462683 20.91190305 -7 19.76687864 -7 16 C-5.68870078 14.64499081 -4.35308313 13.31328657 -3 12 C-1.01258088 8.12976277 -0.50542196 4.29608662 0 0 Z " fill="#88DD88" transform="translate(124,147)"/>
<path d="M0 0 C0.66 0 1.32 0 2 0 C0.37694212 4.41029864 -1.81713396 8.4484718 -4.0625 12.5625 C-12.08506615 27.53053609 -18.62839659 42.9017688 -24 59 C-24.35578125 59.97324219 -24.7115625 60.94648438 -25.078125 61.94921875 C-32.60796994 82.89533503 -37.0097352 106.69420338 -37.82421875 128.91796875 C-37.9690092 131.45662797 -38.26190926 133.5817027 -39 136 C-40.98 135.34 -42.96 134.68 -45 134 C-45 116.18 -45 98.36 -45 80 C-42.89737106 83.15394341 -42.59552664 84.64589448 -42.1484375 88.32421875 C-42.01953125 89.35224609 -41.890625 90.38027344 -41.7578125 91.43945312 C-41.63148438 92.51130859 -41.50515625 93.58316406 -41.375 94.6875 C-41.2409375 95.77095703 -41.106875 96.85441406 -40.96875 97.97070312 C-40.63871446 100.64634838 -40.3160969 103.32267825 -40 106 C-39.67 106 -39.34 106 -39 106 C-38.86013672 105.31824707 -38.72027344 104.63649414 -38.57617188 103.93408203 C-31.18763159 68.33961101 -20.40788534 30.611828 0 0 Z " fill="#075F07" transform="translate(219,253)"/>
<path d="M0 0 C2 2 2 2 2.9375 5.5625 C3.288125 6.696875 3.63875 7.83125 4 9 C4.99 9.33 5.98 9.66 7 10 C6.34 10 5.68 10 5 10 C5.33 13.63 5.66 17.26 6 21 C5.01 20.67 4.02 20.34 3 20 C3 24.62 3 29.24 3 34 C2.01 33.67 1.02 33.34 0 33 C0.33 36.3 0.66 39.6 1 43 C0.34 43 -0.32 43 -1 43 C5.00737874 55.60320153 5.00737874 55.60320153 13 67 C13.66 67.99 14.32 68.98 15 70 C3.92028082 66.51780254 -2.00692576 53.36176685 -7.03125 43.76171875 C-8.14381007 40.59002531 -7.82224991 39.1970711 -7 36 C-7.08600725 33.55369729 -7.08600725 33.55369729 -7.4375 31.1875 C-7.53933594 30.39730469 -7.64117187 29.60710937 -7.74609375 28.79296875 C-7.87177734 27.90544922 -7.87177734 27.90544922 -8 27 C-7.01 27 -6.02 27 -5 27 C-5 22.71 -5 18.42 -5 14 C-4.34 14 -3.68 14 -3 14 C-3 10.7 -3 7.4 -3 4 C-2.01 4 -1.02 4 0 4 C0 2.68 0 1.36 0 0 Z " fill="#62A46D" transform="translate(286,298)"/>
<path d="M0 0 C0.33 1.32 0.66 2.64 1 4 C1.94875 4.103125 2.8975 4.20625 3.875 4.3125 C7 5 7 5 9 8 C9.18940253 10.73610069 9.26081314 13.36939928 9.24050903 16.10539246 C9.24221788 16.94100041 9.24392673 17.77660837 9.24568737 18.63753778 C9.24899097 21.447491 9.23796427 24.25720731 9.22705078 27.06713867 C9.22648686 29.07740778 9.22680286 31.0876773 9.22793579 33.09794617 C9.22851103 38.5645722 9.21672903 44.03111096 9.20278788 49.49771667 C9.19030902 55.20723898 9.18911227 60.91676315 9.18673706 66.626297 C9.18051391 77.44225286 9.16409181 88.25816842 9.14403808 99.07410651 C9.12170503 111.3859072 9.11069218 123.69770977 9.10064721 136.00952566 C9.0797263 161.33970614 9.04453413 186.66985081 9 212 C8.34 212 7.68 212 7 212 C7 144.68 7 77.36 7 8 C5.02 8 3.04 8 1 8 C0 7 0 7 -0.0625 3.4375 C-0.041875 2.303125 -0.02125 1.16875 0 0 Z " fill="#D7D9CE" transform="translate(340,130)"/>
<path d="M0 0 C0.99 0 1.98 0 3 0 C5 3 5 3 4.6875 5.0625 C4 7 4 7 3 9 C2.24136665 14.75995342 2.24136665 14.75995342 5.08203125 19.55078125 C9.22192376 23.02563078 13.7944847 24.82557181 18.72265625 26.9609375 C22.85428452 29.53150956 23.9283244 31.67066296 26 36 C24.865625 36.09796875 23.73125 36.1959375 22.5625 36.296875 C14.56508768 37.06444222 7.9780056 37.72775167 1 42 C0.34 42 -0.32 42 -1 42 C-1.02464638 36.17928378 -1.0428343 30.35859766 -1.05493164 24.5378418 C-1.05997267 22.55606559 -1.06680538 20.57429311 -1.07543945 18.5925293 C-1.08751515 15.75047891 -1.09323045 12.90847753 -1.09765625 10.06640625 C-1.10281754 9.17474258 -1.10797882 8.28307892 -1.11329651 7.36439514 C-1.11349177 5.24259399 -1.0621003 3.1208922 -1 1 C-0.67 0.67 -0.34 0.34 0 0 Z " fill="#E9ECE0" transform="translate(183,200)"/>
<path d="M0 0 C2.52588702 2.36292656 3.88820837 3.66462511 5 7 C4.01 7.495 4.01 7.495 3 8 C3.01047363 9.25659424 3.02094727 10.51318848 3.03173828 11.80786133 C3.06790817 16.46505897 3.09088953 21.12224416 3.10986328 25.77954102 C3.11992773 27.79616381 3.13358047 29.81277199 3.15087891 31.8293457 C3.17510769 34.72611089 3.18647859 37.62268331 3.1953125 40.51953125 C3.20563507 41.42274612 3.21595764 42.325961 3.22659302 43.25654602 C3.22674408 44.09719101 3.22689514 44.937836 3.22705078 45.80395508 C3.231492 46.54341873 3.23593323 47.28288239 3.24050903 48.04475403 C3 50 3 50 1 53 C1.19937471 54.91638125 1.41093235 56.83286832 1.70503044 58.73701477 C2.2169281 62.66425678 2.08192337 66.58391597 2.02172852 70.53710938 C2.0073172 71.91411514 2.0073172 71.91411514 1.99261475 73.31893921 C1.95986021 76.32729339 1.91943958 79.33549144 1.87890625 82.34375 C1.85458207 84.43981388 1.83073969 86.5358834 1.80735779 88.63195801 C1.74474543 94.12941958 1.67561487 99.62678035 1.60510254 105.12414551 C1.53421186 110.74157143 1.46951927 116.35906841 1.40429688 121.9765625 C1.27557934 132.98445311 1.13997199 143.99224715 1 155 C1.66 155 2.32 155 3 155 C2.01 160.28 1.02 165.56 0 171 C-0.33 171 -0.66 171 -1 171 C-1.02332673 148.85202571 -1.04097806 126.70405344 -1.05181217 104.55606937 C-1.05697561 94.27313388 -1.06401922 83.990206 -1.07543945 73.70727539 C-1.08538483 64.7480805 -1.09185308 55.78889113 -1.09408849 46.82969087 C-1.09539585 42.08279929 -1.09848327 37.33592348 -1.10573006 32.58903694 C-1.11248797 28.12646974 -1.11461743 23.66392491 -1.11310768 19.20135307 C-1.11338411 17.55857599 -1.11539059 15.91579819 -1.11920547 14.27302551 C-1.12413916 12.04002629 -1.12299951 9.80711291 -1.12025452 7.57411194 C-1.12117631 6.32139527 -1.1220981 5.06867861 -1.12304783 3.77800083 C-1 1 -1 1 0 0 Z " fill="#C3C6BC" transform="translate(180,193)"/>
<path d="M0 0 C3.91776366 1.42010013 7.20298603 3.2854438 10.6875 5.5625 C14.26284941 7.92275628 14.26284941 7.92275628 18 10 C18 11.98 18 13.96 18 16 C18.33 14.35 18.66 12.7 19 11 C19.62648438 10.79503906 20.25296875 10.59007812 20.8984375 10.37890625 C21.71570313 10.10949219 22.53296875 9.84007812 23.375 9.5625 C24.18710937 9.29566406 24.99921875 9.02882813 25.8359375 8.75390625 C28.01031799 8.04820271 28.01031799 8.04820271 30 7 C30.22151549 8.79008467 30.42682213 10.58218162 30.625 12.375 C30.79902344 13.87160156 30.79902344 13.87160156 30.9765625 15.3984375 C30.98429687 16.25695312 30.99203125 17.11546875 31 18 C30.34 18.66 29.68 19.32 29 20 C29.763125 20.0825 30.52625 20.165 31.3125 20.25 C34.56142336 21.15667629 35.15079631 22.28855764 37 25 C36.05898438 24.99097656 35.11796875 24.98195313 34.1484375 24.97265625 C27.04770159 24.91039944 27.04770159 24.91039944 20.734375 27.625 C19.29669788 29.35579576 18.08074113 31.02893404 17 33 C16.34 32.67 15.68 32.34 15 32 C16.65 29.69 18.3 27.38 20 25 C19.01 24.01 18.02 23.02 17 22 C17 21.34 17 20.68 17 20 C16.23397461 19.91226318 15.46794922 19.82452637 14.67871094 19.73413086 C11.44991305 18.84924248 10.86711344 18.05246737 9.140625 15.25390625 C8.42712891 14.12178711 8.42712891 14.12178711 7.69921875 12.96679688 C7.22097656 12.17337891 6.74273437 11.37996094 6.25 10.5625 C5.75628906 9.77294922 5.26257813 8.98339844 4.75390625 8.16992188 C1.35090919 2.70181838 1.35090919 2.70181838 0 0 Z " fill="#69AF76" transform="translate(294,365)"/>
<path d="M0 0 C0 0.66 0 1.32 0 2 C0.66 2 1.32 2 2 2 C1.814375 2.5775 1.62875 3.155 1.4375 3.75 C0.80631906 5.96359772 0.80631906 5.96359772 1.67578125 7.8515625 C2 10 2 10 0.671875 12.2265625 C0.03765625 13.01804687 -0.5965625 13.80953125 -1.25 14.625 C-5.4931994 20.43282603 -8.38079031 25.71882891 -7.7265625 33.07421875 C-7.25294974 35.75459242 -6.69519844 38.36924908 -6 41 C-6.99 41 -7.98 41 -9 41 C-9.61875 40.319375 -10.2375 39.63875 -10.875 38.9375 C-11.926875 37.9784375 -11.926875 37.9784375 -13 37 C-16.41605892 37.17080295 -19.03387957 38.35215531 -22 40 C-18.25 35.125 -18.25 35.125 -16 34 C-16.01160156 33.08476562 -16.02320313 32.16953125 -16.03515625 31.2265625 C-16.04417969 30.03804688 -16.05320312 28.84953125 -16.0625 27.625 C-16.07410156 26.44164062 -16.08570313 25.25828125 -16.09765625 24.0390625 C-16 21 -16 21 -15 19 C-14.34 19 -13.68 19 -13 19 C-12.71125 18.071875 -12.4225 17.14375 -12.125 16.1875 C-11 13 -11 13 -9 10 C-8.9175 9.21625 -8.835 8.4325 -8.75 7.625 C-7.65334884 3.78672095 -4.27722842 0 0 0 Z " fill="#67AC74" transform="translate(340,349)"/>
<path d="M0 0 C3.68147576 1.73671584 7.10943431 3.85591422 10.5625 6 C11.13935547 6.35578125 11.71621094 6.7115625 12.31054688 7.078125 C14.90235298 8.68044112 17.46434984 10.30956656 20 12 C20.34057617 14.98095703 20.34057617 14.98095703 20.29296875 18.7578125 C20.28872391 19.42086395 20.28447906 20.08391541 20.28010559 20.76705933 C20.26329971 22.88678441 20.22564701 25.00556188 20.1875 27.125 C20.17245549 28.56118419 20.15876668 29.99738328 20.14648438 31.43359375 C20.1133909 34.95603764 20.0615968 38.47792636 20 42 C17.39351067 38.80260301 15.71639437 35.51123032 14.00390625 31.765625 C13.7290892 31.16876892 13.45427216 30.57191284 13.17112732 29.95697021 C12.29708663 28.05667287 11.42951124 26.1535134 10.5625 24.25 C9.41996643 21.75428923 8.27458375 19.25989369 7.12890625 16.765625 C6.59152832 15.59322266 6.05415039 14.42082031 5.50048828 13.21289062 C4.24484694 10.52427364 2.94376739 7.87425782 1.58984375 5.234375 C0 2 0 2 0 0 Z " fill="#E8ECDF" transform="translate(120,170)"/>
<path d="M0 0 C0.33 0 0.66 0 1 0 C1.05793591 4.43744539 1.09357467 8.87479389 1.125 13.3125 C1.14175781 14.57513672 1.15851563 15.83777344 1.17578125 17.13867188 C1.18544922 18.95141602 1.18544922 18.95141602 1.1953125 20.80078125 C1.21102295 22.47394409 1.21102295 22.47394409 1.22705078 24.1809082 C1 27 1 27 -1 30 C-3.93334961 30.35644531 -3.93334961 30.35644531 -7.65234375 30.328125 C-8.30828018 30.32625183 -8.96421661 30.32437866 -9.64002991 30.32244873 C-11.02789386 30.31572429 -12.41573873 30.3018018 -13.8034668 30.28125 C-15.92579812 30.25017136 -18.04738583 30.24028667 -20.16992188 30.234375 C-30.50788358 30.16403881 -30.50788358 30.16403881 -34 29 C-34.33 27.02 -34.66 25.04 -35 23 C-36.98 23 -38.96 23 -41 23 C-41 22.67 -41 22.34 -41 22 C-30.44 22 -19.88 22 -9 22 C-9 22.99 -9 23.98 -9 25 C-8.21625 25.144375 -7.4325 25.28875 -6.625 25.4375 C-4 26 -4 26 -2 27 C-1.96241577 26.14619751 -1.96241577 26.14619751 -1.92407227 25.27514648 C-1.80706106 22.66242687 -1.6848172 20.04997638 -1.5625 17.4375 C-1.52318359 16.54224609 -1.48386719 15.64699219 -1.44335938 14.72460938 C-1.20667217 9.7541781 -0.80178328 4.91176481 0 0 Z " fill="#C2C9BA" transform="translate(182,362)"/>
<path d="M0 0 C6.82013301 2.77857271 10.57995947 9.01362995 14.4375 14.9375 C15.19824829 16.09004272 15.19824829 16.09004272 15.97436523 17.26586914 C20.87243647 24.72093984 25.64091438 32.26082845 30.36694336 39.82592773 C31.20817749 41.16312866 31.20817749 41.16312866 32.06640625 42.52734375 C32.56084229 43.31874756 33.05527832 44.11015137 33.56469727 44.92553711 C34.90768267 46.86657249 36.33160929 48.34521181 38 50 C38.84016898 51.22823508 39.6422758 52.48313413 40.41015625 53.7578125 C40.84263672 54.46550781 41.27511719 55.17320312 41.72070312 55.90234375 C42.61973441 57.39156878 43.51816613 58.88115592 44.41601562 60.37109375 C44.84720703 61.07621094 45.27839844 61.78132813 45.72265625 62.5078125 C46.11203369 63.15379395 46.50141113 63.79977539 46.90258789 64.46533203 C47.93552634 66.16252248 47.93552634 66.16252248 50 67 C50 69.64 50 72.28 50 75 C47.66406434 72.80733937 45.91065338 70.53516912 44.15600586 67.85839844 C43.60790756 67.02612732 43.05980927 66.1938562 42.49510193 65.33636475 C41.90761673 64.43645813 41.32013153 63.53655151 40.71484375 62.609375 C40.09912003 61.67256897 39.4833963 60.73576294 38.84901428 59.77056885 C36.87514238 56.76590704 34.90618246 53.75806394 32.9375 50.75 C30.9983553 47.79400738 29.05820236 44.83867831 27.11798096 41.88339233 C25.85307335 39.95657957 24.58854461 38.02951803 23.32440186 36.10220337 C16.09282156 25.08132662 8.77067146 14.12253675 1.3984375 3.1953125 C0 1 0 1 0 0 Z " fill="#C3C8BD" transform="translate(177,135)"/>
<path d="M0 0 C2.75775844 2.52413128 4.69540109 5.36417214 6.7578125 8.47265625 C7.46550781 9.53677734 8.17320312 10.60089844 8.90234375 11.69726562 C9.2669873 12.24938721 9.63163086 12.80150879 10.00732422 13.37036133 C11.12498304 15.06247432 12.24757346 16.75122768 13.37109375 18.43945312 C18.84569225 26.69138451 18.84569225 26.69138451 20 29 C15.9277183 30.35742723 12.25721902 30.51056595 8 30 C3.44719871 27.67301268 1.59143272 24.09109312 -0.28125 19.5 C-2.11705727 13.1145834 -1.12096881 6.44557063 0 0 Z " fill="#87DC87" transform="translate(223,258)"/>
<path d="M0 0 C0.33 0 0.66 0 1 0 C1.33 69.3 1.66 138.6 2 210 C3.65 208.35 5.3 206.7 7 205 C6.34 208.3 5.68 211.6 5 215 C5.66 215 6.32 215 7 215 C5.74458443 217.51083114 4.49936512 217.87125446 2 219 C1.34 218.34 0.68 217.68 0 217 C1 214 1 214 2 212 C1.34 212 0.68 212 0 212 C0 142.04 0 72.08 0 0 Z " fill="#95AA94" transform="translate(340,139)"/>
<path d="M0 0 C0.66 0.99 1.32 1.98 2 3 C2.66 3 3.32 3 4 3 C4.33 4.32 4.66 5.64 5 7 C3.35 8.32 1.7 9.64 0 11 C-0.33 10.01 -0.66 9.02 -1 8 C-3.87981123 9.17325643 -5.37938667 10.37938667 -7.625 12.625 C-8.40875 13.40875 -9.1925 14.1925 -10 15 C-10.66 15 -11.32 15 -12 15 C-12 13.35 -12 11.7 -12 10 C-14.96404505 12.80804268 -17.44499019 15.18315774 -19 19 C-19.66 19 -20.32 19 -21 19 C-21 18.01 -21 17.02 -21 16 C-21.66 16 -22.32 16 -23 16 C-23.36923077 9.47692308 -23.36923077 9.47692308 -21.5 7.0625 C-21.005 6.711875 -20.51 6.36125 -20 6 C-19.01 7.32 -18.02 8.64 -17 10 C-16.4225 9.071875 -15.845 8.14375 -15.25 7.1875 C-13.27710086 4.39255955 -11.89107103 2.73464262 -9 1 C-8.34 1 -7.68 1 -7 1 C-7 1.99 -7 2.98 -7 4 C-6.21625 3.34 -5.4325 2.68 -4.625 2 C-2 0 -2 0 0 0 Z " fill="#D5DACC" transform="translate(368,338)"/>
<path d="M0 0 C0.12375 0.639375 0.2475 1.27875 0.375 1.9375 C0.58125 2.618125 0.7875 3.29875 1 4 C1.66 4.33 2.32 4.66 3 5 C3 6.32 3 7.64 3 9 C3.66 9 4.32 9 5 9 C5 8.34 5 7.68 5 7 C5.556875 7.37125 6.11375 7.7425 6.6875 8.125 C9.79962989 9.30256266 11.0330802 8.29327273 14 7 C14.99 7.33 15.98 7.66 17 8 C10.07 11.465 10.07 11.465 3 15 C4.32 15.66 5.64 16.32 7 17 C6.35933594 17.02578125 5.71867187 17.0515625 5.05859375 17.078125 C-1.12491574 17.48360103 -4.77873597 18.73670998 -10 22 C-10.66 21.67 -11.32 21.34 -12 21 C-11.67 20.13375 -11.34 19.2675 -11 18.375 C-9.8375479 15.07709984 -9.8375479 15.07709984 -10.0625 11.8125 C-10 9 -10 9 -8.5 7.125 C-8.005 6.75375 -7.51 6.3825 -7 6 C-4 7 -4 7 -3 9 C-1.3516367 7.24755753 -1.3516367 7.24755753 0 5 C-0.30840599 2.84725052 -0.30840599 2.84725052 -1 1 C-0.67 0.67 -0.34 0.34 0 0 Z " fill="#106C0F" transform="translate(372,339)"/>
<path d="M0 0 C0.99 0.495 0.99 0.495 2 1 C2 28.72 2 56.44 2 85 C2.66 85.33 3.32 85.66 4 86 C3.34 88.64 2.68 91.28 2 94 C1.34 94 0.68 94 0 94 C0 62.98 0 31.96 0 0 Z " fill="#DCDED4" transform="translate(181,254)"/>
<path d="M0 0 C0.66 0 1.32 0 2 0 C0.37694212 4.41029864 -1.81713396 8.4484718 -4.0625 12.5625 C-12.08506615 27.53053609 -18.62839659 42.9017688 -24 59 C-24.35578125 59.97324219 -24.7115625 60.94648438 -25.078125 61.94921875 C-29.25936096 73.58035529 -31.60451638 85.89331463 -34 98 C-36.26336694 94.60494959 -36.0957777 93.31239322 -35.48535156 89.40869141 C-34.51718776 84.60391069 -33.21360551 79.90041666 -31.875 75.1875 C-31.40368652 73.52763062 -31.40368652 73.52763062 -30.92285156 71.83422852 C-23.62026612 46.57611018 -12.53668472 23.06097319 0 0 Z " fill="#2B9429" transform="translate(219,253)"/>
<path d="M0 0 C3.46829378 4.12162353 6.30156378 8.49221971 9.125 13.0625 C9.56714844 13.76955078 10.00929687 14.47660156 10.46484375 15.20507812 C12.46056776 18.41572174 14.34507979 21.59759307 16 25 C8.9974027 23.15721124 0.82499645 19.41572886 -3 13 C-3.51804578 7.56051935 -3.37318554 4.49758072 0 0 Z " fill="#88DB88" transform="translate(188,204)"/>
<path d="M0 0 C0.99 0.33 1.98 0.66 3 1 C2.67 1.66 2.34 2.32 2 3 C1.89359466 5.16621194 1.85330024 7.335754 1.84178162 9.50454712 C1.83684364 10.18004211 1.83190566 10.8555371 1.82681805 11.55150163 C1.811403 13.82551025 1.80307164 16.09949056 1.79467773 18.37353516 C1.78510235 19.99942781 1.77509248 21.62531795 1.76467896 23.25120544 C1.73758695 27.67448366 1.71660069 32.09777259 1.69667697 36.52108812 C1.67484386 41.14024857 1.64744211 45.75937583 1.62062073 50.37850952 C1.57065759 59.1297103 1.52573222 67.88092946 1.48259836 76.63216627 C1.43325689 86.59335094 1.37832733 96.55450232 1.32291877 106.5156548 C1.20904316 127.01040553 1.1022163 147.50518803 1 168 C0.67 168 0.34 168 0 168 C0 112.56 0 57.12 0 0 Z " fill="#B3B6AD" transform="translate(178,191)"/>
<path d="M0 0 C0 2.97 0 5.94 0 9 C-4.95 9.33 -9.9 9.66 -15 10 C-17 5 -17 5 -17 2 C-14.54187409 1.66507287 -12.08352273 1.3319903 -9.625 1 C-8.92632812 0.90460938 -8.22765625 0.80921875 -7.5078125 0.7109375 C-2.2265625 0 -2.2265625 0 0 0 Z " fill="#E7ECDE" transform="translate(140,140)"/>
<path d="M0 0 C10.56 0 21.12 0 32 0 C32 0.99 32 1.98 32 3 C34.475 3.495 34.475 3.495 37 4 C37 4.33 37 4.66 37 5 C27.76 5 18.52 5 9 5 C9 3.68 9 2.36 9 1 C6.03 1 3.06 1 0 1 C0 0.67 0 0.34 0 0 Z " fill="#A1AC9D" transform="translate(141,384)"/>
<path d="M0 0 C4.24888689 1.5174596 5.61497237 4.3140482 8 8 C8.75023437 8.70382812 9.50046875 9.40765625 10.2734375 10.1328125 C13.73896953 13.77708257 16.13100184 17.75297453 18.6875 22.0625 C19.41549805 23.26616211 19.41549805 23.26616211 20.15820312 24.49414062 C22.23445506 27.94501454 24.23450809 31.3780743 26 35 C25.34 35.99 24.68 36.98 24 38 C23.45061768 37.15816162 22.90123535 36.31632324 22.33520508 35.44897461 C20.27730777 32.29645651 18.2174303 29.14523631 16.15698242 25.99438477 C15.26908013 24.63600873 14.3817 23.27729122 13.49487305 21.91821289 C12.21283189 19.95366699 10.92885619 17.99039716 9.64453125 16.02734375 C9.25473587 15.42913315 8.86494049 14.83092255 8.46333313 14.21458435 C6.45182888 11.14414114 4.38336636 8.14422232 2.2097168 5.18579102 C0 2 0 2 0 0 Z " fill="#C1C6BB" transform="translate(260,260)"/>
<path d="M0 0 C4.33651388 2.04552542 6.45053328 3.07831389 8.9375 7.25 C10.13568248 11.47887934 10.22971662 14.63538425 10 19 C9.01 18.67 8.02 18.34 7 18 C7.33 19.98 7.66 21.96 8 24 C6.68 24 5.36 24 4 24 C1 17.375 1 17.375 1 14 C1.99 14 2.98 14 4 14 C3.67 11.03 3.34 8.06 3 5 C2.34 5 1.68 5 1 5 C0.67 3.35 0.34 1.7 0 0 Z " fill="#D1D5C9" transform="translate(286,283)"/>
<path d="M0 0 C4.8 7.2 4.8 7.2 5.375 12.375 C5.93205463 17.30630325 7.16319852 22.04689942 8.37890625 26.8515625 C8.99761821 29.98792625 9.11007387 32.81264345 9 36 C9.66 36 10.32 36 11 36 C11.33 35.34 11.66 34.68 12 34 C11.9278125 34.60328125 11.855625 35.2065625 11.78125 35.828125 C11.6884375 36.62734375 11.595625 37.4265625 11.5 38.25 C11.4071875 39.03890625 11.314375 39.8278125 11.21875 40.640625 C10.93845381 43.26890397 10.93845381 43.26890397 11 47 C11.66 47.33 12.32 47.66 13 48 C12.34 49.98 11.68 51.96 11 54 C12.32 54.33 13.64 54.66 15 55 C13.35 55 11.7 55 10 55 C10 56.65 10 58.3 10 60 C9.01 60.495 9.01 60.495 8 61 C8.33 57.37 8.66 53.74 9 50 C7.68 49.67 6.36 49.34 5 49 C6.32 49 7.64 49 9 49 C8.29789952 33.17550316 8.29789952 33.17550316 1 20 C1.33 19.34 1.66 18.68 2 18 C2.66 18.33 3.32 18.66 4 19 C3.71125 17.96359375 3.4225 16.9271875 3.125 15.859375 C2.74973453 14.48965604 2.37474921 13.1198603 2 11.75 C1.71382813 10.72712891 1.71382813 10.72712891 1.421875 9.68359375 C0.50042956 6.29399088 0 3.54221024 0 0 Z " fill="#154513" transform="translate(303,321)"/>
<path d="M0 0 C1.98 0.99 1.98 0.99 4 2 C4.33 2.99 4.66 3.98 5 5 C4.01 5.495 4.01 5.495 3 6 C3.01571045 7.26183105 3.0314209 8.52366211 3.04760742 9.82373047 C3.10180307 14.49391323 3.13631221 19.16406807 3.16479492 23.83447266 C3.17990526 25.85795766 3.20039437 27.8814098 3.22631836 29.90478516 C3.26260328 32.80900165 3.27970355 35.71278615 3.29296875 38.6171875 C3.30845261 39.52556366 3.32393646 40.43393982 3.33988953 41.36984253 C3.34011612 42.21056305 3.34034271 43.05128357 3.34057617 43.91748047 C3.34723801 44.65916473 3.35389984 45.400849 3.36076355 46.16500854 C3.24171158 46.77055573 3.12265961 47.37610291 3 48 C2.01 48.66 1.02 49.32 0 50 C0 33.5 0 17 0 0 Z " fill="#D2D5CA" transform="translate(180,195)"/>
<path d="M0 0 C0 0.99 0 1.98 0 3 C5.61 3.33 11.22 3.66 17 4 C17 4.66 17 5.32 17 6 C15.73160474 6.50615298 14.46016898 7.00469099 13.1875 7.5 C12.12595703 7.91765625 12.12595703 7.91765625 11.04296875 8.34375 C9 9 9 9 6 9 C6 8.34 6 7.68 6 7 C4.1128125 7.5878125 4.1128125 7.5878125 2.1875 8.1875 C-0.01953125 8.75390625 -0.01953125 8.75390625 -2 9 C-4 7.625 -4 7.625 -5 6 C-5 6.66 -5 7.32 -5 8 C-5.66 8 -6.32 8 -7 8 C-7.6875 6.1875 -7.6875 6.1875 -8 4 C-5.87874759 1.13630924 -3.62654727 0 0 0 Z " fill="#ACB2A5" transform="translate(382,340)"/>
<path d="M0 0 C4.95 0 9.9 0 15 0 C14.34 1.32 13.68 2.64 13 4 C13.391875 3.484375 13.78375 2.96875 14.1875 2.4375 C16 1 16 1 18.5 1.0625 C21.46947503 2.17605314 22.2316593 3.44515893 24 6 C23.05898438 5.99097656 22.11796875 5.98195313 21.1484375 5.97265625 C14.04770159 5.91039944 14.04770159 5.91039944 7.734375 8.625 C6.29669788 10.35579576 5.08074113 12.02893404 4 14 C3.34 13.67 2.68 13.34 2 13 C3.65 10.69 5.3 8.38 7 6 C6.01 5.01 5.02 4.02 4 3 C4 2.34 4 1.68 4 1 C2.68 0.67 1.36 0.34 0 0 Z " fill="#939C8F" transform="translate(307,384)"/>
<path d="M0 0 C1.65 0 3.3 0 5 0 C5.99 1.98 6.98 3.96 8 6 C9.32 6 10.64 6 12 6 C12.33951619 7.56116819 12.67132544 9.12401338 13 10.6875 C13.185625 11.55761719 13.37125 12.42773438 13.5625 13.32421875 C13.98972047 15.93712964 14.07616201 18.35813038 14 21 C13.38125 20.01 13.38125 20.01 12.75 19 C12.1725 18.34 11.595 17.68 11 17 C9.68 17 8.36 17 7 17 C5.73694665 11.92523206 4.72963916 7.27203646 5 2 C3.68 2.33 2.36 2.66 1 3 C0.67 2.01 0.34 1.02 0 0 Z " fill="#106810" transform="translate(315,304)"/>
<path d="M0 0 C0.33 0 0.66 0 1 0 C1 4.29 1 8.58 1 13 C1.99 12.34 2.98 11.68 4 11 C4.99 11 5.98 11 7 11 C7.66 14.63 8.32 18.26 9 22 C8.01 22 7.02 22 6 22 C5.38125 21.319375 4.7625 20.63875 4.125 19.9375 C3.42375 19.298125 2.7225 18.65875 2 18 C-1.41605892 18.17080295 -4.03387957 19.35215531 -7 21 C-3.25 16.125 -3.25 16.125 -1 15 C-1.01160156 14.08476562 -1.02320313 13.16953125 -1.03515625 12.2265625 C-1.04417969 11.03804688 -1.05320312 9.84953125 -1.0625 8.625 C-1.07410156 7.44164062 -1.08570313 6.25828125 -1.09765625 5.0390625 C-1 2 -1 2 0 0 Z " fill="#4F7454" transform="translate(325,368)"/>
<path d="M0 0 C0.33 0 0.66 0 1 0 C1.18918311 4.82416931 0.86355393 9.23521256 0.0625 14 C-0.91360232 19.8772358 -1.38213855 25.67665635 -1.65795898 31.61914062 C-1.81771106 34.86133539 -2.04176566 37.88771821 -3 41 C-3.66 40.67 -4.32 40.34 -5 40 C-4.2995356 8.59907121 -4.2995356 8.59907121 0 0 Z " fill="#016C01" transform="translate(183,348)"/>
<path d="M0 0 C0.99 0 1.98 0 3 0 C5 3 5 3 4.69140625 4.921875 C4.46324219 5.60765625 4.23507813 6.2934375 4 7 C3.82339844 7.70640625 3.64679688 8.4128125 3.46484375 9.140625 C2.9765625 11.09375 2.48828125 13.046875 2 15 C1.67 15 1.34 15 1 15 C1 23.91 1 32.82 1 42 C0.34 42 -0.32 42 -1 42 C-1.02464638 36.17928378 -1.0428343 30.35859766 -1.05493164 24.5378418 C-1.05997267 22.55606559 -1.06680538 20.57429311 -1.07543945 18.5925293 C-1.08751515 15.75047891 -1.09323045 12.90847753 -1.09765625 10.06640625 C-1.10281754 9.17474258 -1.10797882 8.28307892 -1.11329651 7.36439514 C-1.11349177 5.24259399 -1.0621003 3.1208922 -1 1 C-0.67 0.67 -0.34 0.34 0 0 Z " fill="#E0E5D8" transform="translate(183,200)"/>
<path d="M0 0 C0.66902344 -0.020625 1.33804687 -0.04125 2.02734375 -0.0625 C6.45572432 -0.09730063 9.22341611 0.5435519 12.75 3.25 C12.75 3.58 12.75 3.91 12.75 4.25 C5.82 4.25 -1.11 4.25 -8.25 4.25 C-8.25 -1.35659163 -4.57193349 0.03444018 0 0 Z " fill="#D4D6CC" transform="translate(324.25,389.75)"/>
<path d="M0 0 C3.16115776 1.36983503 3.9927092 1.9890638 6 5 C6 5.99 6 6.98 6 8 C6.66 8 7.32 8 8 8 C8 8.99 8 9.98 8 11 C8.66 11 9.32 11 10 11 C10 11.99 10 12.98 10 14 C10.66 14 11.32 14 12 14 C12 14.99 12 15.98 12 17 C12.66 17 13.32 17 14 17 C14 17.99 14 18.98 14 20 C14.66 20 15.32 20 16 20 C15.67 20.99 15.34 21.98 15 23 C15 22.34 15 21.68 15 21 C14.01 20.67 13.02 20.34 12 20 C10.75390625 18.29296875 10.75390625 18.29296875 9.5625 16.1875 C7.66379828 12.98308448 5.6849086 10.59541165 3 8 C0 3.60714286 0 3.60714286 0 0 Z " fill="#72BC72" transform="translate(246,237)"/>
<path d="M0 0 C0.33 0 0.66 0 1 0 C1.33 5.61 1.66 11.22 2 17 C3.65 15.35 5.3 13.7 7 12 C6.34 15.3 5.68 18.6 5 22 C5.66 22 6.32 22 7 22 C5.74458443 24.51083114 4.49936512 24.87125446 2 26 C1.34 25.34 0.68 24.68 0 24 C1 21 1 21 2 19 C1.34 19 0.68 19 0 19 C0 12.73 0 6.46 0 0 Z " fill="#849081" transform="translate(340,332)"/>
<path d="M0 0 C0.66 0.33 1.32 0.66 2 1 C2 5.62 2 10.24 2 15 C1.01 15.33 0.02 15.66 -1 16 C-0.814375 17.27875 -0.62875 18.5575 -0.4375 19.875 C0.125 23.75 0.125 23.75 -1 26 C-0.19135876 28.17501521 -0.19135876 28.17501521 1 30.5 C2.1875 32.90625 2.1875 32.90625 3 35 C2.67 35.66 2.34 36.32 2 37 C1.12855131 35.4470724 0.27846343 33.88214564 -0.5625 32.3125 C-1.27599609 31.00732422 -1.27599609 31.00732422 -2.00390625 29.67578125 C-3.1702225 26.54273565 -2.80590252 25.18331497 -2 22 C-2.08600725 19.55369729 -2.08600725 19.55369729 -2.4375 17.1875 C-2.53933594 16.39730469 -2.64117187 15.60710937 -2.74609375 14.79296875 C-2.82988281 14.20128906 -2.91367187 13.60960937 -3 13 C-2.01 13 -1.02 13 0 13 C0 8.71 0 4.42 0 0 Z " fill="#405843" transform="translate(281,312)"/>
<path d="M0 0 C4.05204951 1.35068317 4.87548363 3.39577729 7.1875 6.9375 C7.90292969 8.01902344 8.61835938 9.10054687 9.35546875 10.21484375 C11 13 11 13 11 15 C12.98 15.66 14.96 16.32 17 17 C17 19.64 17 22.28 17 25 C14.43980427 22.62533974 12.57652209 20.05146847 10.64453125 17.1484375 C10.02255859 16.21515625 9.40058594 15.281875 8.75976562 14.3203125 C8.11716797 13.34835938 7.47457031 12.37640625 6.8125 11.375 C6.15830078 10.3953125 5.50410156 9.415625 4.83007812 8.40625 C0 1.13343163 0 1.13343163 0 0 Z " fill="#BAC3B4" transform="translate(210,185)"/>
<path d="M0 0 C0.33 0 0.66 0 1 0 C1.33 4.29 1.66 8.58 2 13 C2.96421875 13.04898437 3.9284375 13.09796875 4.921875 13.1484375 C6.18515625 13.22320312 7.4484375 13.29796875 8.75 13.375 C10.00296875 13.44460938 11.2559375 13.51421875 12.546875 13.5859375 C15.69135017 13.96298995 17.29948437 14.52558054 20 16 C19.43079834 15.98952637 18.86159668 15.97905273 18.27514648 15.96826172 C15.6626437 15.92634282 13.05021201 15.90056112 10.4375 15.875 C9.54224609 15.85824219 8.64699219 15.84148437 7.72460938 15.82421875 C2.39910095 15.78520404 -1.96370689 16.24524218 -7 18 C-5.37660195 16.29115995 -3.70680947 14.62553283 -2 13 C-1.34 13 -0.68 13 0 13 C0 8.71 0 4.42 0 0 Z " fill="#154513" transform="translate(341,359)"/>
<path d="M0 0 C3.69610412 4.51079065 7.03662923 9.22917878 10.37695312 14.00390625 C12.87297376 17.55810237 12.87297376 17.55810237 15.87109375 20.6796875 C16.42990234 21.33324219 16.42990234 21.33324219 17 22 C16.6875 24.1875 16.6875 24.1875 16 26 C11.73337657 20.23551941 7.54453307 14.42235199 3.5 8.5 C2.8296875 7.5203125 2.159375 6.540625 1.46875 5.53125 C0 3 0 3 0 0 Z " fill="#69AF6B" transform="translate(227,209)"/>
<path d="M0 0 C1.94107336 2.91161004 3.25498997 5.66228642 4.625 8.875 C5.07101563 9.90367187 5.51703125 10.93234375 5.9765625 11.9921875 C6.9653375 14.89812928 7.21288192 16.9636316 7 20 C4.44236572 16.87065923 2.82859007 13.71432957 1.25 10 C0.80140625 8.96875 0.3528125 7.9375 -0.109375 6.875 C-1.00889467 3.97128737 -1.0943977 2.77603319 0 0 Z " fill="#198B19" transform="translate(134,201)"/>
<path d="M0 0 C3.38212232 1.12737411 3.70120765 1.63762359 5.515625 4.52734375 C5.96164063 5.23697266 6.40765625 5.94660156 6.8671875 6.67773438 C7.32351562 7.42345703 7.77984375 8.16917969 8.25 8.9375 C8.72179687 9.67935547 9.19359375 10.42121094 9.6796875 11.18554688 C12.2419647 15.31740616 12.2419647 15.31740616 13 17 C12.67 17.66 12.34 18.32 12 19 C7.88773142 15.36222395 4.56021037 10.84733163 2 6 C2 4.68 2 3.36 2 2 C1.34 2 0.68 2 0 2 C0 1.34 0 0.68 0 0 Z " fill="#D3D4CB" transform="translate(211,182)"/>
<path d="M0 0 C0.66 0 1.32 0 2 0 C2 1.32 2 2.64 2 4 C2.66 4.33 3.32 4.66 4 5 C3.34 6.98 2.68 8.96 2 11 C3.32 11.33 4.64 11.66 6 12 C4.35 12 2.7 12 1 12 C1 13.65 1 15.3 1 17 C0.34 17.33 -0.32 17.66 -1 18 C-0.67 14.37 -0.34 10.74 0 7 C-1.32 6.67 -2.64 6.34 -4 6 C-2.68 6 -1.36 6 0 6 C0 4.02 0 2.04 0 0 Z " fill="#1F5720" transform="translate(312,364)"/>
<path d="M0 0 C0.66 0 1.32 0 2 0 C0.2010497 5.07634826 -2.49026455 9.63713611 -5.125 14.3125 C-5.59292969 15.14845703 -6.06085938 15.98441406 -6.54296875 16.84570312 C-7.6926259 18.89866233 -8.84503802 20.95002202 -10 23 C-10.33 22.34 -10.66 21.68 -11 21 C-10.10375977 18.84521484 -10.10375977 18.84521484 -8.69140625 16.2109375 C-8.19189453 15.26992188 -7.69238281 14.32890625 -7.17773438 13.359375 C-6.64470703 12.37453125 -6.11167969 11.3896875 -5.5625 10.375 C-5.03333984 9.38242187 -4.50417969 8.38984375 -3.95898438 7.3671875 C-2.6463946 4.90755982 -1.32648654 2.45215293 0 0 Z " fill="#1E8D1D" transform="translate(219,253)"/>
<path d="M0 0 C2.375 1.0625 2.375 1.0625 5.375 5.0625 C1.085 5.0625 -3.205 5.0625 -7.625 5.0625 C-3.37188797 0.08028305 -3.37188797 0.08028305 0 0 Z " fill="#B1B3AB" transform="translate(325.625,384.9375)"/>
<path d="M0 0 C0.66 0.33 1.32 0.66 2 1 C0.43247063 7.36416924 -1.14264467 13.71356657 -3 20 C-4.1484375 18.515625 -4.1484375 18.515625 -5 16 C-4.33545663 13.12223827 -3.59384863 10.519537 -2.625 7.75 C-2.3775 7.00492187 -2.13 6.25984375 -1.875 5.4921875 C-1.26326523 3.65698319 -0.63337124 1.82784987 0 0 Z " fill="#3D9C3A" transform="translate(193,309)"/>
<path d="M0 0 C2.31 0.33 4.62 0.66 7 1 C7 1.66 7 2.32 7 3 C8.32 3 9.64 3 11 3 C11 4.32 11 5.64 11 7 C6.00724943 5.72278474 3.42388092 3.82669043 0 0 Z " fill="#0D720D" transform="translate(301,368)"/>
<path d="M0 0 C4.45942567 1.48647522 6.85972995 4.99451468 9 9 C9.3125 11.9375 9.3125 11.9375 9 14 C6.67489755 11.15820812 4.42299401 8.27173401 2.25 5.3125 C1.82203125 4.73113281 1.3940625 4.14976562 0.953125 3.55078125 C0 2 0 2 0 0 Z " fill="#B9C0B3" transform="translate(260,260)"/>
<path d="M0 0 C2.94721162 2.74395564 5.19168608 5.38337216 7 9 C6.67 9.66 6.34 10.32 6 11 C5.34 10.67 4.68 10.34 4 10 C4 9.34 4 8.68 4 8 C3.01 8 2.02 8 1 8 C-0.35439668 5.29120665 -0.06501451 2.99066732 0 0 Z " fill="#CBCEC3" transform="translate(269,269)"/>
<path d="M0 0 C2.94721162 2.74395564 5.19168608 5.38337216 7 9 C6.67 9.66 6.34 10.32 6 11 C5.34 10.67 4.68 10.34 4 10 C4 9.34 4 8.68 4 8 C3.01 8 2.02 8 1 8 C-0.35439668 5.29120665 -0.06501451 2.99066732 0 0 Z " fill="#CBCEC4" transform="translate(193,154)"/>
<path d="M0 0 C0.33 0 0.66 0 1 0 C1.08333357 4.8333472 0.95261487 9.23692563 0 14 C-0.99 13.67 -1.98 13.34 -3 13 C-2.69128878 11.20767663 -2.37790936 9.41615679 -2.0625 7.625 C-1.88847656 6.62726563 -1.71445313 5.62953125 -1.53515625 4.6015625 C-1 2 -1 2 0 0 Z " fill="#158314" transform="translate(183,348)"/>
<path d="M0 0 C0.33 0 0.66 0 1 0 C1 1.98 1 3.96 1 6 C1.66 6 2.32 6 3 6 C1.74458443 8.51083114 0.49936512 8.87125446 -2 10 C-2.66 9.34 -3.32 8.68 -4 8 C-3 5 -3 5 -2 3 C-1.34 3 -0.68 3 0 3 C0 2.01 0 1.02 0 0 Z " fill="#9AA895" transform="translate(344,348)"/>
<path d="M0 0 C0 0.66 0 1.32 0 2 C0.66 2 1.32 2 2 2 C1.67 2.99 1.34 3.98 1 5 C-0.32 5 -1.64 5 -3 5 C-5.71126384 6.42621684 -5.71126384 6.42621684 -8 8 C-8 7.01 -8 6.02 -8 5 C-2.65116279 0 -2.65116279 0 0 0 Z " fill="#4A6C4E" transform="translate(340,349)"/>
<path d="M0 0 C2 3 2 3 3 5 C2.38125 4.835 1.7625 4.67 1.125 4.5 C-0.96063386 3.92365356 -0.96063386 3.92365356 -3 4 C-4.36161311 4.96113866 -5.69855198 5.95884159 -7 7 C-7.66 5.02 -8.32 3.04 -9 1 C-8.34 1 -7.68 1 -7 1 C-7 1.99 -7 2.98 -7 4 C-6.21625 3.34 -5.4325 2.68 -4.625 2 C-2 0 -2 0 0 0 Z " fill="#797773" transform="translate(368,338)"/>
<path d="M0 0 C3 0 3 0 4.38671875 1.35546875 C8.69371531 7.42147893 8.69371531 7.42147893 8 12 C4.78119883 8.2064129 2.3836813 4.34170523 0 0 Z " fill="#BAC0B4" transform="translate(185,147)"/>
<path d="M0 0 C0.33 0.66 0.66 1.32 1 2 C2.32 1.67 3.64 1.34 5 1 C5.33 2.98 5.66 4.96 6 7 C4.68 7 3.36 7 2 7 C0 4 0 4 0 0 Z " fill="#BFC8B8" transform="translate(288,300)"/>
<path d="M0 0 C1.32 0 2.64 0 4 0 C4.66 1.98 5.32 3.96 6 6 C3 6 3 6 0 4 C0 2.68 0 1.36 0 0 Z " fill="#878E83" transform="translate(328,384)"/>
<path d="M0 0 C2.97 0 5.94 0 9 0 C9 0.33 9 0.66 9 1 C7.35 1 5.7 1 4 1 C4.66 3.31 5.32 5.62 6 8 C1.125 3.375 1.125 3.375 0 0 Z " fill="#D0DCC8" transform="translate(263,261)"/>
<path d="M0 0 C3.25524265 3.02272532 5.61820737 6.25718301 8 10 C7.67 10.66 7.34 11.32 7 12 C3 7.25 3 7.25 3 5 C2.01 5 1.02 5 0 5 C0 3.35 0 1.7 0 0 Z " fill="#D2D4CA" transform="translate(185,142)"/>
<path d="M0 0 C5.27272727 2.63636364 5.27272727 2.63636364 7 5 C6.67 6.32 6.34 7.64 6 9 C4.02 6.03 2.04 3.06 0 0 Z " fill="#0F7110" transform="translate(237,226)"/>
<path d="M0 0 C2 1.75 2 1.75 4 4 C4 5.32 4 6.64 4 8 C4.66 8 5.32 8 6 8 C5.67 8.66 5.34 9.32 5 10 C3.0625 8.9375 3.0625 8.9375 1 7 C0.25 3.3125 0.25 3.3125 0 0 Z " fill="#C7CAC0" transform="translate(207,176)"/>
<path d="M0 0 C0.99 0 1.98 0 3 0 C5.1875 3 5.1875 3 7 6 C5.68 6 4.36 6 3 6 C2.01 4.02 1.02 2.04 0 0 Z " fill="#D0D2C8" transform="translate(308,385)"/>
<path d="M0 0 C0.66 0.33 1.32 0.66 2 1 C1.67 1.33 1.34 1.66 1 2 C1.99 2.66 2.98 3.32 4 4 C1 6 1 6 -1.1875 5.625 C-1.785625 5.41875 -2.38375 5.2125 -3 5 C-1.125 1.125 -1.125 1.125 0 0 Z " fill="#154513" transform="translate(381,362)"/>
<path d="M0 0 C2 2 2 2 2.125 5.625 C2.08375 6.73875 2.0425 7.8525 2 9 C0.35 9.33 -1.3 9.66 -3 10 C-3 9.01 -3 8.02 -3 7 C-2.01 7 -1.02 7 0 7 C0 4.69 0 2.38 0 0 Z " fill="#6F6D6A" transform="translate(288,288)"/>
<path d="M0 0 C3.25543229 0.34879632 4.01873107 1.02133261 6.25 3.5625 C6.8275 4.366875 7.405 5.17125 8 6 C5.0280615 4.87548273 2.66559313 3.77706209 0 2 C0 1.34 0 0.68 0 0 Z " fill="#416B45" transform="translate(293,362)"/>
<path d="M0 0 C1.32 0 2.64 0 4 0 C4.66 1.65 5.32 3.3 6 5 C4.125 4.75 4.125 4.75 2 4 C0.75 1.9375 0.75 1.9375 0 0 Z " fill="#55885C" transform="translate(289,357)"/>
<path d="M0 0 C0.66 0.66 1.32 1.32 2 2 C1.9765625 4.1640625 1.9765625 4.1640625 1.625 6.625 C1.51414063 7.44226563 1.40328125 8.25953125 1.2890625 9.1015625 C1.19367188 9.72804688 1.09828125 10.35453125 1 11 C-1.78637633 6.8204355 -0.79562512 4.85331323 0 0 Z " fill="#339631" transform="translate(184,340)"/>
<path d="M0 0 C0.45375 0.66 0.9075 1.32 1.375 2 C1.91125 2.66 2.4475 3.32 3 4 C3.66 4 4.32 4 5 4 C5.66 5.32 6.32 6.64 7 8 C4.69 7.34 2.38 6.68 0 6 C0 4.02 0 2.04 0 0 Z " fill="#265F24" transform="translate(304,293)"/>
<path d="M0 0 C1.65 0.33 3.3 0.66 5 1 C5 1.66 5 2.32 5 3 C2.69 3 0.38 3 -2 3 C-1.34 2.01 -0.68 1.02 0 0 Z " fill="#A6A79F" transform="translate(323,385)"/>
<path d="M0 0 C0.33 0 0.66 0 1 0 C1 2.97 1 5.94 1 9 C0.01 8.34 -0.98 7.68 -2 7 C-1.125 1.125 -1.125 1.125 0 0 Z " fill="#097509" transform="translate(181,360)"/>
<path d="M0 0 C1.04449911 3.13349732 0.93423645 3.98968256 0 7 C-0.99 6.67 -1.98 6.34 -3 6 C-2.42655063 3.13275314 -2.1385485 2.1385485 0 0 Z " fill="#174D15" transform="translate(391,348)"/>
<path d="M0 0 C0.99 0 1.98 0 3 0 C4.75 2.3125 4.75 2.3125 6 5 C5.67 5.99 5.34 6.98 5 8 C2.525 4.04 2.525 4.04 0 0 Z " fill="#B9BFB3" transform="translate(202,173)"/>
</svg>
