<?xml version="1.0" encoding="UTF-8"?>
<svg version="1.1" xmlns="http://www.w3.org/2000/svg" width="500" height="500">
<path d="M0 0 C10.37897586 5.30506673 10.37897586 5.30506673 12.6328125 10.60546875 C12.9609375 13.7265625 12.9609375 13.7265625 12.8828125 17.04296875 C12.86734375 18.13480469 12.851875 19.22664063 12.8359375 20.3515625 C12.63950235 23.49830245 12.21205261 26.50840266 11.6328125 29.60546875 C12.74398437 29.98058594 13.85515625 30.35570312 15 30.7421875 C35.93552384 37.90818009 35.93552384 37.90818009 39.6328125 41.60546875 C39.43463719 51.48120486 35.30319124 60.629251 31.93115234 69.78833008 C27.83564138 80.97090883 25.20944666 91.79642653 23.6328125 103.60546875 C31.98396409 98.28883071 37.16445468 91.62931461 41.6953125 82.91796875 C42.14938477 82.05002686 42.60345703 81.18208496 43.07128906 80.2878418 C49.49566081 67.48757192 54.17345591 53.89543914 59.09873962 40.46894836 C61.17229924 34.82710596 63.27885369 29.19879978 65.4296875 23.5859375 C65.7207135 22.81494217 66.0117395 22.04394684 66.31158447 21.24958801 C68.40097501 15.83730624 68.40097501 15.83730624 70.6328125 13.60546875 C76.74339675 12.53611651 81.46339539 15.74492173 86.6328125 18.60546875 C87.06219188 24.75647015 85.59975237 29.29349425 83.37890625 34.9921875 C82.87110374 36.33782524 82.87110374 36.33782524 82.3530426 37.71064758 C81.2695787 40.57565326 80.17065198 43.43440718 79.0703125 46.29296875 C72.74930746 62.86942423 72.74930746 62.86942423 66.63671875 79.5234375 C66.19107826 80.72911629 66.19107826 80.72911629 65.73643494 81.95915222 C63.39666727 88.55221188 62.60212552 94.60148225 63.6328125 101.60546875 C63.9628125 102.26546875 64.2928125 102.92546875 64.6328125 103.60546875 C72.84796356 101.60873065 78.62406163 98.13026017 83.36450195 91.0012207 C87.39001056 84.09247564 90.75318835 77.16101862 93.6953125 69.73046875 C94.37098267 68.05307617 94.37098267 68.05307617 95.06030273 66.34179688 C99.97662835 53.99667026 104.52218504 41.5086483 109.03735352 29.01220703 C109.32823853 28.21110504 109.61912354 27.41000305 109.91882324 26.58462524 C110.46691765 25.07415088 111.01169831 23.56246854 111.5526123 22.04940796 C112.68137356 18.94299501 113.7889349 16.37128514 115.6328125 13.60546875 C121.62002227 12.4080268 126.59685258 15.71287407 131.6328125 18.60546875 C131.9628125 18.93546875 132.2928125 19.26546875 132.6328125 19.60546875 C132.21644816 25.97741852 130.50207971 31.36813156 128.24609375 37.30859375 C127.90660202 38.22646667 127.56711029 39.1443396 127.21733093 40.09002686 C126.13474622 43.01492387 125.04114343 45.93551122 123.9453125 48.85546875 C119.76691751 60.01676643 115.63386813 71.15739016 112.19921875 82.57421875 C111.95657791 83.37950012 111.71393707 84.18478149 111.46394348 85.01446533 C109.66573119 91.14803968 108.38215228 97.24900031 107.6328125 103.60546875 C121.28561325 96.2682493 126.57392981 81.27014038 132.93359375 67.86328125 C136.33315411 61.11088988 141.43372225 55.30871419 148.55078125 52.421875 C159.37887544 49.55359656 167.69652255 52.06357454 177.13671875 57.37890625 C182.68362096 60.75452172 187.04788138 65.10725117 188.6328125 71.60546875 C188.87879527 74.36475376 188.81592495 76.81300384 188.6328125 79.60546875 C187.9728125 80.26546875 187.3128125 80.92546875 186.6328125 81.60546875 C181.0326452 81.37689049 175.12296156 80.0968071 170.6328125 76.60546875 C169.38581403 73.98635491 168.72963272 71.59160365 168.16796875 68.75 C167.99136719 68.04230469 167.81476563 67.33460938 167.6328125 66.60546875 C166.9728125 66.27546875 166.3128125 65.94546875 165.6328125 65.60546875 C159.72503573 67.6118835 155.68927718 70.09066148 152.4375 75.6484375 C149.57582271 81.46184486 148.40810075 86.33847939 150.24609375 92.7421875 C150.96742737 94.7434259 151.74717475 96.67169091 152.6328125 98.60546875 C152.91382813 99.32476562 153.19484375 100.0440625 153.484375 100.78515625 C154.46908113 102.75237365 154.46908113 102.75237365 156.4453125 103.28515625 C165.92445811 104.13150854 174.99072868 102.61100689 182.6328125 96.60546875 C188.03754461 90.64521814 190.48463144 84.21782634 190.6953125 76.23828125 C190.33009023 69.09362059 187.64892008 63.01352286 184.6328125 56.60546875 C184.15328125 55.45691406 184.15328125 55.45691406 183.6640625 54.28515625 C183.32375 53.73085938 182.9834375 53.1765625 182.6328125 52.60546875 C180.30658939 52.22567722 177.97105842 51.90238887 175.6328125 51.60546875 C171.55934892 50.12118382 167.72178931 48.69444556 164.6328125 45.60546875 C164.6328125 42.85546875 164.6328125 42.85546875 165.6328125 39.60546875 C167.11328125 38.1953125 167.11328125 38.1953125 168.8203125 36.79296875 C170.50387843 35.3600264 170.50387843 35.3600264 171.6328125 33.60546875 C171.57288732 31.25455791 170.98480078 29.34190224 170.3046875 27.09375 C168.41013822 20.07730879 168.99185357 13.07661618 172.3125 6.62109375 C174.98829374 2.5361542 177.85366251 -0.60888693 182.6640625 -1.96875 C189.63258964 -2.53683645 195.93939136 0.8782441 201.6328125 4.60546875 C204.49349625 7.55803741 205.0643721 9.65535206 205.0703125 13.73046875 C204.7988294 22.59498202 201.53892709 29.24120613 195.609375 35.71875 C194.36327294 37.60887847 194.36327294 37.60887847 195.23046875 39.86328125 C195.69324219 40.76820313 196.15601563 41.673125 196.6328125 42.60546875 C197.21675781 43.78238281 197.80070312 44.95929688 198.40234375 46.171875 C199.08274392 47.50420742 199.76375939 48.83622575 200.4453125 50.16796875 C207.59629039 64.3188132 213.24138721 76.06925606 208.546875 91.9296875 C204.66109116 103.3047385 198.21942266 110.09242759 187.6484375 115.6484375 C178.21276475 119.54339544 166.13800776 118.94465281 156.6953125 115.48046875 C149.88424271 112.47231747 142.76224954 109.12696467 137.6328125 103.60546875 C137.24351562 104.11335938 136.85421875 104.62125 136.453125 105.14453125 C131.29641983 111.48941733 125.84656105 116.54102334 117.62890625 118.21875 C108.08625579 118.81589745 100.79049342 115.02844374 92.6328125 110.60546875 C91.6840625 111.36859375 90.7353125 112.13171875 89.7578125 112.91796875 C83.26196748 117.46506026 77.16478616 119.09486279 69.2578125 118.16796875 C63.30818431 117.06253487 58.43341442 114.82073551 53.19140625 111.84765625 C50.50712111 110.31430528 50.50712111 110.31430528 46.6328125 110.60546875 C45.21239639 111.82768726 43.79304565 113.05120225 42.3828125 114.28515625 C37.46186962 117.9978319 32.30013146 119.01268666 26.2578125 118.16796875 C19.273863 116.5668664 11.32273614 113.57139997 7.0078125 107.54296875 C-1.67247253 88.99872347 12.63070609 61.69924724 18.6328125 43.60546875 C17.68647949 43.45601807 16.74014648 43.30656738 15.76513672 43.15258789 C11.97687573 42.4908971 9.11195541 41.20587449 5.6328125 39.60546875 C5.51292969 40.32661865 5.39304687 41.04776855 5.26953125 41.79077148 C4.62218847 44.65243363 3.6861644 46.98649699 2.4453125 49.640625 C1.77508057 51.08707397 1.77508057 51.08707397 1.09130859 52.56274414 C0.61000488 53.58746826 0.12870117 54.61219238 -0.3671875 55.66796875 C-1.37592228 57.83420619 -2.38372088 60.00087979 -3.390625 62.16796875 C-3.89432617 63.25078125 -4.39802734 64.33359375 -4.91699219 65.44921875 C-6.23693988 68.32199379 -7.51989675 71.20658781 -8.78125 74.10546875 C-24.9104714 111.15271397 -24.9104714 111.15271397 -39.15234375 117.046875 C-48.84699052 119.49190937 -56.66292966 116.93138002 -65.3671875 112.60546875 C-66.140625 112.22132813 -66.9140625 111.8371875 -67.7109375 111.44140625 C-68.2575 111.16554688 -68.8040625 110.8896875 -69.3671875 110.60546875 C-69.9653125 111.18296875 -70.5634375 111.76046875 -71.1796875 112.35546875 C-77.60425108 116.89045481 -84.71781651 119.58826259 -92.6171875 118.34765625 C-102.03050554 115.80713007 -110.62093856 112.35863677 -116.1171875 103.91796875 C-124.75380471 81.03093314 -106.64279232 50.64376136 -98.3046875 29.41796875 C-98.01547424 28.68120911 -97.72626099 27.94444946 -97.42828369 27.18536377 C-96.60816006 25.1012842 -95.78366149 23.01900621 -94.95703125 20.9375 C-94.48128662 19.73843018 -94.00554199 18.53936035 -93.51538086 17.30395508 C-92.3671875 14.60546875 -92.3671875 14.60546875 -91.3671875 13.60546875 C-85.22818727 12.66100718 -80.52718236 15.64162989 -75.3671875 18.60546875 C-75.0371875 18.93546875 -74.7071875 19.26546875 -74.3671875 19.60546875 C-74.76766979 26.15056006 -76.62880353 31.63052271 -79.0078125 37.703125 C-79.37187195 38.65505234 -79.7359314 39.60697968 -80.11102295 40.5877533 C-81.27134305 43.61779988 -82.44355701 46.64305574 -83.6171875 49.66796875 C-85.14778089 53.63628079 -86.67330926 57.60651074 -88.1953125 61.578125 C-88.74475525 63.0107518 -88.74475525 63.0107518 -89.30529785 64.47232056 C-95.96656745 80.72254445 -95.96656745 80.72254445 -98.4296875 97.85546875 C-98.42066406 98.933125 -98.41164062 100.01078125 -98.40234375 101.12109375 C-98.39074219 101.9409375 -98.37914062 102.76078125 -98.3671875 103.60546875 C-90.55412037 102.41844948 -85.29616212 100.25981795 -80.28515625 94.0078125 C-67.12585394 75.04090217 -60.56194944 51.36607724 -52.72436523 29.85473633 C-52.38521591 28.92984909 -52.04606659 28.00496185 -51.69664001 27.05204773 C-51.05240271 25.29471868 -50.41261087 23.53575184 -49.77784729 21.77497864 C-49.48957565 20.9908812 -49.20130402 20.20678375 -48.90429688 19.39892578 C-48.65466187 18.71186554 -48.40502686 18.0248053 -48.14782715 17.31692505 C-47.3671875 15.60546875 -47.3671875 15.60546875 -45.3671875 13.60546875 C-39.41814233 12.58977811 -35.19892563 15.50298427 -30.3671875 18.60546875 C-30.0371875 18.93546875 -29.7071875 19.26546875 -29.3671875 19.60546875 C-29.76596375 26.22775613 -31.21247738 31.78631008 -33.53515625 37.96875 C-34.01109978 39.27684883 -34.01109978 39.27684883 -34.49665833 40.6113739 C-35.50659284 43.38379254 -36.52951844 46.15115111 -37.5546875 48.91796875 C-41.53022559 59.70044613 -45.44631353 70.47189819 -48.76953125 81.4765625 C-49.0140654 82.28168777 -49.25859955 83.08681305 -49.51054382 83.91633606 C-51.42687892 90.41049971 -52.65362098 96.86349542 -53.3671875 103.60546875 C-37.65308946 94.25183897 -30.70169125 73.51580391 -23.4921875 57.54296875 C-22.74021079 55.89229214 -21.98760865 54.2419003 -21.234375 52.59179688 C-19.26513474 48.26896105 -17.30367107 43.94308007 -15.3671875 39.60546875 C-15.07148865 38.95845001 -14.77578979 38.31143127 -14.47113037 37.64480591 C-13.18759026 34.77722586 -12.3671875 32.78605033 -12.3671875 29.60546875 C-13.1096875 29.02796875 -13.8521875 28.45046875 -14.6171875 27.85546875 C-18.79385034 24.43819915 -20.99147429 21.21648583 -21.75390625 15.91796875 C-21.93481908 11.32652589 -21.69505892 8.28549835 -19.6796875 4.10546875 C-13.79591043 -2.25537133 -7.96362925 -3.298162 0 0 Z " fill="#FB83A8" transform="translate(289.3671875,220.39453125)"/>
<path d="M0 0 C2.89453125 1.3125 2.89453125 1.3125 5.8125 3 C6.78832031 3.556875 7.76414062 4.11375 8.76953125 4.6875 C9.87361328 5.3371875 9.87361328 5.3371875 11 6 C11.34615998 11.65394631 10.43425238 15.03006806 8 20 C8.53367187 19.62488281 9.06734375 19.24976563 9.6171875 18.86328125 C19.92873802 11.78078029 29.21669348 6.75115594 42 8 C52.45263054 10.33125336 62.86323534 13.79485302 69 23 C81.11152128 48.35466575 63.85910201 83.23518838 55.27748108 107.52160645 C53.19174985 113.42754027 51.19476679 119.35861277 49.25 125.3125 C47.13670315 131.74315774 44.8884452 138.1148342 42.5690918 144.47412109 C32.92333128 168.3831506 32.92333128 168.3831506 32.55078125 193.65234375 C34.75189229 197.21802498 37.84937236 198.23467775 41.625 199.8125 C42.33140625 200.12380859 43.0378125 200.43511719 43.765625 200.75585938 C45.503766 201.51923211 47.25106125 202.26170104 49 203 C49.25 205.3125 49.25 205.3125 49 208 C46.93337672 210.23804826 45.75145882 210.96688487 42.6953125 211.1015625 C33.96977724 209.48375809 23.83314172 206.17747479 17.6953125 199.48828125 C14.69104263 195.07878838 12.61765536 190.31183607 12 185 C11.92394531 184.38511719 11.84789062 183.77023437 11.76953125 183.13671875 C11.39262674 177.23867242 12.60325643 171.97198498 14.12109375 166.328125 C14.3431398 165.4956424 14.56518585 164.66315979 14.79396057 163.80545044 C17.04518972 155.54782217 19.7412979 147.46485604 22.56103516 139.3866272 C23.46934878 136.78373305 24.36844387 134.17779593 25.265625 131.57104492 C27.48761311 125.12081497 29.72417444 118.67566406 31.96124268 112.23065186 C51.00324176 68.13703915 51.00324176 68.13703915 50 23 C40.08625163 21.80351313 31.87937374 26.30187767 24.16015625 32.15234375 C21.65946887 34.34477999 19.31233552 36.61045117 17 39 C16.00806641 40.01320313 16.00806641 40.01320313 14.99609375 41.046875 C9.2924479 47.17685398 4.29604331 53.97332409 -0.47070312 60.84960938 C-1.53884743 62.35155941 -2.66288924 63.81460935 -3.82617188 65.24414062 C-11.7888212 75.74356319 -14.72519944 88.43894791 -18.5 100.875 C-19.9190698 105.47906443 -21.34815962 110.07996936 -22.78125 114.6796875 C-23.13058594 115.80227966 -23.47992188 116.92487183 -23.83984375 118.08148193 C-26.16116133 125.48296541 -28.60165347 132.83051335 -31.21875 140.1328125 C-31.52558716 141.00211395 -31.83242432 141.87141541 -32.14855957 142.76705933 C-35.71640971 152.52850342 -40.32728309 163.0723895 -50 168 C-58.06115045 169.509272 -64.36338526 167.47061076 -71.50390625 163.80078125 C-75.13350161 161.18224688 -76.70065033 158.718766 -77.46875 154.30859375 C-77.55755253 146.14986086 -75.69876649 140.22347339 -72 133 C-71.54923096 132.11103027 -71.54923096 132.11103027 -71.08935547 131.20410156 C-67.06018459 123.36520027 -62.4822417 116.08742952 -57.25 109 C-54.82212574 105.67470709 -52.40879722 102.33913427 -50 99 C-49.60607056 98.45752625 -49.21214111 97.91505249 -48.80627441 97.35614014 C-34.21275275 77.21882477 -24.45727563 58.0673918 -18 34 C-18.33 33.67 -18.66 33.34 -19 33 C-20.02738281 33.59167969 -21.05476563 34.18335938 -22.11328125 34.79296875 C-38.60064798 44.22515555 -54.72175223 53.31559247 -74.39453125 49.30859375 C-81.81589199 47.20455435 -88.47469054 44.09578732 -95 40 C-95.60714844 39.62230469 -96.21429688 39.24460938 -96.83984375 38.85546875 C-102.38436973 34.86284571 -105.73009399 27.61136633 -107 21 C-107.39000144 16.73998424 -107.6989133 13.19397689 -105.5 9.4375 C-105.005 8.963125 -104.51 8.48875 -104 8 C-102.33242014 8.32873438 -100.66595291 8.66311756 -99 9 C-98.15179688 9.14695313 -97.30359375 9.29390625 -96.4296875 9.4453125 C-93.38881819 10.25435112 -91.45288118 10.99738547 -89 13 C-87.68162309 16.77495256 -87.09715599 20.3976447 -86.53515625 24.33984375 C-85.83029016 29.16071619 -85.42288806 31.49362686 -82 35 C-69.33284984 38.71517041 -57.14770213 33.1334854 -46.1328125 27.2890625 C-33.30936893 20.27746641 -21.47901675 11.93930614 -9.73901367 3.26171875 C-6.17952561 0.67917849 -4.41495273 -0.51561492 0 0 Z M-52 136 C-51 138 -51 138 -51 138 Z M-53 138 C-52 140 -52 140 -52 140 Z M-54 140 C-55.62507196 142.8331162 -55.62507196 142.8331162 -57 146 C-56.67 146.99 -56.34 147.98 -56 149 C-54.37492804 146.1668838 -54.37492804 146.1668838 -53 143 C-53.33 142.01 -53.66 141.02 -54 140 Z " fill="#FA83A7" transform="translate(120,170)"/>
<path d="M0 0 C3.03080878 6.43865597 3.22233608 9.85728088 0.875 16.5 C0.648125 17.20769531 0.42125 17.91539062 0.1875 18.64453125 C-1.16718214 22.80751513 -2.7069679 26.89571013 -4.25732422 30.98876953 C-5.2573691 33.69697785 -6.15917004 36.4330571 -7.0625 39.17480469 C-9.06591825 45.21218906 -11.13135762 51.22879218 -13.18847656 57.24804688 C-13.7305872 58.83588959 -14.27159867 60.42410799 -14.81152344 62.01269531 C-15.60089638 64.33488697 -16.39383197 66.6558358 -17.1875 68.9765625 C-17.42509033 69.67778229 -17.66268066 70.37900208 -17.9074707 71.10147095 C-19.01732434 74.3352929 -20.19846597 77.461785 -21.55029297 80.60717773 C-23.88446933 86.06996804 -25.44610883 91.74587442 -27.125 97.4375 C-27.48464844 98.62666016 -27.84429687 99.81582031 -28.21484375 101.04101562 C-29.99463727 107.04365258 -31.48915409 112.75374772 -32 119 C-31.34 119.33 -30.68 119.66 -30 120 C-30 122.97 -30 125.94 -30 129 C-29.34 129 -28.68 129 -28 129 C-27.67 129.99 -27.34 130.98 -27 132 C-27.99 132.33 -28.98 132.66 -30 133 C-30.33 133.99 -30.66 134.98 -31 136 C-31.99 135.01 -32.98 134.02 -34 133 C-33.525625 133.78375 -33.05125 134.5675 -32.5625 135.375 C-31.66101977 136.88948678 -30.78820515 138.4235897 -30 140 C-34.88390235 137.94252624 -36.68614192 134.61136381 -39 130 C-40.03343959 127.3501549 -40.61067835 124.81469033 -41 122 C-41.09539062 121.32066406 -41.19078125 120.64132812 -41.2890625 119.94140625 C-41.67088341 114.14375715 -40.36039805 108.88795446 -38.875 103.33984375 C-38.65323593 102.5065152 -38.43147186 101.67318665 -38.20298767 100.81460571 C-35.72236332 91.69555589 -32.67586261 82.79343352 -29.5625 73.875 C-28.95457365 72.11606259 -28.34741304 70.35686037 -27.7409668 68.59741211 C-26.47813201 64.93579102 -25.21203823 61.27532287 -23.94335938 57.61572266 C-21.01674589 49.16731176 -18.12224304 40.70791903 -15.23092651 32.24737549 C-14.33320172 29.62301822 -13.43256376 26.99967525 -12.53149414 24.37646484 C-11.97508089 22.75239587 -11.41899758 21.12821382 -10.86328125 19.50390625 C-10.60269424 18.74358093 -10.34210724 17.98325562 -10.07362366 17.19989014 C-8.43534122 12.38460548 -6.93170345 7.55142094 -5.62963867 2.63256836 C-4.51178944 -0.2658643 -2.94262572 0 0 0 Z " fill="#F983A7" transform="translate(173,233)"/>
<path d="M0 0 C6.06942459 0.42592453 10.08937486 1.29197693 15 5 C16.53714038 9.95781897 15.49687423 13.66519544 13.75 18.375 C13.53214844 18.99632812 13.31429688 19.61765625 13.08984375 20.2578125 C12.18304652 22.82441986 11.23848036 25.37500328 10.26806641 27.91821289 C8.28456128 33.12019897 6.54331369 38.37656169 4.875 43.6875 C4.61074219 44.51572266 4.34648437 45.34394531 4.07421875 46.19726562 C2.00079031 52.77013903 0.87252974 58.36068263 0.9375 65.3125 C0.94652344 66.56675781 0.95554687 67.82101562 0.96484375 69.11328125 C0.97644531 70.06589844 0.98804688 71.01851563 1 72 C1.99 72 2.98 72 4 72 C4 72.99 4 73.98 4 75 C2.125 76.0625 2.125 76.0625 0 77 C-0.66 76.67 -1.32 76.34 -2 76 C-2 76.99 -2 77.98 -2 79 C-5.69288113 78.74821265 -7.51827145 78.45496586 -10.25 75.875 C-15.61907159 67.0543824 -14.33365659 58.14481982 -12.0612793 48.57714844 C-9.90004914 39.96149542 -6.968846 31.57394697 -4.08618164 23.1784668 C-3.70324951 22.0625415 -3.32031738 20.94661621 -2.92578125 19.796875 C-2.40624878 18.30172363 -2.40624878 18.30172363 -1.8762207 16.77636719 C-1.06074293 14.19246827 -0.47336224 11.66544034 0 9 C-1.32 8.34 -2.64 7.68 -4 7 C-3.67 5.68 -3.34 4.36 -3 3 C-2.34 3 -1.68 3 -1 3 C-0.67 2.01 -0.34 1.02 0 0 Z " fill="#FA83A7" transform="translate(308,254)"/>
<path d="M0 0 C5.53745142 2.31800292 9.24822237 5.3858427 11.86230469 10.77905273 C21.91799406 36.41448828 5.83516501 69.30293127 -2.72251892 93.52160645 C-4.80825015 99.42754027 -6.80523321 105.35861277 -8.75 111.3125 C-10.86329685 117.74315774 -13.1115548 124.1148342 -15.4309082 130.47412109 C-26.18672996 156.66525628 -26.18672996 156.66525628 -24 184 C-27.44180022 183.06978372 -28.73300177 182.43643941 -30.625 179.34375 C-36.20004308 165.78625886 -29.62924574 151.43475946 -24.93945312 138.61230469 C-23.8500401 135.58301171 -22.90160609 132.52754997 -22 129.4375 C-20.32126927 123.88032243 -18.42256219 118.41370134 -16.5 112.9375 C-4.22429682 78.28723936 -4.22429682 78.28723936 6 43 C6.26296875 41.97519531 6.5259375 40.95039063 6.796875 39.89453125 C9.08489647 29.42837898 9.85934204 16.71868407 5 7 C4.505 5.515 4.505 5.515 4 4 C1.99983534 2.79117904 1.99983534 2.79117904 0 2 C0 1.34 0 0.68 0 0 Z " fill="#FBBFD3" transform="translate(178,184)"/>
<path d="M0 0 C1.16015625 -0.03867188 1.16015625 -0.03867188 2.34375 -0.078125 C4.98830838 0.3243078 5.83240802 1.21895849 7.5 3.25 C6.83355469 3.32476562 6.16710937 3.39953125 5.48046875 3.4765625 C-12.40423728 6.02794714 -24.66875831 18.87735112 -35.16015625 32.73046875 C-37.46732458 35.82752481 -39.77035357 38.92548811 -41.97070312 42.09960938 C-43.03884743 43.60155941 -44.16288924 45.06460935 -45.32617188 46.49414062 C-53.2888212 56.99356319 -56.22519944 69.68894791 -60 82.125 C-61.4190698 86.72906443 -62.84815962 91.32996936 -64.28125 95.9296875 C-64.63058594 97.05227966 -64.97992188 98.17487183 -65.33984375 99.33148193 C-67.66116133 106.73296541 -70.10165347 114.08051335 -72.71875 121.3828125 C-73.02558716 122.25211395 -73.33242432 123.12141541 -73.64855957 124.01705933 C-76.96437773 133.08895763 -81.17705136 141.93409569 -88.8125 148.125 C-92.62469318 149.7208018 -95.3764748 149.58799387 -99.5 149.25 C-100.16 148.59 -100.82 147.93 -101.5 147.25 C-99.6746875 146.6621875 -99.6746875 146.6621875 -97.8125 146.0625 C-89.43195121 142.83694607 -86.3452424 135.89615925 -82.5 128.25 C-80.8982301 124.59048666 -79.49124764 120.87806961 -78.125 117.125 C-77.7434375 116.09221924 -77.361875 115.05943848 -76.96875 113.99536133 C-72.36005394 101.36245998 -68.38408773 88.52019137 -64.39013672 75.68261719 C-63.25560089 72.05384573 -62.09826758 68.43295391 -60.9375 64.8125 C-60.59783203 63.70543701 -60.25816406 62.59837402 -59.90820312 61.45776367 C-57.51390999 54.06126914 -54.24710939 48.38095049 -49.5 42.25 C-48.78972656 41.2496875 -48.07945313 40.249375 -47.34765625 39.21875 C-43.46412518 33.84808997 -39.47483945 28.59241871 -35.2890625 23.453125 C-33.88654963 21.72601308 -32.5282006 19.96302242 -31.1875 18.1875 C-23.31404964 9.58163565 -12.24432673 0.24488653 0 0 Z " fill="#FABFD3" transform="translate(161.5,188.75)"/>
<path d="M0 0 C3.0992856 2.24698206 4.72865856 3.60517043 5.47265625 7.4296875 C5.7939114 17.29082388 2.58140989 24.89803328 -4.0234375 32.11328125 C-5.26953956 34.00340972 -5.26953956 34.00340972 -4.40234375 36.2578125 C-3.93957031 37.16273438 -3.47679687 38.06765625 -3 39 C-2.41605469 40.17691406 -1.83210938 41.35382813 -1.23046875 42.56640625 C-0.55006858 43.89873867 0.13094689 45.230757 0.8125 46.5625 C7.96347789 60.71334445 13.60857471 72.46378731 8.9140625 88.32421875 C5.05812632 99.61189517 -1.4145269 106.78617405 -12.125 112.04296875 C-18.48950098 114.53495167 -25.24712431 114.72018203 -32 114 C-32.99 113.34 -33.98 112.68 -35 112 C-34.42894531 111.98582031 -33.85789062 111.97164063 -33.26953125 111.95703125 C-21.9278553 111.28987384 -12.26429322 107.4362007 -4.09765625 99.46875 C3.8019758 90.1716039 4.73877055 79.80664782 4 68 C2.69131353 59.75971149 -0.88681122 53.15426821 -5 46 C-5.95302135 44.1956129 -6.89138067 42.38337937 -7.8125 40.5625 C-8.21082031 39.78003906 -8.60914063 38.99757813 -9.01953125 38.19140625 C-10.77033781 34.27824897 -10.77033781 34.27824897 -11 32 C-9.92578125 30.24609375 -9.92578125 30.24609375 -8.3125 28.4375 C-2.21143395 20.74361485 -0.49579419 13.03438155 -0.95703125 3.3359375 C-0.97121094 2.56507813 -0.98539062 1.79421875 -1 1 C-0.67 0.67 -0.34 0.34 0 0 Z " fill="#FAC0D3" transform="translate(489,224)"/>
<path d="M0 0 C4.875 1.875 4.875 1.875 6 3 C5.58363566 9.37194977 3.86926721 14.76266281 1.61328125 20.703125 C1.27378952 21.62099792 0.93429779 22.53887085 0.58451843 23.48455811 C-0.49806628 26.40945512 -1.59166907 29.33004247 -2.6875 32.25 C-6.86257341 43.4024251 -10.99743817 54.54087386 -14.46484375 65.9375 C-14.71167404 66.73859192 -14.95850433 67.53968384 -15.21281433 68.36505127 C-17.14403409 74.89126903 -17.97508638 81.17366725 -18 88 C-19.65 88 -21.3 88 -23 88 C-25.41496741 75.26653546 -20.57735567 62.91061069 -16.5 50.9375 C-16.06778227 49.64911834 -15.63565534 48.36070621 -15.20361328 47.07226562 C-12.90347624 40.26744462 -10.47622825 33.52101189 -7.8984375 26.81640625 C-7.64471375 26.15583725 -7.39098999 25.49526825 -7.12957764 24.81468201 C-5.90605201 21.64074811 -4.66556583 18.47540635 -3.40429688 15.31616211 C-2.95892578 14.18057861 -2.51355469 13.04499512 -2.0546875 11.875 C-1.65749512 10.88242188 -1.26030273 9.88984375 -0.85107422 8.8671875 C0.06658422 5.77568414 0.15643258 3.20716528 0 0 Z " fill="#FABED2" transform="translate(416,237)"/>
<path d="M0 0 C4.875 1.875 4.875 1.875 6 3 C5.59951771 9.54509131 3.73838397 15.02505396 1.359375 21.09765625 C0.99531555 22.04958359 0.6312561 23.00151093 0.25616455 23.98228455 C-0.90415555 27.01233113 -2.07636951 30.03758699 -3.25 33.0625 C-4.78059339 37.03081204 -6.30612176 41.00104199 -7.828125 44.97265625 C-8.37756775 46.40528305 -8.37756775 46.40528305 -8.93811035 47.86685181 C-15.64010227 64.35995666 -15.64010227 64.35995666 -18.0625 81.75 C-18.04896484 83.50570312 -18.04896484 83.50570312 -18.03515625 85.296875 C-18.02355469 86.18890625 -18.01195312 87.0809375 -18 88 C-18.99 88 -19.98 88 -21 88 C-24.85760455 80.60625795 -25.04246031 73.76518573 -22.609375 65.78125 C-22.00508028 64.01545374 -21.38510071 62.25495175 -20.75 60.5 C-20.44964844 59.62730469 -20.14929688 58.75460937 -19.83984375 57.85546875 C-18.04891752 52.71131895 -16.083865 47.65113865 -14.04003906 42.60302734 C-12.11536401 37.78591809 -10.3148799 32.92179448 -8.5 28.0625 C-8.12230469 27.05509766 -7.74460938 26.04769531 -7.35546875 25.00976562 C-6.60331681 23.00015005 -5.85456426 20.98925858 -5.109375 18.97705078 C-4.3616977 16.97062978 -3.60097793 14.96902673 -2.828125 12.97216797 C-2.46203125 12.01068848 -2.0959375 11.04920898 -1.71875 10.05859375 C-1.38810547 9.20450928 -1.05746094 8.3504248 -0.71679688 7.47045898 C0.04028291 4.86116391 0.1329153 2.70210772 0 0 Z " fill="#FAC0D3" transform="translate(209,237)"/>
<path d="M0 0 C0.99 0.66 1.98 1.32 3 2 C2.48931302 8.61993999 1.16039547 14.16570824 -1.16796875 20.36328125 C-1.64391228 21.67138008 -1.64391228 21.67138008 -2.12947083 23.00590515 C-3.13940534 25.77832379 -4.16233094 28.54568236 -5.1875 31.3125 C-9.16303809 42.09497738 -13.07912603 52.86642944 -16.40234375 63.87109375 C-16.6468779 64.67621902 -16.89141205 65.4813443 -17.14335632 66.31086731 C-19.05969142 72.80503096 -20.28643348 79.25802667 -21 86 C-22.98 86.495 -22.98 86.495 -25 87 C-28.68292621 79.63414758 -25.17109089 69.63166167 -22.875 62.3125 C-22.55515137 61.25724121 -22.23530273 60.20198242 -21.90576172 59.11474609 C-19.74808703 52.10417728 -17.34644968 45.24429353 -14.671875 38.4140625 C-11.96094648 31.40802764 -9.63346437 24.25470007 -7.24658203 17.13330078 C-5.21183899 11.15392472 -2.98678355 5.56812137 0 0 Z " fill="#FBBED2" transform="translate(257,238)"/>
<path d="M0 0 C1.32 0.33 2.64 0.66 4 1 C4.42937938 7.1510014 2.96693987 11.6880255 0.74609375 17.38671875 C0.40755875 18.28381058 0.06902374 19.1809024 -0.2797699 20.10517883 C-1.3632338 22.97018451 -2.46216052 25.82893843 -3.5625 28.6875 C-6.39431221 36.11770639 -9.21070737 43.55372352 -12 51 C-12.34529755 51.91996765 -12.69059509 52.8399353 -13.0463562 53.78778076 C-14.04529021 56.46938444 -15.02548802 59.15709428 -16 61.84765625 C-16.44642601 63.03919563 -16.44642601 63.03919563 -16.90187073 64.25480652 C-19.51343723 71.57331976 -19.73577636 78.29186673 -19 86 C-20.32 86 -21.64 86 -23 86 C-26.48785268 79.99863405 -26.02145132 73.09391205 -24.38476562 66.53417969 C-21.58702376 57.02397149 -18.05743684 47.75620201 -14.109375 38.66796875 C-12.55863792 34.93855529 -11.34475116 31.12199547 -10.1015625 27.28125 C-8.14422236 21.45087511 -5.93013412 15.71508816 -3.74560547 9.96679688 C-2.48750533 6.64811492 -1.24456959 3.32377634 0 0 Z " fill="#FBBFD3" transform="translate(372,238)"/>
<path d="M0 0 C0.33 0 0.66 0 1 0 C1.97027788 15.74006345 -3.23419147 30.36095451 -7.9375 45.1875 C-8.16833282 45.91958679 -8.39916565 46.65167358 -8.63699341 47.40594482 C-12.52655067 59.71888491 -16.6645731 71.94020831 -20.9375 84.125 C-21.34958206 85.30393326 -21.34958206 85.30393326 -21.76998901 86.50668335 C-27.8866395 103.96155997 -27.8866395 103.96155997 -31 110 C-32.485 110.495 -32.485 110.495 -34 111 C-32.55251002 104.5191926 -30.94568699 98.50198681 -28.07983398 92.50683594 C-26.91629371 89.80567574 -26.06820388 87.11731256 -25.234375 84.296875 C-23.65208642 79.06568754 -21.98035436 73.87592698 -20.23046875 68.69921875 C-19.98623169 67.97587341 -19.74199463 67.25252808 -19.49035645 66.50726318 C-18.98328937 65.00604428 -18.47607464 63.50487523 -17.96871948 62.00375366 C-8.29441446 33.71082709 -8.29441446 33.71082709 -1.5078125 4.6328125 C-1 2 -1 2 0 0 Z " fill="#F881A5" transform="translate(185,209)"/>
<path d="M0 0 C4.875 1.875 4.875 1.875 6 3 C5.8233379 11.3496086 2.82557458 18.79809689 0.02282715 26.55673218 C-4.65563949 39.54079321 -8.8808488 52.31685991 -11 66 C-11.99 66 -12.98 66 -14 66 C-18.22730561 57.54538879 -13.33862756 46.42841104 -10.66699219 38.11914062 C-9.65773967 34.91258431 -8.77185415 31.67729871 -7.875 28.4375 C-6.26710585 22.78726954 -4.40576219 17.37898801 -2.1484375 11.953125 C-0.47402683 7.79057137 0.34309993 4.57466579 0 0 Z " fill="#FBBED2" transform="translate(323,259)"/>
<path d="M0 0 C-0.44829514 1.98146451 -0.90892498 3.96014211 -1.375 5.9375 C-1.75785156 7.59072266 -1.75785156 7.59072266 -2.1484375 9.27734375 C-2.42945313 10.17582031 -2.71046875 11.07429687 -3 12 C-3.66 12.33 -4.32 12.66 -5 13 C-5 11.68 -5 10.36 -5 9 C-5.76441406 9.49628906 -6.52882812 9.99257812 -7.31640625 10.50390625 C-22.93538557 20.40908327 -38.9148731 28.8720443 -58 27 C-60.41015625 25.98046875 -60.41015625 25.98046875 -62 25 C-60.18628906 24.76216797 -60.18628906 24.76216797 -58.3359375 24.51953125 C-37.33965035 21.6046968 -20.72023364 13.78658902 -3.78515625 1.1796875 C-2 0 -2 0 0 0 Z " fill="#FBBDD2" transform="translate(107,193)"/>
<path d="M0 0 C2.31 0 4.62 0 7 0 C-5.52171721 26.80430091 -5.52171721 26.80430091 -18.35546875 33.16796875 C-21.39651631 34.12475328 -23.94087974 34.2659605 -27.125 34.25 C-28.67574219 34.25773437 -28.67574219 34.25773437 -30.2578125 34.265625 C-33 34 -33 34 -36 32 C-35.43152344 31.96261719 -34.86304688 31.92523438 -34.27734375 31.88671875 C-26.11249675 31.19154814 -19.93946249 28.81052788 -14 23 C-12.12075782 20.66609699 -10.49115181 18.20859486 -8.875 15.6875 C-8.45863281 15.06166016 -8.04226563 14.43582031 -7.61328125 13.79101562 C-4.70674111 9.34920272 -2.30319388 4.7815154 0 0 Z " fill="#F9C1D3" transform="translate(269,304)"/>
<path d="M0 0 C-0.33 0.99 -0.66 1.98 -1 3 C-2.71500841 3.72558048 -4.43165188 4.44780934 -6.16015625 5.140625 C-11.56124854 7.66342819 -14.12069499 12.38627956 -16.2734375 17.671875 C-18.33544256 24.27916002 -16.75810294 29.87239199 -14 36 C-13.649375 36.804375 -13.29875 37.60875 -12.9375 38.4375 C-12.07989219 40.18375203 -12.07989219 40.18375203 -10 41 C-13.99086687 40.40876046 -16.22674971 38.91191281 -19 36 C-22.88859619 28.72416751 -23.87487584 22.02300765 -22 14 C-20.23826189 8.44010608 -17.6048678 5.14417273 -12.78125 1.91015625 C-8.5937078 -0.22953088 -4.64587743 -0.0893438 0 0 Z " fill="#FD95B6" transform="translate(456,283)"/>
<path d="M0 0 C0.7734375 0.7115625 0.7734375 0.7115625 1.5625 1.4375 C3.96251032 3.22559892 3.96251032 3.22559892 7.125 3.375 C12.32501468 4.21371204 16.41087088 6.49767808 21 9 C21.25 11.3125 21.25 11.3125 21 14 C19.32421875 15.84765625 19.32421875 15.84765625 17 17 C9.91393991 16.98884085 3.22261119 14.16508125 -3 11 C-3 10.34 -3 9.68 -3 9 C-1.35 8.67 0.3 8.34 2 8 C1.34 7.67 0.68 7.34 0 7 C0.33 6.01 0.66 5.02 1 4 C0.61067144 1.85744207 0.61067144 1.85744207 0 0 Z " fill="#F58AAA" transform="translate(148,364)"/>
<path d="M0 0 C1 2 1 2 0.109375 5.15234375 C-0.33569421 6.41692663 -0.78919676 7.67856519 -1.25 8.9375 C-1.46785156 9.57107422 -1.68570313 10.20464844 -1.91015625 10.85742188 C-3.14914433 14.30267821 -4.34689981 16.52519955 -7 19 C-8.11065147 21.25205916 -8.11065147 21.25205916 -9 23.75 C-9.33773437 24.63042969 -9.67546875 25.51085937 -10.0234375 26.41796875 C-10.34570312 27.27003906 -10.66796875 28.12210937 -11 29 C-13.67633929 35.83816964 -13.67633929 35.83816964 -16 37 C-16.72159424 38.64363134 -17.39351421 40.31050386 -18 42 C-18.99 42 -19.98 42 -21 42 C-20.74052887 26.95067437 -9.32031496 11.29798902 0 0 Z " fill="#FCB7CC" transform="translate(77,283)"/>
<path d="M0 0 C0.99 0.33 1.98 0.66 3 1 C2.44284548 6.01439071 0.78193998 10.06008534 -1.5 14.5 C-2.02750854 15.53906494 -2.02750854 15.53906494 -2.56567383 16.59912109 C-15.6813737 41.9190273 -15.6813737 41.9190273 -24 45 C-23.64248197 40.94812895 -22.26588028 38.98374639 -19.6015625 36.0078125 C-11.46021305 25.81186834 -11.46021305 25.81186834 -8.0625 13.875 C-8.041875 12.92625 -8.02125 11.9775 -8 11 C-7.01 10.34 -6.02 9.68 -5 9 C-3.56316152 6.82404859 -3.56316152 6.82404859 -2.3125 4.375 C-1.87550781 3.55773437 -1.43851562 2.74046875 -0.98828125 1.8984375 C-0.66214844 1.27195312 -0.33601563 0.64546875 0 0 Z " fill="#F881A5" transform="translate(273,287)"/>
<path d="M0 0 C0.33 0.99 0.66 1.98 1 3 C1.99 3.33 2.98 3.66 4 4 C3.58784507 8.5337042 2.56595383 12.24185216 0.9375 16.5 C-1.60693839 23.73833015 -1.37300291 30.41560751 -1 38 C-2.32 38 -3.64 38 -5 38 C-8.52738738 31.93060876 -8.03332615 24.94911873 -6.30419922 18.34082031 C-4.42273291 12.15087001 -2.26212126 6.06011283 0 0 Z " fill="#FE8FB2" transform="translate(354,286)"/>
<path d="M0 0 C1.65 0.33 3.3 0.66 5 1 C4.43320781 5.32779458 3.37661749 8.81675039 1.53125 12.765625 C1.04269531 13.82007813 0.55414063 14.87453125 0.05078125 15.9609375 C-0.46097656 17.04632813 -0.97273438 18.13171875 -1.5 19.25 C-2.01175781 20.35085938 -2.52351563 21.45171875 -3.05078125 22.5859375 C-6.54045759 30.08091518 -6.54045759 30.08091518 -8 33 C-8.99 32.67 -9.98 32.34 -11 32 C-12.20610891 27.14701739 -11.86885938 24.83866637 -9.4375 20.5 C-6.92822567 15.82228954 -4.68233922 11.13719466 -2.625 6.25 C-2.12226563 5.05890625 -1.61953125 3.8678125 -1.1015625 2.640625 C-0.73804688 1.76921875 -0.37453125 0.8978125 0 0 Z " fill="#FBBDD2" transform="translate(290,258)"/>
<path d="M0 0 C0.33 0 0.66 0 1 0 C1.39584428 6.23454734 0.78422679 11.74729257 -0.6875 17.8046875 C-0.86488708 18.54443314 -1.04227417 19.28417877 -1.22503662 20.04634094 C-3.22636394 28.20004231 -5.69542962 36.19314392 -8.25 44.1875 C-8.60733719 45.31664322 -8.60733719 45.31664322 -8.97189331 46.46859741 C-12.75925468 58.43436982 -16.813845 70.27895452 -21.27001953 82.01416016 C-21.92919711 83.80738773 -22.51422266 85.62745021 -23.08984375 87.44921875 C-24 90 -24 90 -26 92 C-25.30013558 86.29705077 -23.47739081 81.09540953 -21.625 75.6875 C-21.32078125 74.78837891 -21.0165625 73.88925781 -20.703125 72.96289062 C-20.09603208 71.16885321 -19.4872391 69.37539015 -18.87670898 67.58251953 C-17.80945048 64.43869873 -16.76190764 61.28852964 -15.71484375 58.13793945 C-15.02094699 56.0626478 -14.31513576 53.99182019 -13.60546875 51.921875 C-7.78273316 34.86099495 -2.66809855 17.8575368 0 0 Z " fill="#FE90B3" transform="translate(182,210)"/>
<path d="M0 0 C1.5625 1.1875 1.5625 1.1875 3 3 C3 6.93148274 1.30830068 9.57102347 -1.30859375 12.44140625 C-7.11086656 17.78807334 -12.13736423 20.375 -20.125 20.375 C-22.08501488 20.27994154 -24.04467269 20.16549792 -26 20 C-25.67 19.34 -25.34 18.68 -25 18 C-23.06068165 17.53188867 -21.12107855 17.06490827 -19.1796875 16.60546875 C-10.42644659 14.17401294 -4.87667642 7.31501463 0 0 Z " fill="#FABDD1" transform="translate(423,318)"/>
<path d="M0 0 C0.99 0.33 1.98 0.66 3 1 C2.29967517 5.98096196 1.01766573 10.63927133 -0.4375 15.4375 C-0.87394008 16.89445873 -1.31014065 18.35148923 -1.74609375 19.80859375 C-1.9560498 20.50710449 -2.16600586 21.20561523 -2.38232422 21.92529297 C-3.28074887 24.94300548 -4.14187059 27.97060361 -5 31 C-5.66 31 -6.32 31 -7 31 C-10.10142615 21.69572156 -6.47179318 12.74085105 -2.3125 4.375 C-1.54971828 2.91243917 -0.78185341 1.45245495 0 0 Z " fill="#F85788" transform="translate(350,287)"/>
<path d="M0 0 C1.32 0.66 2.64 1.32 4 2 C4.55417306 8.3729902 2.96885014 13.3505376 0 19 C-2.5 21.875 -2.5 21.875 -5 24 C-6.34059929 25.32602756 -7.67511414 26.65827237 -9 28 C-7.30100312 21.34559557 -5.32354068 14.89422947 -2.91796875 8.4609375 C-1.87427896 5.66296061 -0.92123706 2.84048093 0 0 Z " fill="#F9C2D6" transform="translate(127,174)"/>
<path d="M0 0 C3.08099608 0.91597181 4.68356749 1.5805954 6.64453125 4.1796875 C9.20793971 9.51335007 9.07763893 16.54412342 7.3203125 22.1796875 C6.5 23.8125 6.5 23.8125 5 26 C3.68 25.67 2.36 25.34 1 25 C1.165 23.741875 1.33 22.48375 1.5 21.1875 C2.70213486 10.35104219 2.70213486 10.35104219 0 0 Z " fill="#FBB6CE" transform="translate(294,224)"/>
<path d="M0 0 C0.66 0 1.32 0 2 0 C2.33 1.98 2.66 3.96 3 6 C-3.84646255 11.50693727 -10.56775314 14.52140848 -19.5 13.8125 C-23.68402154 13.31597846 -23.68402154 13.31597846 -26 11 C-25.21496094 10.89042969 -24.42992187 10.78085937 -23.62109375 10.66796875 C-14.76151213 9.33087852 -8.31761195 7.40109453 -1 2 C-0.67 1.34 -0.34 0.68 0 0 Z " fill="#F9BDD1" transform="translate(379,325)"/>
<path d="M0 0 C0.33 0.66 0.66 1.32 1 2 C-0.2578125 4.390625 -0.2578125 4.390625 -2.125 7.25 C-2.72570312 8.18328125 -3.32640625 9.1165625 -3.9453125 10.078125 C-6 13 -6 13 -8.359375 15.7109375 C-11.89522158 19.87678803 -14.4468718 24.633177 -17.125 29.375 C-17.64964844 30.2825 -18.17429687 31.19 -18.71484375 32.125 C-21.66452122 37.30747131 -24.08214712 42.35225393 -26 48 C-28.50088225 40.13515651 -21.51694091 30.82901148 -18 24 C-17.34 24 -16.68 24 -16 24 C-15.72800781 23.26652344 -15.45601562 22.53304688 -15.17578125 21.77734375 C-12.80834633 16.1851636 -9.12965839 11.22036487 -5.1875 6.625 C-2.84268408 4.13538448 -2.84268408 4.13538448 -2 1 C-1.34 0.67 -0.68 0.34 0 0 Z " fill="#FE8EB2" transform="translate(79,272)"/>
<path d="M0 0 C1.43160069 4.29480207 -0.26029135 7.43499064 -1.7109375 11.53515625 C-1.99852936 12.36961777 -2.28612122 13.20407928 -2.58242798 14.06382751 C-3.50484529 16.73306384 -4.43992334 19.39767552 -5.375 22.0625 C-5.99819436 23.86235392 -6.62060001 25.66248113 -7.2421875 27.46289062 C-11.78019351 40.56038701 -11.78019351 40.56038701 -13 43 C-12.01 43.33 -11.02 43.66 -10 44 C-10.66 44.99 -11.32 45.98 -12 47 C-12 46.01 -12 45.02 -12 44 C-12.66 44 -13.32 44 -14 44 C-14.309375 44.94875 -14.61875 45.8975 -14.9375 46.875 C-16 50 -16 50 -17 52 C-17.66 52 -18.32 52 -19 52 C-19.33 52.99 -19.66 53.98 -20 55 C-20.66 54.67 -21.32 54.34 -22 54 C-21.34644531 52.74509766 -21.34644531 52.74509766 -20.6796875 51.46484375 C-13.63465003 37.69499778 -8.3997505 23.55664592 -3.62719727 8.85986328 C-3.30033936 7.85681152 -2.97348145 6.85375977 -2.63671875 5.8203125 C-2.34498779 4.91555176 -2.05325684 4.01079102 -1.75268555 3.07861328 C-1 1 -1 1 0 0 Z " fill="#FE91B3" transform="translate(90,273)"/>
<path d="M0 0 C0.75 1.6875 0.75 1.6875 1 4 C-1.89557942 9.26468986 -6.50058935 11.23138954 -12 13 C-16.81234639 14.00614698 -21.21699083 14.38861556 -26 13 C-25.67 12.34 -25.34 11.68 -25 11 C-23.1796875 10.47265625 -23.1796875 10.47265625 -20.875 10.0625 C-13.78929462 8.59378575 -8.7370628 6.150876 -3.48046875 1.20703125 C-2 0 -2 0 0 0 Z " fill="#F9BFD2" transform="translate(220,325)"/>
<path d="M0 0 C1.65 0.33 3.3 0.66 5 1 C4.73445313 1.47566406 4.46890625 1.95132812 4.1953125 2.44140625 C0.51171969 9.74137302 -0.19404235 16.95102822 -1 25 C-1.99 25 -2.98 25 -4 25 C-6.3456236 17.9631292 -5.55782142 11.48960722 -2.5 4.8125 C-1.68705683 3.19790453 -0.86088009 1.58955359 0 0 Z " fill="#F85988" transform="translate(434,287)"/>
<path d="M0 0 C0.99 1.32 1.98 2.64 3 4 C-1.47567481 9.79298335 -5.11367287 13.16721561 -12.5 14.75 C-15.89941196 14.99281514 -18.68312634 14.72809422 -22 14 C-22 13.34 -22 12.68 -22 12 C-21.443125 11.91363281 -20.88625 11.82726562 -20.3125 11.73828125 C-11.76735137 10.16493463 -5.81767725 6.3630845 0 0 Z " fill="#FABFD3" transform="translate(335,324)"/>
<path d="M0 0 C3.04261908 0.3259949 3.9801219 0.97895261 6.125 3.25 C9.80057686 8.64084605 10.42092763 12.58085362 10 19 C9.34 19.66 8.68 20.32 8 21 C4.375 20.625 4.375 20.625 1 20 C1.66 19.67 2.32 19.34 3 19 C4.51115542 14.13663361 4.40589418 10.08367746 2.0625 5.5625 C1.68222656 4.92441406 1.30195313 4.28632813 0.91015625 3.62890625 C0 2 0 2 0 0 Z " fill="#FABAD0" transform="translate(468,281)"/>
<path d="M0 0 C0.99 0.33 1.98 0.66 3 1 C3.18175781 2.00160156 3.36351562 3.00320312 3.55078125 4.03515625 C3.80426549 5.37768391 4.05819568 6.72012743 4.3125 8.0625 C4.43044922 8.71927734 4.54839844 9.37605469 4.66992188 10.05273438 C5.5641786 14.7074553 7.00339539 18.69919063 9 23 C6.40478472 22.62925496 5.27596886 22.32506306 3.55078125 20.29296875 C3.14214844 19.59816406 2.73351562 18.90335938 2.3125 18.1875 C1.89613281 17.50042969 1.47976562 16.81335938 1.05078125 16.10546875 C-0.75414655 12.48890338 -1.13827708 9.32881643 -1.125 5.3125 C-1.12757812 4.52488281 -1.13015625 3.73726562 -1.1328125 2.92578125 C-1 1 -1 1 0 0 Z " fill="#F9C1D3" transform="translate(28,182)"/>
<path d="M0 0 C4 4.24242424 4 4.24242424 4 7.3125 C2.61768104 11.02748219 0.8642266 14.50565899 -1 18 C-2.98 18 -4.96 18 -7 18 C-6.20875876 15.93733676 -5.41698909 13.87487621 -4.625 11.8125 C-4.18414062 10.66394531 -3.74328125 9.51539063 -3.2890625 8.33203125 C-2.21147857 5.54664006 -1.1163557 2.77002279 0 0 Z " fill="#F99AB8" transform="translate(277,286)"/>
<path d="M0 0 C1.52478434 3.92480806 0.41125997 6.52113654 -0.94921875 10.390625 C-1.16211044 11.00845856 -1.37500214 11.62629211 -1.59434509 12.2628479 C-2.0490543 13.58114827 -2.50815473 14.8979408 -2.97125244 16.21331787 C-4.16232964 19.60019942 -5.31935245 22.99853733 -6.47265625 26.3984375 C-6.69777893 27.06114655 -6.92290161 27.72385559 -7.15484619 28.40664673 C-9.54572089 35.51108998 -11.43149303 42.67249728 -13 50 C-13.33 50 -13.66 50 -14 50 C-14.32699026 43.54194231 -13.23243866 38.4363345 -11.25 32.3125 C-10.97559082 31.4361792 -10.70118164 30.5598584 -10.41845703 29.65698242 C-9.87004607 27.90673126 -9.31757259 26.15774705 -8.76074219 24.41015625 C-8.10128802 22.32089708 -7.46687012 20.22758124 -6.8515625 18.125 C-4.99984343 11.84396893 -2.86306363 5.89364695 0 0 Z " fill="#FE90B4" transform="translate(155,302)"/>
<path d="M0 0 C0.33 0.66 0.66 1.32 1 2 C-0.65 3.65 -2.3 5.3 -4 7 C-2.79618552 4.50638429 -1.54571278 2.31856917 0 0 Z M-6 8 C-5.67 8.66 -5.34 9.32 -5 10 C-5.66 9.67 -6.32 9.34 -7 9 C-6.67 8.67 -6.34 8.34 -6 8 Z M-9 10 C-8.34 10.33 -7.68 10.66 -7 11 C-7.8125 13.9375 -7.8125 13.9375 -9 17 C-12.20773612 18.06924537 -14.62984818 18.16684956 -18 18.1875 C-19.051875 18.20167969 -20.10375 18.21585937 -21.1875 18.23046875 C-24 18 -24 18 -27 16 C-26.43152344 15.96261719 -25.86304688 15.92523438 -25.27734375 15.88671875 C-19.14834462 15.3648841 -13.52643243 14.52643243 -9 10 Z " fill="#FBBBD1" transform="translate(260,320)"/>
<path d="M0 0 C2 2 2 2 2.1953125 5.4765625 C2.18201493 6.85950968 2.15816232 8.24238654 2.125 9.625 C2.11597656 10.33140625 2.10695313 11.0378125 2.09765625 11.765625 C2.07407603 13.51056098 2.03820461 15.25532295 2 17 C0.68 17 -0.64 17 -2 17 C-4.34728069 13.33237392 -4.4430704 10.28301385 -4 6 C-2 2.5625 -2 2.5625 0 0 Z " fill="#F9B9D0" transform="translate(351,307)"/>
<path d="M0 0 C0.66 0.33 1.32 0.66 2 1 C2.86111563 3.98009128 3.47453124 6.98622944 4.12109375 10.01953125 C4.99872479 12.9956756 6.07916365 14.61901901 8 17 C8 17.66 8 18.32 8 19 C8.66 19.33 9.32 19.66 10 20 C6.07886431 19.41909101 3.81536852 17.74317959 1 15 C-1.63812797 10.25136965 -2.46919159 7.26460318 -1 2 C-0.67 1.34 -0.34 0.68 0 0 Z " fill="#F8B9CF" transform="translate(436,304)"/>
<path d="M0 0 C-0.33 0.99 -0.66 1.98 -1 3 C-2.68256208 3.72581109 -4.36883334 4.44506061 -6.078125 5.10546875 C-9.19361585 6.5555651 -11.45907134 8.70696682 -14 11 C-14.66 9.02 -15.32 7.04 -16 5 C-10.42988878 0.20351534 -7.28527473 -0.14010144 0 0 Z " fill="#F8BACF" transform="translate(456,283)"/>
<path d="M0 0 C0.66 0 1.32 0 2 0 C2 1.65 2 3.3 2 5 C2.33 5 2.66 5 3 5 C3.33 7.97 3.66 10.94 4 14 C4.33 14 4.66 14 5 14 C5 15.65 5 17.3 5 19 C4.01 19 3.02 19 2 19 C-0.99005592 13.26905949 -1.61258141 8.44388517 -1 2 C-0.67 1.34 -0.34 0.68 0 0 Z " fill="#FDB8CF" transform="translate(186,306)"/>
<path d="M0 0 C0.99 0.33 1.98 0.66 3 1 C2.48474397 6.28137429 0.74522883 9.57221156 -2 14 C-3.32 14 -4.64 14 -6 14 C-4.45941767 8.98491285 -2.97068161 4.3852919 0 0 Z " fill="#F75887" transform="translate(273,287)"/>
<path d="M0 0 C0.33 0.99 0.66 1.98 1 3 C1.99 3.33 2.98 3.66 4 4 C3.42934122 10.41991126 1.32655091 16.01589463 -1 22 C-1.66 21.67 -2.32 21.34 -3 21 C-2.91231752 19.4156683 -2.80412671 17.83246433 -2.6875 16.25 C-2.60048828 14.92742187 -2.60048828 14.92742187 -2.51171875 13.578125 C-1.9358819 10.67696226 -0.92403852 9.20774393 1 7 C0.67 6.67 0.34 6.34 0 6 C-0.04080783 4.00041636 -0.04254356 1.99954746 0 0 Z " fill="#F7A2BC" transform="translate(354,286)"/>
<path d="M0 0 C2.30055997 3.45083995 2.27010256 4.87175728 2.25 8.9375 C2.25515625 9.97777344 2.2603125 11.01804688 2.265625 12.08984375 C2.00228797 14.97493322 1.35981717 16.50160575 0 19 C0 19.99 0 20.98 0 22 C-1.62449243 23.70779973 -3.29220027 25.37550757 -5 27 C-5.33 27.66 -5.66 28.32 -6 29 C-6.66 28.67 -7.32 28.34 -8 28 C-7.401875 27.01 -6.80375 26.02 -6.1875 25 C-2.02460824 17.57790473 -0.66868475 12.05736296 -0.9921875 3.44140625 C-0.99476563 2.63574219 -0.99734375 1.83007812 -1 1 C-0.67 0.67 -0.34 0.34 0 0 Z " fill="#FDB8D0" transform="translate(489,224)"/>
<path d="M0 0 C1.65 0.33 3.3 0.66 5 1 C5.25 3.3125 5.25 3.3125 5 6 C3.4375 7.875 3.4375 7.875 1 9 C-2.75 8.6875 -2.75 8.6875 -6 8 C-5 6 -5 6 -3 5.125 C-0.79994195 4.1765144 -0.79994195 4.1765144 -0.25 1.875 C-0.1675 1.25625 -0.085 0.6375 0 0 Z " fill="#FABBCF" transform="translate(164,372)"/>
<path d="M0 0 C0.66 0 1.32 0 2 0 C1.979375 1.2375 1.95875 2.475 1.9375 3.75 C1.93233319 6.6640825 2.06984442 9.20953327 3 12 C1.576875 12.8353125 1.576875 12.8353125 0.125 13.6875 C-3.08878787 16.06570302 -3.95565118 17.24034426 -5 21 C-5.66 21 -6.32 21 -7 21 C-5.49589799 15.94074779 -3.3187071 11.3224187 -1.0234375 6.5859375 C0.2453319 3.84363164 0.2453319 3.84363164 0 0 Z " fill="#F08AA8" transform="translate(277,249)"/>
<path d="M0 0 C1.6168484 3.23369679 0.00851816 6.30628257 -0.9375 9.625 C-1.13279297 10.33140625 -1.32808594 11.0378125 -1.52929688 11.765625 C-2.01314492 13.51219844 -2.50575123 15.25634124 -3 17 C-3.66 17 -4.32 17 -5 17 C-6.28317892 13.15046324 -6.06643637 10.05261865 -6 6 C-5.34 6.66 -4.68 7.32 -4 8 C-2.68 5.36 -1.36 2.72 0 0 Z " fill="#FB6A96" transform="translate(348,301)"/>
<path d="M0 0 C3.49838358 1.40129968 6.74881955 3.09951873 10 5 C9.34 5.66 8.68 6.32 8 7 C8 6.34 8 5.68 8 5 C7.46375 4.87625 6.9275 4.7525 6.375 4.625 C4 4 4 4 0.9375 2.875 C-2.02048666 1.68799831 -2.02048666 1.68799831 -5 3 C-7.6875 2.5625 -7.6875 2.5625 -10 2 C-10 2.66 -10 3.32 -10 4 C-10.99 3.67 -11.98 3.34 -13 3 C-9.26851461 -0.89372389 -5.04117985 -0.87266174 0 0 Z " fill="#EF8DAC" transform="translate(479,219)"/>
<path d="M0 0 C0.99 0.33 1.98 0.66 3 1 C4.28317892 4.84953676 4.06643637 7.94738135 4 12 C2.68 12 1.36 12 0 12 C0 8 0 4 0 0 Z " fill="#F9C3D3" transform="translate(298,227)"/>
<path d="M0 0 C0.33 1.32 0.66 2.64 1 4 C0.01 4.495 0.01 4.495 -1 5 C-1.33 5.99 -1.66 6.98 -2 8 C-6.33333333 12.66666667 -6.33333333 12.66666667 -9 14 C-8.01 10.37 -7.02 6.74 -6 3 C-5.67 3.66 -5.34 4.32 -5 5 C-4.34 5 -3.68 5 -3 5 C-2.690625 4.360625 -2.38125 3.72125 -2.0625 3.0625 C-1 1 -1 1 0 0 Z " fill="#FCB2CA" transform="translate(127,188)"/>
<path d="M0 0 C0.33 0.66 0.66 1.32 1 2 C0.67 2.99 0.34 3.98 0 5 C0.33 5.99 0.66 6.98 1 8 C-1 10 -1 10 -2.9375 10.4375 C-5.37972594 11.10356162 -6.36177677 12.11604329 -8 14 C-6.6744419 10.37723685 -5.05653045 7.36494652 -2.875 4.1875 C-2.33617187 3.39730469 -1.79734375 2.60710937 -1.2421875 1.79296875 C-0.83226562 1.20128906 -0.42234375 0.60960937 0 0 Z " fill="#EF87A5" transform="translate(61,282)"/>
<path d="M0 0 C0 4.38968456 -2.12805101 5.76905739 -5 9 C-4.01 9.33 -3.02 9.66 -2 10 C-3.175625 10.61875 -3.175625 10.61875 -4.375 11.25 C-7.05891656 13.0392777 -7.88098949 14.04988139 -9 17 C-9.66 17 -10.32 17 -11 17 C-8.95846992 9.85464472 -5.36437126 5.06635064 0 0 Z " fill="#EB88A6" transform="translate(432,276)"/>
<path d="M0 0 C0.33 0.99 0.66 1.98 1 3 C-1.56565781 6.74980757 -4.75396188 9.83719363 -8 13 C-8.8971875 13.8971875 -8.8971875 13.8971875 -9.8125 14.8125 C-10.204375 15.204375 -10.59625 15.59625 -11 16 C-10.38821244 12.34603593 -8.8335544 10.13957441 -6.5625 7.25 C-5.94503906 6.45078125 -5.32757813 5.6515625 -4.69140625 4.828125 C-4.13324219 4.22484375 -3.57507813 3.6215625 -3 3 C-2.34 3 -1.68 3 -1 3 C-0.67 2.01 -0.34 1.02 0 0 Z " fill="#FE8DB0" transform="translate(130,200)"/>
<path d="M0 0 C2.89108131 1.29600197 4.97730586 2.54298066 7 5 C7.37231445 6.9453125 7.37231445 6.9453125 7.36328125 9.125 C7.36263672 9.91390625 7.36199219 10.7028125 7.36132812 11.515625 C7.34521484 12.33546875 7.32910156 13.1553125 7.3125 14 C7.31572266 14.81984375 7.31894531 15.6396875 7.32226562 16.484375 C7.26731366 22.5990295 7.26731366 22.5990295 5 26 C5.03480469 25.01 5.06960937 24.02 5.10546875 23 C5.32117265 14.21618152 5.02989963 7.54484944 0 0 Z " fill="#EC89A7" transform="translate(168,190)"/>
<path d="M0 0 C0.6328125 1.84375 0.6328125 1.84375 1 4 C-1.125 6.5 -1.125 6.5 -4 9 C-4.825 9.763125 -5.65 10.52625 -6.5 11.3125 C-9.30576055 13.20638837 -10.68862827 13.37844248 -14 13 C-13.67 12.01 -13.34 11.02 -13 10 C-13 10.66 -13 11.32 -13 12 C-7.59160025 8.83410746 -3.95825209 4.82485166 0 0 Z " fill="#E98CA7" transform="translate(326,312)"/>
<path d="M0 0 C0.96661363 3.12180401 0.98988909 5.52083795 0.5625 8.75 C0.46066406 9.54921875 0.35882813 10.3484375 0.25390625 11.171875 C0.12822266 12.07679688 0.12822266 12.07679688 0 13 C-0.99 13 -1.98 13 -3 13 C-3.85637238 10.07406105 -4.38673104 7.91825712 -3.17578125 5.04296875 C-2.17852152 3.32488268 -1.09427085 1.65798613 0 0 Z " fill="#F96A96" transform="translate(433,299)"/>
<path d="M0 0 C0.66 0.33 1.32 0.66 2 1 C1.34 1.66 0.68 2.32 0 3 C0.33 3.66 0.66 4.32 1 5 C-3.33273814 5.92844389 -6.66726186 5.92844389 -11 5 C-11 4.34 -11 3.68 -11 3 C-10.37351562 2.86722656 -9.74703125 2.73445313 -9.1015625 2.59765625 C-8.28429687 2.42105469 -7.46703125 2.24445313 -6.625 2.0625 C-5.81289063 1.88847656 -5.00078125 1.71445312 -4.1640625 1.53515625 C-1.970537 1.07669307 -1.970537 1.07669307 0 0 Z " fill="#F7B9CF" transform="translate(324,333)"/>
<path d="M0 0 C2 3 2 3 1.71484375 4.97265625 C-0.40320369 10.66690438 -0.40320369 10.66690438 -3.6875 12.5 C-4.450625 12.665 -5.21375 12.83 -6 13 C-4.31326082 8.50202887 -2.18326108 4.27113698 0 0 Z " fill="#EF87A5" transform="translate(333,299)"/>
<path d="M0 0 C1.06528748 2.73019786 1.07998186 3.79298812 0.00390625 6.578125 C-0.47175781 7.45984375 -0.94742187 8.3415625 -1.4375 9.25 C-1.91058594 10.14203125 -2.38367188 11.0340625 -2.87109375 11.953125 C-3.24363281 12.62859375 -3.61617188 13.3040625 -4 14 C-4.33 14 -4.66 14 -5 14 C-5.74737188 8.02102497 -3.3231898 4.67620279 0 0 Z " fill="#FC99B7" transform="translate(352,299)"/>
<path d="M0 0 C1.36952673 2.73905345 1.12621361 4.97087332 1 8 C0.67 8.66 0.34 9.32 0 10 C-0.66 10 -1.32 10 -2 10 C-2.103125 10.94875 -2.20625 11.8975 -2.3125 12.875 C-3 16 -3 16 -6 18 C-4 12 -2 6 0 0 Z " fill="#EF8CAA" transform="translate(70,301)"/>
<path d="M0 0 C0 3 0 3 -1 5 C0.32 5 1.64 5 3 5 C2.34 6.65 1.68 8.3 1 10 C0.01 10 -0.98 10 -2 10 C-3.39431504 7.21136993 -3.25660094 5.07921132 -3 2 C-2.01 1.34 -1.02 0.68 0 0 Z " fill="#FB789F" transform="translate(268,296)"/>
<path d="M0 0 C5.29441695 -0.50423019 7.81413519 0.81076967 12 4 C10.68 4.99 9.36 5.98 8 7 C7.773125 6.360625 7.54625 5.72125 7.3125 5.0625 C6.15175712 2.77351151 6.15175712 2.77351151 3.5625 2.125 C0.75556583 1.73353649 0.75556583 1.73353649 -2 4 C-1.34 2.68 -0.68 1.36 0 0 Z " fill="#EC95B0" transform="translate(360,234)"/>
<path d="M0 0 C-0.50603992 2.16874252 -0.99983813 3.99967627 -2 6 C-3.98 6 -5.96 6 -8 6 C-7.75 4.125 -7.75 4.125 -7 2 C-4.41847698 0.27898465 -3.15081975 0 0 0 Z " fill="#F9A2BD" transform="translate(278,298)"/>
<path d="M0 0 C2.68507012 0.9985798 3.78009391 1.54377691 5.046875 4.171875 C6.33164332 8.88269219 7.38972536 13.06347883 7 18 C5.28960242 14.69110001 3.81757164 11.30848923 2.375 7.875 C1.92898438 6.82054687 1.48296875 5.76609375 1.0234375 4.6796875 C0 2 0 2 0 0 Z " fill="#E78AA6" transform="translate(474,275)"/>
<path d="M0 0 C1.32 0 2.64 0 4 0 C4.33 1.65 4.66 3.3 5 5 C2.625 5.625 2.625 5.625 0 6 C-0.66 5.34 -1.32 4.68 -2 4 C-1.34 2.68 -0.68 1.36 0 0 Z " fill="#F7AEC5" transform="translate(467,267)"/>
<path d="M0 0 C0.66 0 1.32 0 2 0 C2 0.66 2 1.32 2 2 C2.99 1.67 3.98 1.34 5 1 C3.79618552 3.49361571 2.54571278 5.68143083 1 8 C0.34 8 -0.32 8 -1 8 C-1.125 2.25 -1.125 2.25 0 0 Z " fill="#FEBBD1" transform="translate(123,185)"/>
<path d="M0 0 C1.32 0 2.64 0 4 0 C3.67 1.65 3.34 3.3 3 5 C1.35 5.33 -0.3 5.66 -2 6 C-2.33 4.68 -2.66 3.36 -3 2 C-2.01 2 -1.02 2 0 2 C0 1.34 0 0.68 0 0 Z " fill="#FA7EA4" transform="translate(159,372)"/>
<path d="M0 0 C0.33 0 0.66 0 1 0 C1.75 2.75 1.75 2.75 2 6 C0.0625 8.375 0.0625 8.375 -2 10 C-3 8 -3 8 -2.44140625 6.0546875 C-2.15136719 5.33539063 -1.86132812 4.61609375 -1.5625 3.875 C-1.27503906 3.15054687 -0.98757812 2.42609375 -0.69140625 1.6796875 C-0.46324219 1.12539063 -0.23507813 0.57109375 0 0 Z M2 2 C2.99 3.485 2.99 3.485 4 5 C3.34 5 2.68 5 2 5 C2 4.01 2 3.02 2 2 Z " fill="#EE89A8" transform="translate(178,285)"/>
<path d="M0 0 C-0.44829514 1.98146451 -0.90892498 3.96014211 -1.375 5.9375 C-1.63023438 7.03964844 -1.88546875 8.14179688 -2.1484375 9.27734375 C-2.42945312 10.17582031 -2.71046875 11.07429687 -3 12 C-3.99 12.495 -3.99 12.495 -5 13 C-5.33 11.02 -5.66 9.04 -6 7 C-5.34 6.67 -4.68 6.34 -4 6 C-3.67 5.01 -3.34 4.02 -3 3 C-3.66 2.67 -4.32 2.34 -5 2 C-2 0 -2 0 0 0 Z " fill="#F8ACC5" transform="translate(107,193)"/>
<path d="M0 0 C1.43655854 -0.08131463 2.8744483 -0.13933559 4.3125 -0.1875 C5.51326172 -0.23970703 5.51326172 -0.23970703 6.73828125 -0.29296875 C9 0 9 0 12 3 C7.545 3.495 7.545 3.495 3 4 C3 3.34 3 2.68 3 2 C2.01 1.34 1.02 0.68 0 0 Z " fill="#FBB0CB" transform="translate(157,189)"/>
<path d="M0 0 C1.65 0 3.3 0 5 0 C5.66 2.31 6.32 4.62 7 7 C4.625 6.3125 4.625 6.3125 2 5 C0.6875 2.375 0.6875 2.375 0 0 Z " fill="#F8B1CA" transform="translate(147,361)"/>
<path d="M0 0 C2 3 2 3 2 5 C1.34 5 0.68 5 0 5 C0 5.99 0 6.98 0 8 C1.32 8 2.64 8 4 8 C4 8.66 4 9.32 4 10 C3.34 10 2.68 10 2 10 C1.67 10.66 1.34 11.32 1 12 C1 11.34 1 10.68 1 10 C0.01 10 -0.98 10 -2 10 C-1.54177532 6.53058454 -1.10868317 3.32604951 0 0 Z " fill="#FDB5CB" transform="translate(177,251)"/>
<path d="M0 0 C0.33 0.66 0.66 1.32 1 2 C-0.60379341 2.05416188 -2.20811406 2.09286638 -3.8125 2.125 C-4.70582031 2.14820313 -5.59914062 2.17140625 -6.51953125 2.1953125 C-9 2 -9 2 -12 0 C-10.56359829 -0.19573608 -9.12580496 -0.38127816 -7.6875 -0.5625 C-6.88699219 -0.66691406 -6.08648437 -0.77132813 -5.26171875 -0.87890625 C-3 -1 -3 -1 0 0 Z " fill="#F1AEC5" transform="translate(245,336)"/>
<path d="M0 0 C0.66 0 1.32 0 2 0 C1.27991594 4.60853797 -0.31295939 8.67237409 -2 13 C-2.33 13 -2.66 13 -3 13 C-3.46192125 8.07284004 -1.8275283 4.49267375 0 0 Z " fill="#EDA1B8" transform="translate(440,292)"/>
<path d="M0 0 C1.21236328 0.02707031 1.21236328 0.02707031 2.44921875 0.0546875 C3.37154297 0.08949219 3.37154297 0.08949219 4.3125 0.125 C4.3125 1.115 4.3125 2.105 4.3125 3.125 C0.3525 2.795 -3.6075 2.465 -7.6875 2.125 C-4.48369983 -0.01086678 -3.66810033 -0.10632175 0 0 Z " fill="#ED8EA9" transform="translate(281.6875,218.875)"/>
<path d="M0 0 C0.66 0 1.32 0 2 0 C1.38801624 3.43950364 0.07941153 5.51564485 -2.0625 8.25 C-2.61035156 8.95640625 -3.15820312 9.6628125 -3.72265625 10.390625 C-4.14417969 10.92171875 -4.56570313 11.4528125 -5 12 C-5.66 11.67 -6.32 11.34 -7 11 C-5.88368586 9.16136495 -4.75670373 7.32920277 -3.625 5.5 C-2.99851562 4.4790625 -2.37203125 3.458125 -1.7265625 2.40625 C-1.15679687 1.6121875 -0.58703125 0.818125 0 0 Z " fill="#EE87A7" transform="translate(413,307)"/>
<path d="M0 0 C0.99 0 1.98 0 3 0 C3.33 1.65 3.66 3.3 4 5 C4.99 5 5.98 5 7 5 C7.33 5.99 7.66 6.98 8 8 C2.25 6.25 2.25 6.25 0 4 C0 2.68 0 1.36 0 0 Z " fill="#EA89A7" transform="translate(454,262)"/>
<path d="M0 0 C3.96 1.98 3.96 1.98 8 4 C7.34 5.32 6.68 6.64 6 8 C6 7.01 6 6.02 6 5 C4.68 5.33 3.36 5.66 2 6 C1.34 4.02 0.68 2.04 0 0 Z " fill="#F79BB7" transform="translate(249,234)"/>
<path d="M0 0 C0.33 0 0.66 0 1 0 C1.125 3.375 1.125 3.375 1 7 C0.34 7.66 -0.32 8.32 -1 9 C-4.625 8.625 -4.625 8.625 -8 8 C-7.34 7.67 -6.68 7.34 -6 7 C-5.67 6.34 -5.34 5.68 -5 5 C-5 5.99 -5 6.98 -5 8 C-3.35 7.34 -1.7 6.68 0 6 C0 4.02 0 2.04 0 0 Z " fill="#F1B9CC" transform="translate(477,293)"/>
<path d="M0 0 C1.5 1.375 1.5 1.375 3 3 C3 3.66 3 4.32 3 5 C0.23735711 5.59732819 -2.16032769 6 -5 6 C-3.35 4.02 -1.7 2.04 0 0 Z " fill="#FDADC8" transform="translate(423,318)"/>
<path d="M0 0 C0.33 0 0.66 0 1 0 C1 1.65 1 3.3 1 5 C2.32 5 3.64 5 5 5 C5.33 6.32 5.66 7.64 6 9 C4.35 9 2.7 9 1 9 C0.67 6.03 0.34 3.06 0 0 Z " fill="#FBACC5" transform="translate(392,316)"/>
<path d="M0 0 C5.37305699 -0.35233161 5.37305699 -0.35233161 8 0 C10 2 10 2 11 4 C6.94393835 3.53199289 3.53411321 3.12046792 0 1 C0 0.67 0 0.34 0 0 Z " fill="#F59CB6" transform="translate(460,296)"/>
<path d="M0 0 C1.65 1.65 3.3 3.3 5 5 C4.01 6.32 3.02 7.64 2 9 C0.4375 6.1875 0.4375 6.1875 -1 3 C-0.67 2.01 -0.34 1.02 0 0 Z " fill="#FEB4CB" transform="translate(484,265)"/>
<path d="M0 0 C0.66 0.33 1.32 0.66 2 1 C-1.42388092 4.82669043 -4.00724943 6.72278474 -9 8 C-6.14723863 5.06799526 -3.34920216 2.35684596 0 0 Z " fill="#ED8BA9" transform="translate(138,183)"/>
<path d="M0 0 C1.875 0.1875 1.875 0.1875 4 1 C5.125 3.375 5.125 3.375 6 6 C6.99 7.485 6.99 7.485 8 9 C3.7938588 7.49780671 2.22833454 4.74041869 0 1 C0 0.67 0 0.34 0 0 Z " fill="#E78CA7" transform="translate(135,364)"/>
<path d="M0 0 C1.32 0.33 2.64 0.66 4 1 C4 2.65 4 4.3 4 6 C3.01 6 2.02 6 1 6 C0.67 4.02 0.34 2.04 0 0 Z " fill="#FDB4CD" transform="translate(308,319)"/>
<path d="M0 0 C1.32 0 2.64 0 4 0 C4.87867729 3.73437848 5.08912219 7.16774573 5 11 C4.67 11 4.34 11 4 11 C3.79503906 10.37351562 3.59007812 9.74703125 3.37890625 9.1015625 C3.10949219 8.28429687 2.84007812 7.46703125 2.5625 6.625 C2.16224609 5.40683594 2.16224609 5.40683594 1.75390625 4.1640625 C1.04820271 1.98968201 1.04820271 1.98968201 0 0 Z " fill="#E992AC" transform="translate(455,284)"/>
<path d="M0 0 C2.31 0.33 4.62 0.66 7 1 C6.67 2.98 6.34 4.96 6 7 C5.34 5.68 4.68 4.36 4 3 C3.01 3 2.02 3 1 3 C0.67 2.01 0.34 1.02 0 0 Z " fill="#F799B8" transform="translate(21,181)"/>
<path d="M0 0 C3.96 1.98 3.96 1.98 8 4 C6 5 4 6 2 7 C1.855625 6.401875 1.71125 5.80375 1.5625 5.1875 C1.1127561 3.43849596 0.57107659 1.71322977 0 0 Z " fill="#F19EB7" transform="translate(119,170)"/>
<path d="M0 0 C0.33 0 0.66 0 1 0 C1.25 2.3125 1.25 2.3125 1 5 C-1.04424538 6.97610386 -2.1176825 8 -5 8 C-5 7.34 -5 6.68 -5 6 C-4.01 6 -3.02 6 -2 6 C-1.34 4.02 -0.68 2.04 0 0 Z " fill="#F4D1DC" transform="translate(168,373)"/>
<path d="M0 0 C0.66 0.33 1.32 0.66 2 1 C0.71937515 2.7074998 -0.61767557 4.37373596 -2 6 C-2.66 6 -3.32 6 -4 6 C-4.33 5.01 -4.66 4.02 -5 3 C-2.625 1.4375 -2.625 1.4375 0 0 Z " fill="#EF8AA9" transform="translate(203,320)"/>
<path d="M0 0 C0.66 0.66 1.32 1.32 2 2 C1.625 4.625 1.625 4.625 1 7 C0.01 7 -0.98 7 -2 7 C-3 4 -3 4 -2 1 C-1.34 0.67 -0.68 0.34 0 0 Z " fill="#FEC6D8" transform="translate(80,321)"/>
<path d="M0 0 C0.33 0 0.66 0 1 0 C1 1.65 1 3.3 1 5 C-0.65 5.66 -2.3 6.32 -4 7 C-2.92598892 4.08482708 -2.22189824 2.22189824 0 0 Z " fill="#EF87A4" transform="translate(68,272)"/>
<path d="M0 0 C0.66 0.99 1.32 1.98 2 3 C1.67 3.99 1.34 4.98 1 6 C0.34 6 -0.32 6 -1 6 C-1 7.32 -1 8.64 -1 10 C-1.66 10 -2.32 10 -3 10 C-2.01 6.7 -1.02 3.4 0 0 Z " fill="#EB89A8" transform="translate(346,267)"/>
<path d="M0 0 C0.33 1.32 0.66 2.64 1 4 C-0.9375 6.75 -0.9375 6.75 -3 9 C-3.66 8.67 -4.32 8.34 -5 8 C-3.35 5.36 -1.7 2.72 0 0 Z " fill="#FEB4CC" transform="translate(77,321)"/>
<path d="M0 0 C1.32 0.33 2.64 0.66 4 1 C3.67 3.31 3.34 5.62 3 8 C0.37613513 4.93882432 0 4.26826873 0 0 Z " fill="#EC85A4" transform="translate(295,321)"/>
<path d="M0 0 C0.99 0.66 1.98 1.32 3 2 C2.67 3.32 2.34 4.64 2 6 C0.68 6 -0.64 6 -2 6 C-1.34 4.02 -0.68 2.04 0 0 Z " fill="#FE92B4" transform="translate(274,294)"/>
<path d="M0 0 C0.66 0 1.32 0 2 0 C1.01 3.3 0.02 6.6 -1 10 C-3 7 -3 7 -3 5 C-2.34 5 -1.68 5 -1 5 C-0.67 3.35 -0.34 1.7 0 0 Z " fill="#F3C6D6" transform="translate(326,269)"/>
<path d="M0 0 C0.33 0.66 0.66 1.32 1 2 C0 4 0 4 -1.84765625 4.6328125 C-2.94400391 4.87644531 -2.94400391 4.87644531 -4.0625 5.125 C-4.79597656 5.29257813 -5.52945313 5.46015625 -6.28515625 5.6328125 C-6.85105469 5.75398437 -7.41695313 5.87515625 -8 6 C-5.63379989 3.38472619 -3.057952 1.73559438 0 0 Z " fill="#E98AA6" transform="translate(85,191)"/>
<path d="M0 0 C1.98 0.99 3.96 1.98 6 3 C5.67 4.32 5.34 5.64 5 7 C4.67 6.01 4.34 5.02 4 4 C1.99983534 2.79117904 1.99983534 2.79117904 0 2 C0 1.34 0 0.68 0 0 Z " fill="#F4ABC3" transform="translate(178,184)"/>
<path d="M0 0 C0 0.99 0 1.98 0 3 C-1.98 3.99 -1.98 3.99 -4 5 C-4.33 3.68 -4.66 2.36 -5 1 C-3.35 0.67 -1.7 0.34 0 0 Z " fill="#F395B1" transform="translate(152,178)"/>
</svg>
